<svg xmlns="http://www.w3.org/2000/svg" xmlns:xlink="http://www.w3.org/1999/xlink" version="1.1" x="0px" y="0px" viewBox="0 0 30 37.5" xml:space="preserve"><g transform="translate(-330 -320)"><g xmlns="http://www.w3.org/2000/svg" xmlns:xlink="http://www.w3.org/1999/xlink"><path d="M345,322c-5.523,0-10,2.82-10,10s6,16,10,16s10-8.82,10-16S350.523,322,345,322z M345,347c-3.129,0-9-7.946-9-15    c0-7.83,5.639-9,9-9s9,1.17,9,9C354,339.054,348.129,347,345,347z"/><path d="M343.992,337.996c0,0,0.157-2.84-1.498-4.494c-1.654-1.654-4.494-1.498-4.494-1.498s-0.157,2.84,1.498,4.494    C341.152,338.152,343.992,337.996,343.992,337.996z"/><path d="M346.008,337.996c0,0,2.84,0.156,4.494-1.498c1.655-1.654,1.498-4.494,1.498-4.494s-2.84-0.156-4.494,1.498    C345.851,335.156,346.008,337.996,346.008,337.996z"/><rect x="343" y="343" width="4" height="1"/></g></g>
</svg>
