<svg xmlns="http://www.w3.org/2000/svg" xmlns:xlink="http://www.w3.org/1999/xlink" version="1.1" x="0px" y="0px" viewBox="0 0 64 80" enable-background="new 0 0 64 64" xml:space="preserve">
  <g>
    <g>
      <g><path
        d="M16.999,54.937c-0.514,0-0.951-0.394-0.995-0.915l-1.987-23.226l-2.646-4.814c-0.267-0.483-0.09-1.092,0.395-1.357     c0.482-0.266,1.092-0.09,1.357,0.395l2.749,5c0.067,0.122,0.108,0.257,0.12,0.396l2.005,23.437     c0.047,0.55-0.36,1.034-0.911,1.081C17.057,54.936,17.027,54.937,16.999,54.937z"/></g>
      <g><path
        d="M10.305,20.514c-0.275,0-0.548-0.114-0.743-0.331l-6.31-7.014c-0.198-0.221-0.289-0.518-0.247-0.812     c0.043-0.294,0.214-0.554,0.466-0.709l13-8c0.472-0.29,1.086-0.144,1.376,0.327c0.289,0.471,0.143,1.087-0.327,1.376     L5.541,12.723l4.956,5.51l10.983-6.59c0.475-0.285,1.089-0.13,1.372,0.343c0.284,0.474,0.131,1.088-0.343,1.372l-11.69,7.014     C10.659,20.467,10.481,20.514,10.305,20.514z"/></g>
      <g><path
        d="M9.995,25.539c-0.135,0-0.27-0.027-0.398-0.083l-8.989-3.9c-0.283-0.123-0.494-0.37-0.57-0.67     c-0.077-0.3-0.01-0.618,0.181-0.862l4.788-6.139c0.338-0.436,0.967-0.514,1.403-0.173c0.436,0.339,0.513,0.968,0.173,1.403     l-3.993,5.12l7.13,3.094l8.186-9.482c0.359-0.42,0.993-0.465,1.41-0.104c0.418,0.36,0.465,0.992,0.104,1.41l-8.666,10.039     C10.558,25.418,10.279,25.539,9.995,25.539z"/></g>
      <g><path
        d="M10.996,30.5c-0.072,0-0.146-0.008-0.218-0.023l-9-2c-0.519-0.115-0.856-0.616-0.77-1.141l0.996-6     c0.09-0.545,0.606-0.916,1.15-0.822c0.545,0.09,0.913,0.605,0.822,1.15l-0.841,5.065l7.178,1.595l2.727-8.718     c0.164-0.527,0.722-0.822,1.253-0.655c0.526,0.164,0.82,0.726,0.655,1.253l-3,9.595C11.816,30.223,11.425,30.5,10.996,30.5z"/></g>
      <g><path
        d="M47.001,54.937c-0.028,0-0.058-0.001-0.086-0.004c-0.551-0.047-0.958-0.531-0.911-1.081l2.005-23.437     c0.012-0.14,0.053-0.274,0.12-0.396l2.749-5c0.266-0.484,0.876-0.66,1.357-0.395c0.484,0.266,0.661,0.874,0.395,1.357     l-2.646,4.814l-1.987,23.226C47.952,54.543,47.515,54.937,47.001,54.937z"/></g>
      <g><path
        d="M53.695,20.514c-0.177,0-0.354-0.047-0.515-0.143l-11.69-7.014c-0.474-0.284-0.627-0.898-0.343-1.372     c0.284-0.473,0.897-0.628,1.372-0.343l10.983,6.59l4.956-5.51L46.48,5.352c-0.47-0.289-0.616-0.905-0.327-1.376     c0.288-0.471,0.902-0.617,1.376-0.327l13,8c0.252,0.155,0.423,0.415,0.466,0.709c0.042,0.294-0.049,0.591-0.247,0.812     l-6.31,7.014C54.243,20.399,53.971,20.514,53.695,20.514z"/></g>
      <g><path
        d="M54.005,25.539c-0.284,0-0.563-0.121-0.757-0.347l-8.666-10.039c-0.361-0.418-0.314-1.05,0.104-1.41     c0.417-0.361,1.05-0.316,1.41,0.104l8.186,9.482l7.13-3.094l-3.993-5.12c-0.34-0.436-0.263-1.064,0.173-1.403     c0.435-0.341,1.064-0.263,1.403,0.173l4.788,6.139c0.19,0.244,0.258,0.563,0.181,0.862c-0.076,0.3-0.287,0.547-0.57,0.67     l-8.989,3.9C54.274,25.512,54.139,25.539,54.005,25.539z"/></g>
      <g><path
        d="M53.004,30.5c-0.429,0-0.82-0.276-0.953-0.701l-3-9.595c-0.165-0.527,0.129-1.089,0.655-1.253     c0.53-0.166,1.088,0.129,1.253,0.655l2.727,8.718l7.178-1.595l-0.841-5.065c-0.091-0.545,0.277-1.061,0.822-1.15     c0.554-0.1,1.061,0.278,1.15,0.822l0.996,6c0.087,0.524-0.251,1.025-0.77,1.141l-9,2C53.149,30.492,53.076,30.5,53.004,30.5z"/></g>
      <g><path d="M47.005,5.5h-30.01c-0.553,0-1-0.447-1-1s0.447-1,1-1h30.01c0.553,0,1,0.447,1,1S47.558,5.5,47.005,5.5z"/></g>
      <g><path d="M14.996,31.5c-0.358,0-0.705-0.193-0.885-0.532c-0.259-0.488-0.072-1.093,0.416-1.352l17-9     c0.49-0.259,1.093-0.071,1.352,0.416c0.259,0.488,0.072,1.093-0.416,1.352l-17,9C15.313,31.463,15.153,31.5,14.996,31.5z"/></g>
      <g><path d="M48.999,31.5c-0.157,0-0.317-0.037-0.467-0.116l-17-9c-0.488-0.259-0.675-0.863-0.416-1.352     c0.259-0.487,0.861-0.675,1.352-0.416l17,9c0.488,0.259,0.675,0.863,0.416,1.352C49.704,31.307,49.357,31.5,48.999,31.5z"/></g>
      <g><path d="M32,31.5c-0.115,0-0.233-0.02-0.348-0.063l-10-3.709c-0.518-0.192-0.782-0.768-0.59-1.285     c0.191-0.518,0.768-0.783,1.285-0.59l10,3.709c0.518,0.192,0.782,0.768,0.59,1.285C32.788,31.251,32.406,31.5,32,31.5z"/></g>
      <g><path d="M32,31.5c-0.406,0-0.788-0.249-0.938-0.652c-0.192-0.518,0.072-1.093,0.59-1.285l10-3.709     c0.518-0.193,1.093,0.072,1.285,0.59s-0.072,1.093-0.59,1.285l-10,3.709C32.233,31.48,32.115,31.5,32,31.5z"/></g>
      <g><path d="M32,41.5c-0.115,0-0.233-0.02-0.348-0.063l-10-3.709c-0.518-0.192-0.782-0.768-0.59-1.285     c0.191-0.518,0.768-0.784,1.285-0.59l10,3.709c0.518,0.192,0.782,0.768,0.59,1.285C32.788,41.251,32.406,41.5,32,41.5z"/></g>
      <g><path d="M32,41.5c-0.406,0-0.788-0.249-0.938-0.652c-0.192-0.518,0.072-1.093,0.59-1.285l10-3.709     c0.518-0.195,1.093,0.072,1.285,0.59s-0.072,1.093-0.59,1.285l-10,3.709C32.233,41.48,32.115,41.5,32,41.5z"/></g>
      <g><path d="M32,51.5c-0.115,0-0.233-0.02-0.348-0.063l-10-3.709c-0.518-0.192-0.782-0.768-0.59-1.285     c0.191-0.518,0.768-0.783,1.285-0.59l10,3.709c0.518,0.192,0.782,0.768,0.59,1.285C32.788,51.251,32.406,51.5,32,51.5z"/></g>
      <g><path d="M32,51.5c-0.406,0-0.788-0.249-0.938-0.652c-0.192-0.518,0.072-1.093,0.59-1.285l10-3.709     c0.518-0.193,1.093,0.072,1.285,0.59s-0.072,1.093-0.59,1.285l-10,3.709C32.233,51.48,32.115,51.5,32,51.5z"/></g>
      <g><path d="M32,60.5c-0.115,0-0.233-0.02-0.348-0.063l-15-5.563c-0.518-0.192-0.782-0.768-0.59-1.285     c0.191-0.518,0.77-0.785,1.285-0.59l15,5.563c0.518,0.192,0.782,0.768,0.59,1.285C32.788,60.251,32.406,60.5,32,60.5z"/></g>
      <g><path d="M32,60.5c-0.406,0-0.788-0.249-0.938-0.652c-0.192-0.518,0.072-1.093,0.59-1.285l15-5.563     c0.518-0.195,1.094,0.072,1.285,0.59c0.192,0.518-0.072,1.093-0.59,1.285l-15,5.563C32.233,60.48,32.115,60.5,32,60.5z"/></g>
      <g><path d="M21.996,13.5c-0.333,0-0.659-0.166-0.849-0.47l-5-8c-0.293-0.469-0.15-1.086,0.317-1.378     c0.47-0.294,1.085-0.151,1.378,0.317l5,8c0.293,0.469,0.15,1.086-0.317,1.378C22.36,13.451,22.177,13.5,21.996,13.5z"/></g>
      <g><path d="M42.004,13.5c-0.181,0-0.364-0.049-0.529-0.152c-0.468-0.292-0.61-0.909-0.317-1.378l5-8     c0.292-0.469,0.909-0.611,1.378-0.317c0.468,0.292,0.61,0.909,0.317,1.378l-5,8C42.663,13.334,42.337,13.5,42.004,13.5z"/></g>
      <g><path d="M31.999,13.5c-0.219,0-0.439-0.071-0.624-0.219l-10-8c-0.431-0.346-0.501-0.975-0.156-1.406     c0.347-0.429,0.975-0.501,1.406-0.156l10,8c0.431,0.346,0.501,0.975,0.156,1.406C32.583,13.371,32.293,13.5,31.999,13.5z"/></g>
      <g><path d="M32.001,13.5c-0.294,0-0.584-0.128-0.782-0.375c-0.345-0.432-0.274-1.061,0.156-1.406l10-8     c0.433-0.346,1.062-0.275,1.406,0.156s0.274,1.061-0.156,1.406l-10,8C32.44,13.429,32.22,13.5,32.001,13.5z"/></g>
      <g><path d="M32,16.5c-0.553,0-1-0.447-1-1v-3c0-0.553,0.447-1,1-1s1,0.447,1,1v3C33,16.053,32.553,16.5,32,16.5z"/></g>
      <g><path d="M22,56.789c-0.553,0-1-0.447-1-1V26.791c0-0.553,0.447-1,1-1s1,0.447,1,1v28.998C23,56.342,22.553,56.789,22,56.789z"/></g>
      <g><path d="M42,56.789c-0.553,0-1-0.447-1-1V26.791c0-0.553,0.447-1,1-1s1,0.447,1,1v28.998C43,56.342,42.553,56.789,42,56.789z"/></g>
    </g>
  </g>

</svg>
