<svg xmlns="http://www.w3.org/2000/svg" xmlns:xlink="http://www.w3.org/1999/xlink" version="1.1" x="0px" y="0px" viewBox="0 0 100 125" enable-background="new 0 0 100 100" xml:space="preserve">
  <g><path
    d="M42.766,59.141c0.079-4.003,0.585-5.624,0.585-5.624s-4.957-3.269-3.691-7.593c0,0-3.48,0.844-2.109,3.797L5.174,26.941   c0,0-1.371,10.124,3.586,13.288c4.957,3.164,19.679,10.769,19.679,10.769s-18.216-4.5-19.595-6.82c0,0,1.421,7.673,5.56,8.928   c4.139,1.254,13.722,3.975,13.722,3.975s-12.464,0.014-12.85-0.663c0,0,0.435,6.044,5.126,6.093c4.69,0.048,9.284-0.29,9.284-0.29   s-6.656,3.181-8.212,2.484c0,0,1.288,3.809,4.185,3.97c2.897,0.161,6.76-1.395,6.76-1.395s-2.461,3.363-3.917,3.363   c0,0,1.674,3.566,4.513,2.038c2.839-1.528,8.37-4.294,8.37-4.294l7.861,3.93C49.244,72.315,42.616,66.713,42.766,59.141z"/><path
    d="M94.826,26.941L62.449,49.72c1.371-2.953-2.109-3.797-2.109-3.797c1.266,4.324-3.691,7.593-3.691,7.593   s0.506,1.621,0.585,5.624c0.15,7.572-6.478,13.174-6.478,13.174l7.861-3.93c0,0,5.532,2.766,8.37,4.294   c2.839,1.528,4.513-2.038,4.513-2.038c-1.456,0-3.917-3.363-3.917-3.363s3.863,1.556,6.76,1.395c2.897-0.161,4.185-3.97,4.185-3.97   c-1.556,0.697-8.212-2.484-8.212-2.484s4.594,0.339,9.284,0.29c4.69-0.048,5.125-6.093,5.125-6.093   c-0.387,0.677-12.85,0.663-12.85,0.663s9.583-2.72,13.722-3.975c4.139-1.254,5.56-8.928,5.56-8.928   c-1.38,2.32-19.595,6.82-19.595,6.82s14.722-7.605,19.679-10.769C96.197,37.065,94.826,26.941,94.826,26.941z"/></g>  
</svg>
