<svg
  xmlns:dc="http://purl.org/dc/elements/1.1/"
  xmlns:cc="http://creativecommons.org/ns#"
  xmlns:rdf="http://www.w3.org/1999/02/22-rdf-syntax-ns#"
  xmlns:svg="http://www.w3.org/2000/svg"
  xmlns="http://www.w3.org/2000/svg"
  xmlns:sodipodi="http://sodipodi.sourceforge.net/DTD/sodipodi-0.dtd"
  xmlns:inkscape="http://www.inkscape.org/namespaces/inkscape"
  version="1.1"
  x="0px"
  y="0px"
  viewBox="0 0 100 125">
  <g transform="translate(0,-952.36218)"><path
    style="text-indent:0;text-transform:none;direction:ltr;block-progression:tb;baseline-shift:baseline;color:#000000;enable-background:accumulate;"
    d="m 24.998024,960.63916 c -1.8174,0.011 -3.6551,0.9001 -4.4688,2.75 -1.7748,4.0432 -5.456199,11.8241 -8.531199,19.2812 -1.5375,3.7285 -2.9256003,7.3811 -3.8438003,10.4688 -0.9179,3.0865 -1.4894,5.52 -1,7.34374 1.443,5.4136 3.8307003,9.356 5.7188003,13.7187 1.8469,4.2678 3.2686,8.9626 3.0624,16.0938 -1.5666,0.4222 -3.114,0.8383 -4.6874,1.2812 a 1.0001,1.0001 0 0 0 -0.6876,1.25 l 2.8126,10.5 a 1.0001,1.0001 0 0 0 1.2187,0.7188 l 31.749999,-8.5 a 1.0001,1.0001 0 0 0 0.7187,-1.2188 l -2.8437,-10.5312 a 1.0001,1.0001 0 0 0 -1.2187,-0.7188 l -4.6563,1.25 c 0.7427,-3.7341 1.0069,-9.3404 0.062,-12.8437 0,-10e-4 0,-0.031 0,-0.031 -0.9267,-3.465 -2.3354,-5.7377 -3.625,-7.6874 -1.2879,-1.947 -2.4314,-3.5537 -3.0625,-5.90634 l -2.1563,-9.25 c -0.4861,-2.1255 -2.5652,-3.3764 -4.6874,-3.2187 l 4.875,-18.5938 c 0.3993,-1.5334 0.1811,-2.9291 -0.4688,-3.9688 -0.6498,-1.0396 -1.6766,-1.701 -2.7812,-2 -0.4832,-0.1306 -0.9913,-0.1907 -1.5,-0.1874 z m 0.031,2 c 0.3149,0 0.6321,0.042 0.9375,0.125 0.6979,0.1887 1.2824,0.577 1.625,1.125 0.3424,0.5478 0.5078,1.2954 0.2187,2.4062 l -5.1874,19.875 c -1.5254,1.0299 -2.3325,2.8948 -1.9376,4.7188 l 3.8438,17.75004 a 1.0001,1.0001 0 1 0 1.9375,-0.4063 l -3.8125,-17.75004 a 1.0001,1.0001 0 0 0 0,-0.031 c -0.2818,-1.3005 0.4606,-2.6185 1.875,-3 1.405,-0.3697 2.8208,0.395 3.0938,1.5938 l 2.1562,9.3125 a 1.0001,1.0001 0 0 0 0,0.031 c 0.727,2.71964 2.0431,4.58104 3.3125,6.50004 1.2693,1.9189 2.5218,3.9027 3.375,7.0937 0.8392,3.1108 0.4851,9.7588 -0.2813,12.9375 l -5.5937,1.5 a 1.0001,1.0001 0 1 0 0.5313,1.9062 l 6.125,-1.625 5.3124,-1.4374 2.3126,8.5937 -29.812599,8 -2.3124,-8.5937 c 3.7402,-1.0431 7.450699,-2.0371 11.218699,-3 a 1.0005366,1.0005366 0 1 0 -0.5,-1.9376 c -1.8427,0.471 -3.6715,0.9528 -5.5,1.4376 0.1167,-7.107 -1.388499,-12.0425 -3.249999,-16.3438 -1.9557,-4.519 -4.2622,-8.3233 -5.6250003,-13.43754 -0.2288,-0.851 0.085,-3.3083 0.9687003,-6.2813 0.8842,-2.9728 2.2579,-6.5557 3.7813,-10.25 3.0465,-7.388 6.725999,-15.1373 8.531299,-19.25 0.4513,-1.025 1.5316,-1.5631 2.6562,-1.5624 z"
    fill="#000000"
    fill-opacity="1"
    fill-rule="evenodd"
    stroke="none"
    marker="none"
    visibility="visible"
    display="inline"
    overflow="visible"/><path
    style="text-indent:0;text-transform:none;direction:ltr;block-progression:tb;baseline-shift:baseline;color:#000000;enable-background:accumulate;"
    d="m 75.029224,960.63916 c -0.5092,0 -1.0164,0.057 -1.5,0.1874 -1.1052,0.299 -2.1629,0.96 -2.8125,2 -0.6493,1.0399 -0.8394,2.4359 -0.4375,3.9688 l 4.8438,18.5938 c -2.1235,-0.1534 -4.1931,1.1001 -4.6876,3.2187 l -2.125,9.25 c -0.6309,2.35464 -1.7727,3.95864 -3.0624,5.90634 -1.291,1.9499 -2.7244,4.2214 -3.6563,7.6874 a 1.0001,1.0001 0 0 0 0,0.031 c -0.9344,3.4993 -0.6854,9.1058 0.062,12.8437 l -4.6562,-1.25 a 1.0001,1.0001 0 0 0 -1.2183,0.7191 l -2.8125,10.5312 a 1.0001,1.0001 0 0 0 0.7187,1.2188 l 31.7188,8.5 a 1.0001,1.0001 0 0 0 1.25,-0.7188 l 2.8125,-10.5 a 1.0001,1.0001 0 0 0 -0.6875,-1.25 c -1.5737,-0.4429 -3.1519,-0.8589 -4.7188,-1.2812 -0.211,-7.1315 1.2156,-11.826 3.0626,-16.0938 1.8881,-4.3628 4.2708,-8.3043 5.7187,-13.7187 0.4867,-1.82324 -0.05,-4.25644 -0.9687,-7.34374 -0.9186,-3.0875 -2.307,-6.7403 -3.8438,-10.4688 -3.0737,-7.4569 -6.7562,-15.2378 -8.5312,-19.2812 -0.8141,-1.8503 -2.6503,-2.7388 -4.4688,-2.75 z m -0.062,2 c 1.126,0 2.2363,0.5379 2.6875,1.5624 1.8052,4.1123 5.486,11.8618 8.5312,19.25 1.5229,3.6944 2.8655,7.2771 3.75,10.25 0.8844,2.9725 1.1959,5.4289 0.9688,6.2813 -1.3677,5.11414 -3.6693,8.91844 -5.625,13.43754 -1.8616,4.3015 -3.34,9.237 -3.2188,16.3438 -1.8283,-0.4847 -3.6574,-0.9667 -5.5,-1.4376 a 1.0005366,1.0005366 0 1 0 -0.5,1.9376 c 3.7682,0.9628 7.4786,1.9568 11.2188,3 l -2.3125,8.5937 -29.8125,-8 2.3125,-8.5937 5.3125,1.4374 6.0938,1.625 a 1.0001,1.0001 0 1 0 0.5312,-1.9062 l -5.5625,-1.5 c -0.7724,-3.1736 -1.1444,-9.8223 -0.3125,-12.9375 0.858,-3.1903 2.1044,-5.1747 3.375,-7.0937 1.2708,-1.9193 2.6166,-3.7803 3.3438,-6.50004 a 1.0001,1.0001 0 0 0 0,-0.031 l 2.125,-9.3125 c 0.2829,-1.2041 1.7081,-1.9634 3.125,-1.5938 1.3994,0.3808 2.1472,1.7311 1.875,3.0313 l -3.8438,17.75004 a 1.0051434,1.0051434 0 0 0 1.9688,0.4063 l 3.8437,-17.75004 c 0.3854,-1.8258 -0.4123,-3.6906 -1.9375,-4.7188 l -5.188,-19.8753 c -0.2915,-1.1114 -0.1231,-1.8586 0.2187,-2.4062 0.3419,-0.5476 0.8952,-0.9362 1.5938,-1.125 0.3057,-0.083 0.6221,-0.1249 0.9375,-0.125 z"
    fill="#000000"
    fill-opacity="1"
    fill-rule="evenodd"
    stroke="none"
    marker="none"
    visibility="visible"
    display="inline"
    overflow="visible"/><path
    style="text-indent:0;text-transform:none;direction:ltr;block-progression:tb;baseline-shift:baseline;color:#000000;enable-background:accumulate;"
    d="m 45.162724,975.52906 a 1.000096,1.0001041 0 0 0 -1,0.9999 l 0,7.3769 -7.3768,0 a 1.000096,1.0001041 0 0 0 -1,1 l 0,9.6943 a 1.000096,1.0001041 0 0 0 1,0.9999 l 7.3768,0 0,7.37694 a 1.000096,1.0001041 0 0 0 1,1 l 9.6942,0 a 1.000096,1.0001041 0 0 0 0.9999,-1 l 0,-7.37694 7.3769,0 a 1.000096,1.0001041 0 0 0 0.9999,-0.9999 l 0,-9.6943 a 1.000096,1.0001041 0 0 0 -0.9999,-1 l -7.3769,0 0,-7.3769 a 1.000096,1.0001041 0 0 0 -0.9999,-0.9999 l -9.6942,0 z"
    fill="#000000"
    fill-opacity="1"
    fill-rule="evenodd"
    stroke="none"
    marker="none"
    visibility="visible"
    display="inline"
    overflow="visible"/></g>
</svg>
