<svg xmlns="http://www.w3.org/2000/svg" data-name="Layer 1" viewBox="0 0 32 40" x="0px" y="0px">
  <title>star line icons</title><path
    d="M27.67,16l2.19-3.79a4.22,4.22,0,0,0-3.65-6.32H21.84L19.65,2.11A4.18,4.18,0,0,0,16,0h0a4.18,4.18,0,0,0-3.65,2.11L10.16,5.89H5.79a4.22,4.22,0,0,0-3.65,6.32L4.33,16,2.14,19.79a4.22,4.22,0,0,0,3.65,6.32h4.37l2.19,3.78a4.21,4.21,0,0,0,7.3,0l2.19-3.78h4.37a4.22,4.22,0,0,0,3.65-6.32ZM26.21,7.89a2.22,2.22,0,0,1,1.92,3.33L26.52,14,23,7.89ZM25.36,16l-4.68,8.11H11.32L6.64,16l4.68-8.11h9.36ZM14.08,3.11a2.22,2.22,0,0,1,3.84,0l1.61,2.78H12.47ZM3.87,11.22A2.22,2.22,0,0,1,5.79,7.89H9L5.48,14ZM5.79,24.11a2.22,2.22,0,0,1-1.92-3.33L5.48,18,9,24.11Zm12.13,4.78a2.22,2.22,0,0,1-3.84,0l-1.61-2.78h7.06ZM28.13,23a2.21,2.21,0,0,1-1.92,1.11H23L26.52,18l1.61,2.78A2.2,2.2,0,0,1,28.13,23Z"/>
</svg>
