<svg xmlns="http://www.w3.org/2000/svg" xmlns:xlink="http://www.w3.org/1999/xlink" version="1.1" x="0px" y="0px" viewBox="0 0 100.013 296.47875" style="enable-background:new 0 0 100.013 237.183;" xml:space="preserve"><g><path d="M83.716,56.968c-5.6-5.262-11.072-6.175-13.893-6.245c-0.166-0.011-0.331-0.025-0.499-0.025H30.689   c-0.172,0-0.341,0.015-0.511,0.026c-2.823,0.072-8.289,0.988-13.883,6.243C3.404,69.081-1.88,96.645,0.591,138.893   c0.249,4.252,3.774,7.533,7.979,7.533c0.157,0,0.316-0.004,0.475-0.014c4.411-0.258,7.777-4.043,7.519-8.454   c-2.056-35.14,1.926-53.871,6.397-63.168v33.089v18.94v98c0,6.83,5.537,12.363,12.363,12.363c6.828,0,12.365-5.533,12.365-12.363   v-90.271h4.635v90.271c0,6.83,5.537,12.363,12.363,12.363c6.828,0,12.365-5.533,12.365-12.363v-98v-18.94V74.794   c4.47,9.298,8.452,28.029,6.396,63.165c-0.258,4.411,3.108,8.196,7.519,8.454c0.159,0.009,0.317,0.014,0.475,0.014   c4.205,0,7.73-3.281,7.979-7.533C101.893,96.646,96.609,69.082,83.716,56.968z"/><circle cx="50.007" cy="22.5" r="22.5"/></g></svg>