<svg xmlns="http://www.w3.org/2000/svg" xmlns:xlink="http://www.w3.org/1999/xlink" version="1.1" x="0px" y="0px" viewBox="0 0 64 80" style="enable-background:new 0 0 64 64;" xml:space="preserve">
  <title>peace</title>
  <g><path d="M31.4,50.7H19.6c-0.6,0-1,0.4-1,1s0.4,1,1,1h11.8c0.6,0,1-0.4,1-1S31.9,50.7,31.4,50.7z"/><path d="M26.2,46.9c0-0.6-0.4-1-1-1H10.4c-0.6,0-1,0.4-1,1s0.4,1,1,1h14.8C25.8,47.9,26.2,47.5,26.2,46.9z"/><path d="M16.2,42.2c0-0.6-0.4-1-1-1h-8c-0.6,0-1,0.4-1,1s0.4,1,1,1h8C15.7,43.2,16.2,42.7,16.2,42.2z"/><path d="M3.8,41.5c-0.4-0.4-1.1-0.4-1.4,0c-0.1,0.1-0.2,0.2-0.2,0.3S2.1,42,2.1,42.2c0,0.3,0.1,0.5,0.3,0.7s0.4,0.3,0.7,0.3   s0.5-0.1,0.7-0.3c0.2-0.2,0.3-0.4,0.3-0.7c0-0.1,0-0.3-0.1-0.4C4,41.7,3.9,41.6,3.8,41.5z"/><path
    d="M61.8,44.5c-0.3-0.9-0.9-1.6-1.8-1.9c-1.6-0.6-10-3.8-10-3.8c-0.9-0.3-1.7-0.9-2.2-1.8l-2.4-3.9h0.2c0.6,0,1-0.4,1-1   c0-0.6-0.4-1-1-1h-1.4l-1.1-1.7h0.1c0.6,0,1-0.4,1-1c0-0.6-0.4-1-1-1h-1.4L40.9,26H41c0.6,0,1-0.4,1-1s-0.4-1-1-1h-1.4l-1.2-2   c0,0,0-0.1-0.1-0.1c-1.1-1.4-2.7-2-4.4-1.8c-1.4,0.2-2.6,1-3.1,2.2c-0.1,0.3-0.1,0.6,0.1,0.9l7.2,12.3c0.6,1,1.5,1.7,2.5,2.1   l8.6,3.1c0.1,0,8.4,3.2,10,3.8c0.3,0.1,0.5,0.3,0.6,0.7c0.2,0.5,0,1.3-0.3,2H44.2c-1,0-1.9-0.3-2.7-0.9l-25.6-19   c0.6-0.5,0.9-1.3,0.8-2.1l-1-9.6c0.3-0.6,0.8-1.4,1.1-1.8c0.3-0.4,0.8-0.5,1.1-0.2c0.3,0.2,1.4,1.3,4.2,5.6   c1.5,2.1,3.8,3.6,6.3,4.1c0.1,0,0.1,0,0.2,0c0.5,0,0.9-0.3,1-0.8c0.1-0.5-0.3-1.1-0.8-1.2c-2-0.3-3.8-1.5-5-3.2   c-3.3-5.2-4.3-5.9-4.7-6.2c-1.2-0.9-2.8-0.6-3.8,0.5l-5.9,9.2C9,22.2,8.9,22.8,9,23.7l0,0c-0.7,0.2-1.4,0.6-1.8,1.3l-1.3,2.1   c-0.4,0.7-0.6,1.5-0.4,2.3c0.2,0.8,0.7,1.5,1.3,1.9l7.7,4.9c0,0,0.1,0.1,0.1,0.1c7.5,4.9,17.8,11.5,23.3,15   c1.7,1.1,3.6,1.6,5.6,1.6h6c0,0,0,0,0.1,0c3.8,0,8.9-1.1,11-4.1C61.7,47.6,62.2,46,61.8,44.5z M41.4,35.6c-0.6-0.2-1.1-0.7-1.5-1.2   L33,22.6c0.3-0.3,0.8-0.5,1.3-0.6s1.6,0,2.5,1l0.5,0.8h-0.2c-0.6,0-1,0.4-1,1c0,0.6,0.4,1,1,1h1.5l0.9,1.4h-0.2c-0.6,0-1,0.4-1,1   c0,0.6,0.4,1,1,1h1.5l1.1,1.7h-0.2c-0.6,0-1,0.4-1,1c0,0.6,0.4,1,1,1h1.4l2.5,4.1L41.4,35.6z M11.2,22.6l2.8-4.4l0.7,7.1   c0,0.3-0.2,0.4-0.3,0.5c-0.1,0.1-0.3,0.1-0.5,0L11.5,24C11.1,23.6,11,23,11.2,22.6z M49.8,50.9C49.8,50.9,49.8,50.9,49.8,50.9h-6.1   c-1.6,0-3.2-0.5-4.6-1.3c-4.9-3.1-13.6-8.8-20.8-13.4l0,0L7.9,29.7c-0.2-0.1-0.4-0.4-0.4-0.6c-0.1-0.3,0-0.5,0.1-0.8l1.3-2.1   c0.1-0.2,0.4-0.4,0.7-0.4c0.3-0.1,0.6,0,0.8,0.2l0.7,0.5L40,47.9c1.1,0.8,2.5,1.3,3.9,1.3h13.4C55.3,50.3,52.4,50.9,49.8,50.9z"/></g>
</svg>
