<svg
  xmlns:dc="http://purl.org/dc/elements/1.1/"
  xmlns:cc="http://creativecommons.org/ns#"
  xmlns:rdf="http://www.w3.org/1999/02/22-rdf-syntax-ns#"
  xmlns:svg="http://www.w3.org/2000/svg"
  xmlns="http://www.w3.org/2000/svg"
  xmlns:sodipodi="http://sodipodi.sourceforge.net/DTD/sodipodi-0.dtd"
  xmlns:inkscape="http://www.inkscape.org/namespaces/inkscape"
  version="1.1"
  x="0px"
  y="0px"
  viewBox="0 0 100 125">
  <g transform="translate(0,-952.36218)">
    <g transform="translate(15.009267,961.38383)"><path
      d="M 36.460629,0.03543307 C 28.948819,0.07086615 18.92126,2.1614174 10.807086,5.7047247 8.4330708,6.5905516 7.9015747,7.26378 7.3346456,9.248032 5.9173228,14.52756 4.6417322,20.374017 3.5787401,25.228348 2.0551181,32.17323 0.03543307,38.692916 0,45.956696 0,53.362208 0.56692913,58.429137 2.4448819,62.964571 2.1259842,58.960633 1.8425197,55.204728 5.9881889,50.952759 c -2.7992126,10.204725 -1.9133858,13.003938 0,23.775592 0.9212598,2.834646 3.6141732,3.188976 6.0590551,3.224409 14.031496,1.062993 28.559055,2.30315 42.803149,3.968505 6.732283,-2.905512 10.488189,-5.775591 12.543307,-9.1063 1.133858,-1.84252 1.807086,-3.862205 2.161417,-6.165355 -3.685039,-0.46063 -7.866141,-0.92126 -9.212598,-2.728346 -9.708661,5.244094 -22.110236,5.988189 -26.326771,0.03543 11.374015,6.094488 31.996062,-1.913386 34.405511,-11.232284 -0.956693,-2.232284 -2.338583,-4.464568 -4.181102,-6.44882 -3.826772,-4.181102 -9.496063,-7.334646 -17.255906,-7.334646 -6.590551,0 -11.905511,4.251969 -16.122047,8.574804 1.594488,10.877953 -0.637795,14.350394 -6.874015,18.425198 C 34.830708,55.133862 27.212598,38.657483 19.204724,28.59449 19.062992,28.417325 18.992126,28.169293 18.992126,27.956695 l 0,-4.393701 C 17.255905,22.500001 17.114173,21.118111 17.007874,19.452757 13.818897,19.594489 10.062992,19.02756 9.9921258,15.944883 20.019685,21.047245 18,11.976379 18.992126,11.976379 c 0.992126,0 0.708661,4.535433 0.956693,5.031496 0.212598,0.637795 0.673228,1.311024 1.381889,1.948819 -1.240157,-0.318898 -2.161417,-0.850394 -2.303149,0.389764 -0.106299,1.240157 0.177165,2.586614 1.169291,2.622047 1.771654,0 3.22441,-0.07087 4.818898,-0.248031 0,-6.767717 -0.03543,-8.822835 -2.019685,-12.7559065 2.905511,0 3.93307,4.7480315 4.003937,12.3307095 1.062992,-0.354331 2.019685,-1.062992 3.011811,-1.629922 0,-6.732283 -0.03543,-8.787402 -1.027559,-13.7125987 2.728346,4.5354337 2.976377,7.5472447 3.011811,12.5433077 l 3.011811,-1.73622 c -0.1063,-6.129922 -1.062993,-9.1063002 -2.019685,-13.7834659 3.401574,4.2165357 3.897637,8.4330709 3.93307,12.6496069 l 2.125985,-1.27559 C 39.47244,12.082678 39.47244,9.1417328 39.01181,6.4133862 38.409448,3.7913388 37.842519,1.6653544 36.460629,0.03543307 z M 35.787401,18.602363 31.216535,21.224411 c 1.204724,1.27559 2.728346,1.877953 3.933071,1.133858 0.81496,-1.346457 0.81496,-2.374016 0.637795,-3.755906 z M 69.519684,56.26772 c -2.019685,2.76378 -4.818897,5.102362 -7.972441,6.980315 1.417323,0.92126 3.472441,1.275591 8.291339,0.814961 0.212598,-2.728347 0.248031,-5.350394 -0.318898,-7.795276 z"
      style=""
      fill="black"
      fill-opacity="1"
      fill-rule="nonzero"
      stroke="none"/></g>
  </g>
</svg>
