<svg xmlns="http://www.w3.org/2000/svg" xmlns:xlink="http://www.w3.org/1999/xlink" version="1.1" x="0px" y="0px" viewBox="0 0 100 100" enable-background="new 0 0 99.085 100" xml:space="preserve">
    <path d="M49.541,0C22.198-0.019,0.027,22.376,0,49.978C0.027,77.621,22.198,100.01,49.541,100  c27.353,0.011,49.523-22.379,49.544-50.021C99.064,22.376,76.894-0.019,49.541,0z M49.541,88.483  c-21.038,0-38.096-17.231-38.079-38.512c-0.021-21.229,17.041-38.457,38.079-38.451c21.048-0.006,38.109,17.222,38.132,38.458  C87.65,71.251,70.589,88.483,49.541,88.483z"/>
    <path d="M45.37,64.349l9.073-0.041v-7.015c-0.023-1.901,0.863-3.704,3.242-5.261c2.38-1.563,9.016-4.725,9.025-13.061  c-0.01-8.301-6.98-14.016-12.842-15.251c-5.854-1.191-12.203-0.396-16.699,4.561c-4.042,4.396-4.892,7.892-4.905,15.603h9.07v-1.799  c-0.014-4.103,0.458-8.438,6.312-9.64c3.222-0.631,6.226,0.375,8.018,2.103c2.024,2.007,2.042,6.496-1.222,8.722l-5.09,3.465  c-2.959,1.919-3.977,4.038-3.983,7.142V64.349L45.37,64.349z"/>
    <polygon points="45.325,77.194 45.325,67.903 54.484,67.903 54.484,77.194 "/>
</svg>