<svg xmlns="http://www.w3.org/2000/svg" xmlns:xlink="http://www.w3.org/1999/xlink" viewBox="0 0 48 60" version="1.1" x="0px" y="0px">
  <title>9.13</title>
  <desc>Created with Sketch.</desc>
  <g stroke="none" stroke-width="1" fill="none" fill-rule="evenodd">
    <g fill="#000000">
      <g transform="translate(24.000000, 24.000000) rotate(-180.000000) translate(-24.000000, -24.000000) "><path
        d="M17.6862915,23.8587234 L30.4107158,11.1342992 C31.1941338,10.3508811 31.1952621,9.08342284 30.4142136,8.30237426 C29.6277197,7.51588035 28.365269,7.52289168 27.5822887,8.30587203 L13.4471486,22.4410121 C13.4465655,22.4415952 13.4459828,22.4421786 13.4454005,22.4427623 C13.4448173,22.4433441 13.4442339,22.4439268 13.4436508,22.4445099 C13.050989,22.8371717 12.8561136,23.3484688 12.8568423,23.8595052 C12.8587273,24.3718101 13.0537077,24.8829939 13.4436508,25.272937 C13.4442339,25.2735201 13.4448173,25.2741028 13.445401,25.2746851 C13.4459828,25.2752683 13.4465655,25.2758517 13.4471486,25.2764348 L27.5822887,39.4115749 C28.3657067,40.1949929 29.633165,40.1961212 30.4142136,39.4150726 C31.2007075,38.6285787 31.1936961,37.3661281 30.4107158,36.5831477 L17.6862915,23.8587234 Z"/></g>
    </g>
  </g>  
</svg>
