
<svg xmlns="http://www.w3.org/2000/svg" xmlns:xlink="http://www.w3.org/1999/xlink" version="1.1" x="0px" y="0px" viewBox="0 0 100 125" enable-background="new 0 0 100 100" xml:space="preserve">
    <g>
        <g>
            <path d="M88.482,50.044l-1.27-27.712c-0.012-0.247-0.113-0.48-0.287-0.656l-3.181-3.224V2.001c0-0.429-0.273-0.81-0.68-0.947    l-2.957-0.999c-0.716-0.242-1.32,0.354-1.32,0.947v26.404c-0.226-1.049-1.422-2.807-1.713-3.313v-4.608    c0-2.998-1.153-5.817-3.246-7.938c-0.188-0.19-0.444-0.298-0.712-0.298h-0.179l-0.252-2.723c-0.025-0.268-0.156-0.514-0.364-0.683    c-12.725-10.378-31.918-10.378-44.645,0c-0.208,0.169-0.339,0.416-0.364,0.683l-0.25,2.723h-0.181    c-0.268,0-0.524,0.107-0.712,0.298c-2.093,2.122-3.246,4.941-3.246,7.938v4.608c-0.291,0.506-1.49,2.265-1.713,3.315V1.002    c0-0.595-0.604-1.188-1.32-0.947l-2.957,0.999c-0.406,0.137-0.68,0.519-0.68,0.947v16.45l-3.181,3.224    c-0.174,0.176-0.275,0.41-0.287,0.656l-1.27,27.712c-0.13,2.854,0.479,7.381,1.356,10.091l6.387,19.731    c0.028,0.087,0.067,0.17,0.118,0.246c2.785,4.191,6.743,7.937,11.446,10.831c0.044,0.027,0.09,0.051,0.138,0.07l2.85,1.196    l3.27,2.35c0.17,0.122,0.374,0.188,0.583,0.188h2.662c3.82,6.983,15.504,7.023,19.346,0h2.662c0.209,0,0.413-0.065,0.584-0.188    l3.268-2.35l2.852-1.196c0.048-0.02,0.094-0.043,0.138-0.07c4.702-2.894,8.66-6.64,11.445-10.831    c0.051-0.076,0.09-0.159,0.118-0.246l6.387-19.731C88.004,57.422,88.612,52.896,88.482,50.044z M81.773,33.745    c0.62,1.262,0.957,2.66,0.957,4.112v5.511c0,1.453-0.337,2.85-0.957,4.112V33.745z M80.788,2.396l0.957,0.323v27.489    c-0.359-0.391-0.51-0.581-0.957-0.584V2.396z M78.813,31.621h0.961v17.982h-0.291c-0.381-0.635-0.67-1.513-0.67-2.142V31.621z     M78.451,51.532l0.065,0.065c-0.295,3.207-0.933,6.356-1.903,9.401l-0.32-1.626c-0.053-0.265-0.209-0.497-0.435-0.645    l-0.884-0.576l1.298-3.231c0.267-0.664,0.397-1.704,0.304-2.419l-0.989-7.503c-0.245-1.639-1.911-0.511-1.911-0.511l-0.002-22.091    c1.171,1.74,2.228,3.558,3.139,5.445v19.62C76.813,48.834,77.516,50.583,78.451,51.532z M70.334,77.3    c-1.399,1.591-2.908,3.082-4.513,4.452c-2.471-12.522-29.172-12.54-31.644,0c-1.604-1.37-3.112-2.861-4.513-4.452    c0.238-0.356,0.241-0.832-0.045-1.182c-1.103-1.346-2.131-2.764-3.057-4.216c-0.262-0.41-0.768-0.546-1.204-0.373    c-0.528-0.843-1.037-1.695-1.505-2.57l1.733-8.785l2.44-1.593c0.071-0.049,0.271-0.028,0.334,0.029c0,0,5.532,5.055,5.724,5.164    c0.008,0.017,0.007,0.036,0.017,0.053l4.271,7.643c0.615,1.097,2.434,0.254,1.746-0.977l-3.514-6.287l2.958-0.245l1.55,5.672    c0.337,1.226,2.287,0.781,1.93-0.527l-1.452-5.313l1.18-0.098c0.767-0.063,1.737-0.487,2.309-1.01l0.822-0.753l-0.421,6.354    c-0.089,1.354,1.907,1.462,1.996,0.133L48,60.538c0.009,0,0.021-0.004,0.028-0.004h3.943c0.008,0,0.02,0.004,0.027,0.004    l0.523,7.88c0.089,1.329,2.085,1.22,1.996-0.133l-0.422-6.354l0.824,0.754c0.572,0.523,1.543,0.947,2.307,1.009l1.18,0.098    l-1.451,5.314c-0.373,1.366,1.579,1.804,1.93,0.527l1.55-5.673l2.958,0.246l-3.514,6.288c-0.678,1.211,1.153,2.034,1.746,0.975    l4.271-7.643c0.009-0.017,0.009-0.034,0.017-0.051c0.191-0.11,5.726-5.165,5.726-5.165c0.063-0.058,0.265-0.074,0.333-0.028    l2.44,1.592l1.733,8.785c-0.468,0.875-0.977,1.728-1.505,2.57c-0.438-0.173-0.942-0.037-1.204,0.373    c-0.928,1.453-1.956,2.872-3.058,4.216C70.094,76.467,70.096,76.943,70.334,77.3z M75.075,19.486v1.406    c-0.459-0.667-0.936-1.321-1.428-1.962l-0.47-5.084C74.406,15.455,75.075,17.417,75.075,19.486z M40.071,48.277    c-0.458-0.45-1.221-0.865-1.889-1.059V15.65c1.005-0.288,2.02-0.544,3.044-0.756c0.283-0.028,0.54-0.176,0.708-0.405    c2.201-3.013,3.265-4.469,3.778-5.217c2.748-0.351,5.83-0.35,8.574,0c0.514,0.748,1.577,2.204,3.778,5.217    c0.151,0.207,0.431,0.352,0.69,0.4c1.032,0.214,2.052,0.473,3.062,0.762v31.568c-0.669,0.194-1.432,0.609-1.888,1.059    l-6.965,6.851c-0.202,0.198-0.713,0.409-0.993,0.409h-3.943c-0.28,0-0.79-0.21-0.992-0.409L40.071,48.277z M44.022,54.97    l-0.919,2.356c-0.061,0.156-0.334,0.365-0.496,0.379l-6.73,0.559c-0.255,0.019-0.753-0.15-0.944-0.329l-6.202-5.783    c-0.158-0.147-0.303-0.565-0.27-0.783l0.578-3.84l8.472,1.57c0.337,0.063,0.911,0.362,1.158,0.605L44.022,54.97z M61.333,49.703    c0.246-0.243,0.819-0.542,1.157-0.604l8.471-1.57l0.577,3.841c0.033,0.218-0.11,0.635-0.27,0.783l-6.2,5.782    c-0.191,0.178-0.671,0.347-0.944,0.329l-6.73-0.56c-0.162-0.013-0.437-0.222-0.497-0.377l-0.919-2.357L61.333,49.703z     M68.643,45.923v-1.795c0-1.331-2-1.331-2,0v2.166l-2.825,0.524V16.271c2.727,0.928,5.353,2.138,7.858,3.607v25.469    C71.587,45.37,68.643,45.923,68.643,45.923z M29.267,9.132c11.897-9.442,29.571-9.443,41.467,0l0.773,8.343    c-3.793-2.073-7.839-3.579-12.059-4.484c-0.855-1.17-3.777-5.17-3.832-5.245c-0.159-0.219-0.401-0.365-0.67-0.403    c-3.185-0.45-6.698-0.45-9.893,0c-0.269,0.038-0.511,0.184-0.67,0.403c-0.055,0.075-2.977,4.074-3.832,5.245    c-4.218,0.905-8.264,2.41-12.057,4.483L29.267,9.132z M36.183,16.271v30.546l-2.825-0.523v-2.166c0-1.309-2-1.309-2,0v1.795    c0,0-2.945-0.553-3.034-0.576l-0.006-25.465C30.829,18.409,33.46,17.197,36.183,16.271z M27.087,47.055l-0.604,4.018    c-0.131,0.875,0.242,1.945,0.886,2.543l6.2,5.781c0.558,0.521,1.48,0.868,2.269,0.868c0.069,0,6.937-0.567,6.937-0.567    c0.914-0.075,1.856-0.782,2.193-1.644l0.607-1.558l0.059,0.058c0.579,0.569,1.587,0.983,2.396,0.983h3.943    c0.809,0,1.815-0.413,2.396-0.983l0.059-0.058l0.607,1.559c0.337,0.86,1.28,1.567,2.194,1.643c0,0,6.866,0.567,6.937,0.567    c0.786,0,1.71-0.347,2.268-0.867l6.2-5.782c0.645-0.601,1.017-1.671,0.885-2.544l-0.604-4.015c0.314-0.112,0.624-0.237,0.88-0.365    l0.801,6.071c0.049,0.377-0.037,1.064-0.177,1.413l-1.351,2.731c-0.847-0.554-2.042-0.454-2.782,0.232l-5.208,4.792    c-0.194,0.178-0.698,0.348-0.952,0.329L57.392,61.7c-0.317-0.025-0.884-0.274-1.122-0.492l-1.905-1.741    c-0.59-0.541-1.597-0.933-2.393-0.933h-3.943c-0.795,0-1.802,0.392-2.394,0.932l-1.904,1.743    c-0.238,0.218-0.804,0.466-1.123,0.492l-6.73,0.56c-0.256,0.019-0.759-0.151-0.952-0.328l-5.209-4.795    c-0.743-0.681-1.938-0.78-2.781-0.231l-1.351-2.729c-0.141-0.352-0.228-1.038-0.178-1.413l0.8-6.073    C26.459,46.817,26.771,46.942,27.087,47.055z M24.925,19.486c0-2.07,0.67-4.034,1.9-5.643l-0.467,5.078    c-0.494,0.644-0.973,1.301-1.434,1.97V19.486z M21.551,51.529c0.934-0.947,1.638-2.696,1.638-4.068v-19.62    c0.91-1.887,1.966-3.703,3.135-5.442v22.088c0,0-1.638-1.159-1.911,0.512l-0.988,7.501c-0.095,0.712,0.036,1.752,0.305,2.42    l1.297,3.23l-0.884,0.577c-0.226,0.147-0.382,0.38-0.435,0.645l-0.321,1.626c-0.971-3.047-1.609-6.195-1.902-9.401L21.551,51.529z     M20.227,31.621h0.962v15.84c0,0.629-0.29,1.508-0.671,2.142h-0.291V31.621z M18.255,2.719l0.957-0.323v27.228    c-0.469,0.007-0.624,0.222-0.957,0.584V2.719z M17.269,37.857c0-1.453,0.337-2.851,0.958-4.114v13.738    c-0.621-1.263-0.958-2.661-0.958-4.114V37.857z M14.105,56.743c-0.421-2.245-0.672-4.819-0.59-6.607l1.252-27.329l1.487-1.507    v11.943c-0.64,1.433-0.986,2.996-0.986,4.615v5.511c0,2.997,1.153,5.816,3.246,7.938c0.001,0.001,0.002,0.001,0.002,0.002    c0.36,0.361,0.961,0.295,0.964,0.296c0.293,3.344,0.945,6.629,1.943,9.811h-5.19C15.521,59.903,14.814,58.351,14.105,56.743z     M21.12,79.118l-3.279-10.134c3.199,5.825,6.742,10.877,11.289,15.224l0.758,3.715C26.343,85.429,23.338,82.423,21.12,79.118z     M30.462,82.7c-5.498-5.272-9.521-11.642-13.267-19.286h4.908c0.165,0.454,0.335,0.906,0.515,1.355    c0.005,0.013,0.014,0.017,0.019,0.027l-0.798,4.045c-0.066,0.242-0.041,0.504,0.078,0.731c2.59,4.941,6.126,9.43,10.304,13.127    H30.462z M35.205,90.748l-0.359-1.769l0.951,0.685l0.368,1.773L35.205,90.748z M38.481,92.747l-0.541-2.654h1.44    c-0.071,0.806-0.065,1.681,0.165,2.654H38.481z M54.554,93.755h1.836c-1.362,5.66-11.417,5.66-12.779,0h1.836c1.347,0,1.347-2,0-2    h-1.855c1.098-5.617,11.721-5.617,12.818,0h-1.855C53.266,91.755,53.266,93.755,54.554,93.755z M58.5,92.334    c-0.496-9.102-16.504-9.102-17,0c-0.108-0.443-0.165-0.9-0.165-1.369c0-9.448,17.33-9.448,17.33,0    C58.665,91.434,58.608,91.891,58.5,92.334z M61.521,92.747h-1.067c0.26-1.094,0.233-1.889,0.165-2.654h1.452L61.521,92.747z     M62.485,88.093H60.2c-1.305-3.781-5.172-5.883-9.2-6.182v-0.979c0-1.325-2-1.325-2,0v0.979c-4.028,0.299-7.896,2.4-9.2,6.182    h-2.279c0.001,0.001-0.548-1.036,0.492-3.84l0.282,0.878c0.396,1.229,2.332,0.719,1.904-0.611l-0.852-2.65    c1.092-1.396,2.565-2.454,4.236-3.19l0.618,2.263c0.344,1.25,2.295,0.813,1.93-0.527l-0.66-2.417c2.915-0.822,6.143-0.823,9.056,0    l-0.659,2.417c-0.364,1.335,1.59,1.773,1.93,0.527l0.617-2.263c1.672,0.736,3.146,1.795,4.237,3.191l-0.852,2.649    c-0.424,1.317,1.51,1.837,1.904,0.611l0.281-0.877C63.026,87.061,62.485,88.093,62.485,88.093z M64.794,90.747l-0.97,0.697    l0.36-1.768l0.97-0.697L64.794,90.747z M67.777,89.374l-0.726,0.305l0.571-2.802c0.204-0.99-0.91-1.479-1.563-1.012l-1.513,1.088    c-0.855-15.42-28.238-15.419-29.094,0.001l-1.513-1.088c-0.762-0.555-1.737,0.154-1.563,1.011l0.57,2.801l-0.724-0.304    L31.271,84.7h3.705c0.553,0,1-0.447,1-1c0-12.482,28.048-12.407,28.048,0c0,0.553,0.447,1,1,1h3.706L67.777,89.374z M78.88,79.118    c-2.218,3.305-5.223,6.311-8.767,8.805l0.757-3.715c4.543-4.343,8.086-9.38,11.28-15.194L78.88,79.118z M69.538,82.7h-1.76    c4.179-3.696,7.715-8.185,10.305-13.127c0.117-0.223,0.143-0.478,0.081-0.715l-0.802-4.062c0.006-0.012,0.014-0.014,0.02-0.027    c0.18-0.449,0.35-0.901,0.515-1.355h4.909C79.061,71.058,75.038,77.426,69.538,82.7z M85.895,56.744    c-0.709,1.607-1.415,3.159-2.128,4.67h-5.19c0.997-3.18,1.648-6.466,1.943-9.811c0,0,0.617,0.052,0.964-0.296    c0-0.001,0.001-0.001,0.002-0.002c2.093-2.121,3.245-4.94,3.245-7.938v-5.511c0-1.619-0.347-3.182-0.985-4.614V21.299l1.487,1.507    l1.252,27.329C86.566,51.923,86.315,54.497,85.895,56.744z" />
        </g>
    </g>
</svg>