<svg xmlns="http://www.w3.org/2000/svg" data-name="Layer 1" viewBox="0 0 100 125" x="0px" y="0px">
    <title>avengers icon</title>
    <path d="M38.25,90.52c-.66-.23-2.85-2.57-7-8.44-5-7.06-5.31-11-5.42-12.65,0-.2,0-.36-.05-.49-.16-1.22-.32-6.79-.33-7l1,0c0,.06.16,5.76.33,6.93,0,.14,0,.32,0,.55C26.9,71,27.16,74.67,32,81.5c5.2,7.3,6.54,8.07,6.6,8.1Z" />
    <path d="M36.42,81.83c-3-5.43-6.55-11.46-7.15-11.94-1.05-.83-3.45-5.16-3.72-5.65l.88-.48a31.34,31.34,0,0,0,3.46,5.35c1,.81,6.35,10.33,7.4,12.23Z" />
    <path d="M50,94.81h0A33.75,33.75,0,0,1,39.7,93l-.17-.11C36.24,89.72,36.16,78.21,36.17,77a31.65,31.65,0,0,0-8.63-12.69c-6.8-6.07-5.86-14.72-5.82-15.09l0-.37.47-.08c0-3.44.58-9.51.6-9.78,0-.05.41-3.75.58-6a13.38,13.38,0,0,1,1.88-5.1,26,26,0,0,1,.58-4.11,52,52,0,0,1,.42-6.45,24.64,24.64,0,0,1,.84-9l.18-.54L34,10.9A36.38,36.38,0,0,1,50,7.33h.26a36.36,36.36,0,0,1,16,3.57L73,7.74l.18.54a24.39,24.39,0,0,1,.84,9,50.12,50.12,0,0,1,.42,6.45A24.87,24.87,0,0,1,75,27.89,13.36,13.36,0,0,1,76.88,33c.16,2.28.57,6,.57,6,0,.27.58,6.35.6,9.79l.47.08,0,.37c0,.37,1,9-5.82,15.09A31.4,31.4,0,0,0,64.12,77c0,1.18-.07,12.69-3.37,15.83l-.17.11a33.66,33.66,0,0,1-10.29,1.84Zm0-1h.28a33.71,33.71,0,0,0,9.86-1.74c3-3.06,3-15,3-15.11l0-.15A31.6,31.6,0,0,1,72.08,63.6c5.63-5,5.61-12.16,5.52-13.86l-.55-.09v-.42c0-3.3-.59-10-.59-10.12s-.41-3.75-.58-6a12.7,12.7,0,0,0-1.81-4.76L74,28.19v-.14a24.59,24.59,0,0,0-.57-4.13l0-.08v-.08A51.17,51.17,0,0,0,73,17.39v-.1a25.12,25.12,0,0,0-.63-8.15l-6,2.88-.22-.12C58.92,8.09,50.39,8.32,50.3,8.33H50c-.1,0-8.64-.24-15.81,3.57L34,12l-6-2.88a25.12,25.12,0,0,0-.63,8.15v.1a51.17,51.17,0,0,0-.42,6.37v.08l0,.08a25.76,25.76,0,0,0-.57,4.13v.14l-.08.12a12.88,12.88,0,0,0-1.81,4.76c-.17,2.29-.57,6-.57,6s-.62,6.81-.6,10.11v.42l-.55.09c-.09,1.7-.11,8.82,5.53,13.86a31.83,31.83,0,0,1,8.94,13.21l0,.08V77c0,.12,0,12.05,3,15.11A33.53,33.53,0,0,0,50,93.81Z" />
    <path d="M62,90.52l-.33-.94s1.35-.78,6.55-8.08c4.87-6.83,5.13-10.55,5.24-12.14,0-.22,0-.41.05-.55.16-1.17.32-6.87.32-6.93l1,0c0,.24-.16,5.81-.33,7,0,.13,0,.29,0,.49-.12,1.67-.39,5.59-5.42,12.65C64.88,88,62.69,90.29,62,90.52Z" />
    <path d="M63.86,81.83,63,81.34c1.05-1.9,6.37-11.42,7.4-12.23.67-.53,2.48-3.56,3.47-5.35l.87.48c-.27.49-2.67,4.82-3.72,5.65C70.41,70.37,66.88,76.4,63.86,81.83Z" />
    <path d="M39.11,55.93l-.11,0c-9-2.09-10.45-8.77-10.5-9l-.06-.3.24-.19c.12-.1,3-2.3,9.34-1.31S45.9,50,46,50.13l0,.11,0,.13c-.63,4.21-6.51,5.48-6.77,5.54Zm-9.55-9c.39,1.32,2.29,6.2,9.55,7.93.75-.18,5.27-1.4,5.86-4.55-.27-.62-1.81-3.5-7.1-4.31C33,45.29,30.37,46.51,29.56,47Z" />
    <path d="M61.18,55.93l-.11,0c-.25-.06-6.14-1.33-6.77-5.54l0-.13,0-.11c.06-.17,1.51-4.09,7.94-5.08s9.22,1.21,9.34,1.31l.25.19-.06.3c-.06.28-1.5,7-10.51,9Zm-5.87-5.58c.59,3.16,5.11,4.37,5.86,4.55,7.19-1.71,9.15-6.62,9.55-7.93-.81-.47-3.47-1.68-8.31-.93C57.13,46.85,55.58,49.73,55.31,50.35Z" />
    <path d="M50.21,63.69h-.14c-1.56,0-5.13-1.5-5.54-1.67L44.41,62l-4.69-3.89-1.07-2.44.92-.4,1,2.22L45,61.13a21.2,21.2,0,0,0,5.08,1.56h.14a21.07,21.07,0,0,0,5.08-1.56l4.45-3.69,1-2.22.92.4-1.07,2.44-4.81,4C55.35,62.19,51.77,63.69,50.21,63.69Z" />
    <path d="M23.22,49.31l-1-.17C24.39,36.65,30.78,32,31.06,31.81l.4-.29,3.59,5.06,6.26,3.18,5.37,6.05-1.8,3.13-.87-.5,1.44-2.5L40.63,40.5l-6.25-3.14-3.14-4.42C29.84,34.16,25,39,23.22,49.31Z" />
    <path d="M77.08,49.31c-1.77-10.3-6.61-15.15-8-16.37l-3.14,4.42L59.68,40.5l-4.82,5.44,1.43,2.5-.86.5-1.8-3.13,5.51-6.16,6.11-3.07,3.59-5.06.41.29c.27.19,6.66,4.84,8.82,17.33Z" />
    <path d="M46.48,46.15l-.83-.55L46.74,44,38.62,27.51c-.09-.62-2.08-15.06-.84-18l.92.38c-.94,2.26.32,13.28.9,17.45L47.89,44Z" />
    <path d="M53.86,46.15,52.45,44l8.29-16.75c.57-4.17,1.83-15.19.89-17.45l.93-.38c1.24,3-.76,17.43-.84,18.05l0,.15L53.6,44l1.09,1.64Z" />
    <path d="M41.75,93.48l-.42-.91,3.82-1.72c-.39-1.21-1.47-3.64-1.91-4.63l-2.48,1L36.47,81.9l.77-.63L41.08,86l2.68-1,.2.43A56.76,56.76,0,0,1,46.24,91l.09.4Z" />
    <path d="M58.54,93.48,54,91.41l.1-.4a54.4,54.4,0,0,1,2.28-5.63l.19-.43,2.69,1L63,81.27l.77.63-4.29,5.28-2.48-1c-.44,1-1.52,3.42-1.91,4.63L59,92.57Z" />
    <polygon points="42.97 34.67 42.14 34.11 45.88 28.5 40.59 8.98 41.56 8.72 46.96 28.67 42.97 34.67" />
    <polygon points="57.17 34.67 53.18 28.67 58.58 8.72 59.55 8.98 54.27 28.5 58 34.11 57.17 34.67" />
</svg>