<svg xmlns="http://www.w3.org/2000/svg" xmlns:xlink="http://www.w3.org/1999/xlink" xmlns:serif="http://www.serif.com/" viewBox="0 0 48 60" version="1.1" xml:space="preserve" style="" x="0px" y="0px" fill-rule="evenodd" clip-rule="evenodd" stroke-linejoin="round" stroke-miterlimit="1.41421"><g serif:id="06 - Captain-Marvel infinity-war end-game marvel avengers super-hero"><path d="M34,4.988C33.67,4.991 33.362,5.156 33.178,5.43L26.799,14.627C24.325,13.779 21.447,12.849 18.547,12.824C15.377,12.794 12.155,14.006 10.135,17.5C8.052,21.103 8.605,25.688 9.184,29.875C9.762,34.062 10.267,37.9 9.233,39.701C7.362,42.962 5.778,43.924 4.824,44.184C4.348,44.313 4.005,44.274 3.781,44.224C3.558,44.174 3.529,44.144 3.529,44.144C3.365,44.034 3.172,43.976 2.974,43.976C2.426,43.976 1.974,44.427 1.974,44.976C1.974,45.331 2.164,45.661 2.471,45.84C2.471,45.84 2.844,46.062 3.342,46.174C3.84,46.286 4.539,46.328 5.35,46.104C6.971,45.663 8.937,44.225 10.967,40.686C12.632,37.787 11.738,33.729 11.166,29.591C10.594,25.452 10.248,21.286 11.865,18.489C13.545,15.583 15.824,14.79 18.529,14.813C21.235,14.833 24.28,15.836 26.873,16.733C27.295,16.879 27.766,16.725 28.021,16.358L34.822,6.57C34.943,6.401 35.009,6.197 35.009,5.988C35.009,5.44 34.557,4.988 34.009,4.988C34.006,4.988 34.003,4.988 34,4.988Z" style="" fill-rule="nonzero"/><path d="M21.613,1.563C16.31,1.628 10.626,3.325 6.742,7.848C2.92,12.299 1.748,17.297 1.813,22.102C1.878,26.906 3.132,31.555 4.129,35.543C4.928,38.74 4.429,40.892 3.781,42.275C3.134,43.658 2.393,44.205 2.393,44.205C2.142,44.394 1.994,44.69 1.994,45.004C1.994,45.553 2.446,46.004 2.995,46.004C3.217,46.004 3.432,45.931 3.607,45.795C3.607,45.795 4.766,44.892 5.594,43.125C6.421,41.358 6.971,38.659 6.07,35.057C5.067,31.044 3.873,26.545 3.813,22.074C3.752,17.604 4.781,13.201 8.258,9.152C11.674,5.175 16.74,3.623 21.637,3.563C26.533,3.503 31.223,5.015 33.482,6.787C33.658,6.925 33.876,7 34.1,7C34.648,7 35.1,6.549 35.1,6C35.1,5.693 34.959,5.402 34.717,5.213C31.876,2.985 26.917,1.498 21.613,1.563Z" style="" fill-rule="nonzero"/><path d="M10.936,37.99C10.409,38.019 9.99,38.46 9.99,38.989C9.99,39.243 10.087,39.489 10.262,39.674C15.781,45.724 23.861,46 23.861,46C23.874,46 23.888,46 23.901,46L24.101,46C24.101,46 31.825,46.02 37.339,39.975C37.507,39.791 37.6,39.55 37.6,39.301C37.6,38.752 37.149,38.301 36.6,38.301C36.319,38.301 36.05,38.419 35.861,38.627C30.975,43.983 24.1,44 24.1,44L23.939,44C23.939,44 16.619,43.676 11.738,38.326C11.536,38.098 11.24,37.974 10.936,37.99Z" style="" fill-rule="nonzero"/><path d="M29.982,14.623C29.033,14.543 28.033,14.603 26.994,14.822C26.525,14.912 26.183,15.326 26.183,15.804C26.183,16.353 26.634,16.804 27.183,16.804C27.258,16.804 27.333,16.796 27.406,16.779C30.852,16.054 33.504,17.369 35.203,19.605C37.199,22.209 36.805,25.864 36.207,29.912C35.609,33.96 34.793,38.339 36.934,42C36.934,42.003 36.934,42.007 36.934,42.01C39.404,46.114 44.9,46 44.9,46C44.905,46 44.909,46 44.914,46C45.463,46 45.914,45.549 45.914,45C45.914,44.451 45.463,44 44.914,44C44.909,44 44.905,44 44.9,44C44.9,44 40.404,43.885 38.662,40.99C37.006,38.151 37.588,34.283 38.189,30.209C38.792,26.132 39.397,21.787 36.793,18.391C35.218,16.32 32.829,14.857 29.982,14.623Z" style="" fill-rule="nonzero"/><path d="M34,5C33.995,5 33.991,5 33.986,5C33.437,5 32.986,5.451 32.986,6C32.986,6.549 33.437,7 33.986,7C33.991,7 33.995,7 34,7C35.7,7 38.672,7.84 40.42,10.025C40.423,10.028 40.427,10.032 40.43,10.035C42.027,11.969 42.749,15.913 42.676,20.357C42.606,24.802 41.813,29.724 40.83,33.656C38.999,40.982 44.232,45.742 44.232,45.742C44.419,45.924 44.67,46.026 44.93,46.026C45.479,46.026 45.93,45.575 45.93,45.026C45.93,44.727 45.797,44.444 45.566,44.254C45.566,44.254 41.201,40.415 42.77,34.141C43.786,30.073 44.599,25.044 44.676,20.389C44.752,15.739 44.174,11.436 41.975,8.77C39.723,5.96 36.298,5 34,5Z" style="" fill-rule="nonzero"/><path d="M31,20.973C30.158,21.078 29.307,21.413 28.527,21.803C26.968,22.583 25.687,23.609 25.688,23.609C25.569,23.704 25.5,23.848 25.5,24C25.5,24.274 25.726,24.5 26,24.5C26.113,24.5 26.223,24.462 26.312,24.391C26.312,24.391 27.532,23.417 28.973,22.697C29.693,22.337 30.467,22.047 31.125,21.965C31.783,21.885 32.279,21.985 32.646,22.354C32.74,22.448 32.867,22.501 33,22.501C33.275,22.501 33.501,22.275 33.501,22C33.501,21.867 33.448,21.74 33.354,21.646C32.721,21.014 31.842,20.867 31,20.973Z" style="" fill-rule="nonzero"/><path d="M30,25.5C30.834,25.5 31.5,26.166 31.5,27C31.5,27.834 30.834,28.5 30,28.5C29.166,28.5 28.5,27.834 28.5,27C28.5,26.166 29.166,25.5 30,25.5Z" style="" fill-rule="nonzero"/><path d="M31.992,24.492C31.721,24.496 31.5,24.721 31.5,24.992C31.5,24.995 31.5,24.997 31.5,25C31.5,25.333 31.41,25.362 31.277,25.428C31.147,25.493 31,25.5 31,25.5C30.998,25.5 30.995,25.5 30.993,25.5C30.719,25.5 30.493,25.726 30.493,26C30.493,26.274 30.719,26.5 30.993,26.5C30.995,26.5 30.998,26.5 31,26.5C31,26.5 31.353,26.5 31.723,26.322C32.092,26.138 32.5,25.667 32.5,25C32.5,24.997 32.5,24.995 32.5,24.992C32.5,24.718 32.274,24.492 32,24.492C31.997,24.492 31.995,24.492 31.992,24.492Z" style="" fill-rule="nonzero"/><path d="M32.9,25.793C32.717,25.794 32.549,25.896 32.463,26.057C32.294,26.361 32.189,26.345 32.035,26.338C31.881,26.338 31.742,26.268 31.742,26.268C31.662,26.217 31.568,26.189 31.473,26.189C31.199,26.189 30.973,26.415 30.973,26.69C30.973,26.882 31.084,27.058 31.258,27.141C31.258,27.141 31.57,27.324 31.99,27.342C32.411,27.362 33.007,27.143 33.338,26.547C33.383,26.47 33.407,26.382 33.407,26.293C33.407,26.019 33.182,25.793 32.907,25.793C32.905,25.793 32.902,25.793 32.9,25.793Z" style="" fill-rule="nonzero"/><path d="M17,20.973C16.158,20.867 15.279,21.013 14.646,21.646C14.552,21.74 14.499,21.867 14.499,22C14.499,22.275 14.725,22.501 15,22.501C15.133,22.501 15.26,22.448 15.354,22.354C15.721,21.986 16.217,21.883 16.875,21.965C17.533,22.045 18.307,22.337 19.027,22.697C20.468,23.417 21.687,24.391 21.688,24.391C21.777,24.462 21.887,24.5 22,24.5C22.274,24.5 22.5,24.274 22.5,24C22.5,23.848 22.431,23.704 22.312,23.609C22.312,23.609 21.032,22.583 19.473,21.803C18.693,21.413 17.842,21.078 17,20.973Z" style="" fill-rule="nonzero"/><path d="M18,25.5C18.834,25.5 19.5,26.166 19.5,27C19.5,27.834 18.834,28.5 18,28.5C17.166,28.5 16.5,27.834 16.5,27C16.5,26.166 17.166,25.5 18,25.5Z" style="" fill-rule="nonzero"/><path d="M15.992,24.492C15.721,24.496 15.5,24.721 15.5,24.992C15.5,24.995 15.5,24.997 15.5,25C15.5,25.667 15.908,26.138 16.277,26.322C16.647,26.507 17,26.5 17,26.5C17.002,26.5 17.005,26.5 17.007,26.5C17.281,26.5 17.507,26.274 17.507,26C17.507,25.726 17.281,25.5 17.007,25.5C17.005,25.5 17.002,25.5 17,25.5C17,25.5 16.853,25.5 16.723,25.43C16.592,25.362 16.5,25.333 16.5,25C16.5,24.997 16.5,24.995 16.5,24.992C16.5,24.718 16.274,24.492 16,24.492C15.997,24.492 15.995,24.492 15.992,24.492Z" style="" fill-rule="nonzero"/><path d="M15.086,25.793C14.815,25.798 14.595,26.022 14.595,26.293C14.595,26.381 14.618,26.467 14.662,26.543C14.993,27.139 15.589,27.356 16.01,27.338C16.43,27.318 16.742,27.137 16.742,27.137C16.916,27.054 17.027,26.878 17.027,26.686C17.027,26.411 16.801,26.185 16.527,26.185C16.432,26.185 16.338,26.213 16.258,26.264C16.258,26.264 16.119,26.334 15.965,26.334C15.811,26.334 15.706,26.354 15.537,26.053C15.448,25.887 15.274,25.785 15.086,25.789L15.086,25.793Z" style="" fill-rule="nonzero"/><path d="M23.166,29.199C22.903,29.214 22.694,29.434 22.694,29.698C22.694,29.951 22.885,30.166 23.136,30.195C23.136,30.195 23.44,30.245 23.728,30.385C24.015,30.529 24.2,30.677 24.2,31C24.2,31.383 24.066,31.482 23.897,31.582C23.729,31.682 23.556,31.701 23.556,31.701C23.298,31.722 23.096,31.94 23.096,32.199C23.096,32.474 23.322,32.699 23.596,32.699C23.613,32.699 23.63,32.699 23.646,32.697C23.646,32.697 24.024,32.667 24.405,32.443C24.787,32.218 25.2,31.717 25.2,31C25.2,30.223 24.637,29.721 24.175,29.49C23.712,29.259 23.267,29.205 23.267,29.205C23.234,29.202 23.2,29.202 23.167,29.205L23.166,29.199Z" style="" fill-rule="nonzero"/><path d="M22.752,35.65C21.549,35.71 20.264,35.882 18.975,36.217C18.755,36.274 18.6,36.474 18.6,36.701C18.6,36.779 18.618,36.855 18.652,36.924C18.652,36.924 18.987,37.558 19.822,38.115C20.658,38.672 22.016,39.199 24.1,39.199C26.183,39.199 27.542,38.672 28.377,38.115C29.212,37.558 29.547,36.924 29.547,36.924C29.582,36.855 29.6,36.778 29.6,36.701C29.6,36.474 29.446,36.275 29.227,36.217C29.227,36.217 26.36,35.462 22.752,35.65ZM22.792,36.652C25.539,36.51 27.258,36.868 28.067,37.043C27.949,37.153 28.017,37.152 27.821,37.283C27.157,37.726 26.015,38.199 24.099,38.199C22.182,38.199 21.041,37.726 20.376,37.283C20.182,37.154 20.251,37.157 20.134,37.049C21.034,36.871 21.942,36.696 22.792,36.652Z" style="" fill-rule="nonzero"/><path d="M20.166,8.695C18.461,8.554 16.636,8.755 14.803,9.541C14.608,9.614 14.478,9.801 14.478,10.009C14.478,10.284 14.704,10.509 14.978,10.509C15.054,10.509 15.129,10.492 15.197,10.459C21.864,7.602 28.674,13.379 28.674,13.379C28.766,13.462 28.885,13.508 29.009,13.508C29.283,13.508 29.509,13.282 29.509,13.008C29.509,12.858 29.442,12.716 29.326,12.621C29.326,12.621 25.282,9.12 20.166,8.695Z" style="" fill-rule="nonzero"/><path d="M32.201,10.877C30.846,11.012 29.777,11.553 29.777,11.553C29.597,11.633 29.48,11.813 29.48,12.01C29.48,12.284 29.705,12.51 29.98,12.51C30.065,12.51 30.149,12.488 30.223,12.447C30.223,12.447 31.154,11.988 32.299,11.873C33.444,11.759 34.698,11.953 35.584,13.277C35.675,13.424 35.836,13.514 36.009,13.514C36.283,13.514 36.509,13.288 36.509,13.014C36.509,12.909 36.477,12.808 36.416,12.723C35.302,11.052 33.556,10.741 32.201,10.877Z" style="" fill-rule="nonzero"/><path d="M6.967,20.494C6.749,20.51 6.565,20.666 6.516,20.879C6.516,20.879 5.48,25.047 7.535,30.186C9.185,34.258 9.5,40.025 9.5,40.025C9.513,40.29 9.735,40.501 10,40.501C10.275,40.501 10.501,40.275 10.501,40C10.501,39.992 10.5,39.983 10.5,39.975C10.5,39.975 10.215,34.142 8.463,29.812C6.52,24.953 7.484,21.121 7.484,21.121C7.495,21.079 7.501,21.036 7.501,20.993C7.501,20.719 7.275,20.493 7.001,20.493C6.99,20.493 6.978,20.493 6.967,20.494Z" style="" fill-rule="nonzero"/><path d="M40.008,27.494C39.808,27.492 39.625,27.61 39.545,27.793C39.545,27.793 38.273,30.586 37.635,33.906C37.316,35.566 37.15,37.363 37.396,39.041C37.643,40.719 38.318,42.295 39.688,43.391C39.777,43.462 39.887,43.5 40,43.5C40.274,43.5 40.5,43.274 40.5,43C40.5,42.848 40.431,42.704 40.312,42.609C39.182,41.705 38.607,40.406 38.385,38.896C38.163,37.387 38.305,35.684 38.615,34.094C39.227,30.914 40.455,28.207 40.455,28.207C40.486,28.14 40.503,28.068 40.503,27.994C40.503,27.722 40.28,27.497 40.008,27.494Z" style="" fill-rule="nonzero"/></g></svg>