<svg xmlns="http://www.w3.org/2000/svg" data-name="Layer 1" viewBox="0 0 100 125" x="0px" y="0px">
    <title>avengers icon</title>
    <path d="M56.25,97.5l-12.56,0A28,28,0,0,1,25.9,79.72l0-.16V45.15h1V79.47a27,27,0,0,0,17,17H56.11a27,27,0,0,0,17-17V44.9h1l0,34.82A28,28,0,0,1,56.31,97.48Z" />
    <path d="M50.21,73.26l-.51,0c-4-1.49-5.26-2.91-5.32-3l-.1-.17-.76-2.18.95-.33.72,2.07A14.6,14.6,0,0,0,50,72.26H50a14.39,14.39,0,0,0,4.78-2.61l.72-2.07.95.33-.86,2.35c-.06.06-1.35,1.48-5.32,3Z" />
    <rect x="43.41" y="80.68" width="13.18" height="1" />
    <path d="M50,90.16l-.18-.07c-1.81-.75-2.62-4.15-2.71-4.54L47,84.94h6l0,.54c-.33,3.67-2.64,4.58-2.74,4.61Zm-1.75-4.22c.31,1,.93,2.61,1.76,3.13a4.16,4.16,0,0,0,1.84-3.13Z" />
    <path d="M25.18,66.2a3,3,0,0,1-1.27-.27A3.71,3.71,0,0,1,22,63.48a31.42,31.42,0,0,0-3-5.72c-1.53-2.52-2.46-4.12-2.4-5,.12-1.92,4.65-7.61,5.68-8.56s3,.07,3.9.61a2.59,2.59,0,0,0,.33.2l-.14.32v.66c-.2,0-.35-.1-.72-.33-.62-.38-2.07-1.28-2.69-.72-1.19,1.09-5.28,6.47-5.37,7.88,0,.67,1.18,2.69,2.26,4.48A31.85,31.85,0,0,1,23,63.19,2.78,2.78,0,0,0,24.31,65a2.59,2.59,0,0,0,1.86,0l.41.91A3.86,3.86,0,0,1,25.18,66.2Z" />
    <path d="M74.82,66.2a3.63,3.63,0,0,1-1.4-.28l.41-.91a2.59,2.59,0,0,0,1.86,0,2.78,2.78,0,0,0,1.36-1.83,32.17,32.17,0,0,1,3.1-5.94c1.07-1.79,2.3-3.81,2.26-4.48C82.32,51.36,78.23,46,77,44.89c-.62-.56-2.07.34-2.69.72-.37.23-.52.33-.72.33v-.5L73.49,45a2.59,2.59,0,0,0,.33-.2c.88-.54,2.72-1.68,3.9-.61s5.56,6.64,5.68,8.56c.06.93-.87,2.53-2.4,5.06a31,31,0,0,0-3,5.71,3.71,3.71,0,0,1-1.92,2.45A3,3,0,0,1,74.82,66.2Z" />
    <path d="M32.43,31.51l-2.09-.32.16-1,2.07.32Z" />
    <path d="M73.25,45.28,69.56,31.22c-3.35.52-18.7,2.71-19.39,2.81H50L38,32.32l.14-1L50.07,33h0c.11,0,17.75-2.53,19.75-2.87l.45-.07L74.21,45Z" />
    <path d="M35.3,31.92l-1.65-.24.16-1,1.63.24Z" />
    <rect x="22.18" y="39.22" width="11.24" height="1" transform="translate(-17.68 56.52) rotate(-75.3)" />
    <path d="M43.31,56.29c-3-.77-11.25-2.33-13.42-.29l-.68-.72c2.95-2.8,13.19-.26,14.35,0Z" />
    <path d="M37.79,59.59a2.55,2.55,0,0,1-2.5-2,2.53,2.53,0,0,1,.35-1.93,2.56,2.56,0,1,1,2.15,4Zm0-4.13a1.84,1.84,0,0,0-.33,0,1.58,1.58,0,0,0-1,.68,1.57,1.57,0,0,0,1.65,2.38,1.5,1.5,0,0,0,1-.68,1.54,1.54,0,0,0,.22-1.18A1.57,1.57,0,0,0,37.8,55.46Z" />
    <path d="M43.11,54,30.32,51.48,29.57,53l-.89-.44,1.09-2.18.37.08L43.3,53Z" />
    <path d="M56.69,56.29l-.25-1c1.16-.3,11.4-2.84,14.35,0l-.68.72C67.94,54,59.69,55.52,56.69,56.29Z" />
    <path d="M62.21,59.59a2.57,2.57,0,0,1-.55-.06,2.57,2.57,0,0,1-.85-4.66,2.55,2.55,0,0,1,3.55.76,2.53,2.53,0,0,1,.35,1.93h0A2.56,2.56,0,0,1,62.21,59.59Zm0-4.13a1.48,1.48,0,0,0-.84.25,1.51,1.51,0,0,0-.69,1,1.54,1.54,0,0,0,.22,1.18,1.5,1.5,0,0,0,1,.68,1.55,1.55,0,0,0,1.86-1.2h0a1.56,1.56,0,0,0-1.2-1.86A1.84,1.84,0,0,0,62.2,55.46Z" />
    <path d="M56.89,54l-.19-1,13.16-2.58.37-.08,1.09,2.18-.89.44-.75-1.49Z" />
    <path d="M38.29,91.46l-.65-.14a38.88,38.88,0,0,1-6.33-2.11l.39-.92a44.05,44.05,0,0,0,5.51,1.9c-.13-2.37-.37-9.47,1.24-11.31,1.8-2.06,8.6-5.12,8.89-5.25l.23-.11L50,74.91l2.43-1.39.23.11c.29.13,7.09,3.19,8.89,5.25,1.61,1.84,1.37,8.94,1.24,11.31a44.05,44.05,0,0,0,5.51-1.9l.39.92a38.88,38.88,0,0,1-6.33,2.11l-.65.14,0-.66c.19-2.62.37-9.75-1-11.26-1.49-1.7-7.11-4.34-8.32-4.89L50.18,76h-.36l-2.3-1.31c-1.21.55-6.83,3.19-8.32,4.89-1.32,1.51-1.14,8.64-1,11.26Z" />
    <path d="M45.81,94.23c-.37,0-.63,0-.67,0C38,92.88,40,80.88,40.08,80.37l.06-.33,9.58-2h.46l9.68,2,.06.33c.09.51,2.13,12.51-5,13.83-.19,0-3.56.34-4.9-1.6C49,94,46.9,94.23,45.81,94.23Zm-.53-1s3.3.29,4.08-1.52l0-.09.59-.86.59.86c.82,1.89,4.13,1.6,4.17,1.6,5.54-1,4.5-10.43,4.23-12.33l-8.91-1.81h-.26L41,80.88c-.27,1.9-1.31,11.3,4.27,12.34Z" />
    <path d="M80.07,47.27l-1-.27,3.27-11.32c-.56-1.61-5.56-15.68-9-19.51s-13.54-4.5-13.64-4.5l-9.2-.27-10.64.27c-.09,0-10,.53-13.63,4.5s-8.46,17.9-9,19.51L20.5,47l-1,.27L16.18,35.65l.05-.15c.22-.64,5.49-15.81,9.28-20s13.9-4.81,14.33-4.83l10.68-.27,9.24.27c.44,0,10.48.56,14.34,4.83s9.06,19.36,9.28,20l.05.15Z" />
    <path d="M34.45,46.32l-.24-3.73c-.54-8.33,1-13.45,2.27-16.21-1.77,2.52-2.91,6.86-3.27,8.81L32.7,37.9l-.48-2.71a52,52,0,0,1-.13-8.39c-2.49,6.12-1.88,14.33-1.87,14.43l-1,.09c0-.13-1.33-12.66,0-20.47S39.45,10,47.12,11.1c7.11,1,8.37,8,8.38,8.08l-1,.17A9.08,9.08,0,0,0,47,12.09c-5.75-.84-15.38.84-16.77,8.93a61,61,0,0,0-.55,11,22.22,22.22,0,0,1,2.63-7.81l1.06-1.74-.13,2c0,.06-.26,4.12-.22,7.4.91-3.09,2.64-7.44,5.33-8.24l1.75-.52-1.25,1.34s-3.63,4-3.73,14.41c1.38-5,4.32-13.43,8.63-14.13,2.27-.37,4.56,1.41,6.79,5.28l-.86.5c-2-3.47-4-5.1-5.77-4.79-4.43.72-7.78,12.48-8.69,16.95Z" />
</svg>