<svg xmlns="http://www.w3.org/2000/svg" xmlns:xlink="http://www.w3.org/1999/xlink" version="1.1" x="0px" y="0px" viewBox="0 0 66 82.5" enable-background="new 0 0 66 66" xml:space="preserve"><g><path d="M39.9,2.3c-1.9-0.7-3.9-1.1-6-1.2c-2.8-0.1-5.5,0.3-8,1.3C11.8,5.5,1.3,18.2,1.3,33.3C1.3,50.8,15.6,65,33,65   c17.2,0,31.7-13.9,31.7-31.7C64.8,18.1,54.1,5.4,39.9,2.3z M52.9,28.7c0-0.2,0-0.4,0-0.7c1.6-0.9,2.5-1.2,2.7-1.1   c0.3,0.3,0.4,0.8,0.4,1.5c-0.1,3.3-3,9-4.7,10.5c0,0-0.1,0.1-0.3,0.2C51.8,35.3,52.7,30.9,52.9,28.7z M51.4,28.5   c-0.4,4.2-3.3,16.6-3.4,16.8c-0.4,2.2-1.9,3.3-2,3.5l-2.6-4.9c-0.3-0.6-1.3-0.5-1.4,0.2l-1.5,10.1c-0.5,0.4-2.1,2.8-5.4,2.8h-4.5   c-3.3,0-4.9-2.4-5.4-2.8l-1.5-10.1c-0.1-0.7-1.1-0.9-1.4-0.2l-2.6,4.9c-0.1-0.2-1.5-1.2-2-3.5c-4-17-3.6-17.5-3.4-24.3   c0-7.9,4.9-14.6,11.9-17.2c4.2-0.9,8.5-1,13,0c7,2.7,11.9,9.6,11.9,17.8C51.4,21.5,51.6,26.8,51.4,28.5z M54.2,54.8   c-5.8,5.7-13.5,8.6-21.1,8.6c-7.6,0-15.3-2.9-21.2-8.6c3.1-0.4,6.6-0.9,8.9-3.2c3.5,3,5.2,6.8,10,6.8h4.5c2.1,0,4.1-0.8,5.5-2.3   l4.5-4.5C47.6,53.9,51,54.5,54.2,54.8z M21,49.9l1.7-3.3l0.8,5.9L21,49.9z M42.4,52.4l0.8-5.8l1.7,3.3L42.4,52.4z M15,39.1   c-1.3-0.5-5-7-5.1-10.7c0-0.7,0.1-1.3,0.3-1.5c0.2-0.1,1.2,0.2,2.7,1.1C13.2,30.4,14.5,36.5,15,39.1z M19.9,6   c-4.1,3.6-6.8,9-6.8,14.9c0,0.2-0.1,3-0.1,5.4c-2.4-1.2-3.2-0.9-3.7-0.5c-0.6,0.6-0.9,1.5-0.9,2.6c0.1,3.5,3.1,9.6,5.2,11.6   c0.3,0.3,0.9,0.5,1.7,0.7c1.1,5.1,1.3,6.9,3.2,8.8l1.1,1.1c-2.2,2.2-6,2.5-9.1,2.9C5.7,48.1,2.8,41,2.8,33.3   C2.8,21.3,9.7,10.9,19.9,6z M55.5,53.5c-0.6-0.2-6.4-0.2-9.1-2.9c2.8-3.4,2.3-1,4.3-9.9c0.8-0.1,1.3-0.4,1.7-0.7   c2.2-2,5.2-8.1,5.2-11.6c0-1.2-0.3-2.1-0.9-2.7c-0.4-0.4-1.3-0.8-3.7,0.5c0-7.7-0.3-14.3-7-20.3c10.2,4.9,17.2,15.3,17.2,27.3   C63.3,41,60.3,48.1,55.5,53.5z"/><path d="M22.5,35.7c0.3,0.1,0.5,0,0.7-0.2c7.5-8.6,7.2-8.2,7.2-8.5c0,0,0,0,0,0c0,0,0-0.1,0-0.1c0-0.1,0-0.1,0-0.2   c-4-14.4-3.4-14.7-4.4-14.8c-0.9-0.1-0.6,0.4-7.6,11.7c0,0,0,0,0,0c0,0,0,0,0,0c0,0,0,0.1,0,0.1c0,0.2,0,0.4,0,0.4   C22.1,35.3,21.7,35.5,22.5,35.7z M20.4,24.4c2.8-0.4,5.4,0.3,7.9,2.2C25,27.6,22.3,26.6,20.4,24.4z M23,33.4l-2.1-6.5   c1.8,1.3,4,1.9,6.6,1.4L23,33.4z M25.7,14.5l2.7,10.4c-2.4-1.6-5-2.3-7.8-2L25.7,14.5z"/><path d="M47.5,23.6c0-0.1-4.5-7.5-6.9-11.4c-0.3-0.6-1.2-0.4-1.4,0.2c-3.9,15.2-3.9,14.5-3.6,14.9c0,0,0,0,0,0   c7.2,8.1,7,8.4,7.6,8.4c1,0,0.6-0.9,4.2-11.6c0,0,0-0.1,0-0.1C47.6,23.9,47.6,23.7,47.5,23.6z M37.7,26.5c2.4-1.9,5-2.6,7.8-2.2   C43.7,26.6,41,27.6,37.7,26.5z M40.3,14.5l5.1,8.4c-2.7-0.3-5.4,0.4-7.8,2L40.3,14.5z M43,33.4l-4.5-5.1c2.5,0.5,4.7,0,6.6-1.4   L43,33.4z"/><path d="M37.9,33.4c-1-0.1-1.1,1.4-0.2,1.5c2.6,0.3,3.8,3.4,4.8,5.6c2.9,6.3,4.4,3.4,3.5,2.6C43.4,40.8,42.9,34,37.9,33.4z"/><path d="M28.9,34.1c0-0.4-0.4-0.7-0.8-0.7c-5.1,0.6-5.3,7.2-8.2,9.8c-0.8,0.7,0.6,3.6,3.5-2.6c0.6-1.4,1.2-2.6,1.9-3.6   C27.3,34.2,29.1,35.4,28.9,34.1z"/><path d="M29,40.7c-0.3,0.8,0.5,1,1,1.2c0.4,0.1,0.7,0.2,0.9,0.5c1.1,1.3,3.1,1.3,4.2,0c0.6-0.7,2.4-0.5,1.9-1.7   c-0.2-0.4-0.6-0.6-1-0.4c-0.6,0.2-1.4,0.3-2.1,1.1c-0.5,0.6-1,0.4-1.2,0.4c-0.8-0.2-0.6-0.9-2.3-1.4C30,40.3,29.3,39.9,29,40.7z"/><path d="M37.3,42.9c1.1,0,3.1-3.2,1.2-5.9c-0.6-0.8-1.8,0.1-1.2,0.9c0.1,0.1,1.4,2.1-0.4,3.8C36.3,42,36.6,42.9,37.3,42.9z"/><path d="M27.5,36.9c-0.8,1.1-1.6,3.7,0.7,5.8c0.7,0.7,1.7-0.5,1-1.1c-1.8-1.6-0.6-3.6-0.4-3.8C29.3,37,28.1,36.1,27.5,36.9z"/><path d="M39.7,44.8c-2,1.7-11.2,1.7-13.3,0c-0.7-0.7-1.7,0.4-1,1.1c3.2,3,17.6,1.5,15.4-1C40.4,44.6,40,44.5,39.7,44.8z"/><path d="M33,49.8c-7,0-4.8,3.1-3.7,2.2c1.1-0.9,6.2-0.9,7.4,0C37.8,53,40.1,49.8,33,49.8z"/></g></svg>