<svg xmlns="http://www.w3.org/2000/svg" xmlns:xlink="http://www.w3.org/1999/xlink" version="1.1" x="0px" y="0px" viewBox="0 0 66 82.5" enable-background="new 0 0 66 66" xml:space="preserve"><g><path d="M39.3,2.1C37.3,1.4,35.2,1,33,1c-2.2,0-4.3,0.4-6.3,1.1C12.2,5,1.3,17.9,1.3,33.2c0,12.8,7.7,24.3,19.5,29.3   c20.9,8.7,44-6.7,44-29.3C64.8,17.9,53.8,5.1,39.3,2.1z M50,19.2c-1,0.4-1.2,4-9.3,5.5c0.3-1.1,0.4-2.1,0.6-3.3   c0-0.3-0.1-0.6-0.3-0.8c-0.7-0.5-1.1,0.4-4.7,2.8c-2.3-1.6-2.9-2.8-3.7-2.2l-2.7,2.2c-3.7-2.4-4-3.2-4.7-2.8   c-0.6,0.4-0.3,1.1-0.3,1.3c0.1,0.8,0.3,1.7,0.5,2.7c-4.5-0.8-7.5-2.6-8.9-5.2c-0.1-0.2-0.2-0.3-0.4-0.3C16.1,12.1,20.7,6,27.1,3.6   C29,3.2,31,3,33,3c2,0,4,0.2,6,0.6C45.4,6,49.9,12,50,19.2z M19.3,60.2c1.8-1.1,3-2.6,3.5-5.2c0.6,0.5,2.4,4.1,7,4.1   c4.3-0.4,9,1.3,12.4-2.8l1.1-1.3c0.5,2.7,1.7,4.1,3.5,5.2C38.4,64.4,28.2,64.7,19.3,60.2z M41,55.3c-2.8,3.4-6.6,1.9-11.2,2.2   c-4.4,0-6.2-4.4-8.7-7l-2.2-9.8c1.4,1.3,1.6,2.1,2.3,1.9L33,40.5c14.6,2.6,11.3,3.1,14.1,0.3l-2.2,9.8C42.5,53.5,42.2,53.9,41,55.3   z M14.5,36.4c-2.4-2.8-2.6-10.1-0.9-11.8c0,0,0.2-0.1,0.9-0.1C14.5,30.6,14.5,30.3,14.5,36.4z M47,48c1.9-9.3,2.7-9.9,1.7-10.4   c-0.9-0.5-1.2,0.7-4.1,3.5c-12.1-2.3-11.5-2.2-11.8-2.2l-11.5,2.2c-2.9-2.8-3.2-4-4.1-3.5c-0.9,0.5-0.1,1.3,1.7,10.4   c-3.5-5.7-3,0.1-3-26.4c1.9,2.4,5.2,4,9.8,4.7c1.8,4.7,6.6,8.6,7.2,8.6c0.2,0,0.3-0.1,0.5-0.2c4-3.2,5.8-6,6.7-8.4   c4.6-0.7,7.9-2.3,9.8-4.7c0,0.3,0-0.9,0,6.8C49.5,39,51.2,42.9,47.9,47L47,48z M33,33.3c-4.9-4.1-6-7.5-6.5-10.2   c2.5,1.6,3.1,2.6,3.8,2l2.7-2.2l2.7,2.2c0.3,0.2,0.6,0.2,0.9,0l2.9-2.1C39,25.7,37.9,29.2,33,33.3z M51.5,24.6   c0.7,0,0.9,0.1,0.9,0.1c1.8,1.7,1.5,9-0.9,11.8C51.5,30.3,51.5,30.6,51.5,24.6z M2.8,33.2c0-12.4,7.5-23.1,18.2-27.7   c-3.9,3.4-6.4,8.4-6.4,13.9c0,0.2,0,3.8,0,3.6c-1,0-1.6,0.2-1.9,0.5c-1.5,1.5-1.6,4.7-1.6,6c0.1,2.7,1.1,7.9,3.5,8.7   c0.2,1.3-0.9,5.6,2.5,9.7c0.1,0.1,4.8,5.8,4.5,5.4c-0.3,3.4-1.5,4.8-3.8,5.9C8.8,54.1,2.8,44.4,2.8,33.2z M48.3,59.3   c-2.2-1.1-3.4-2.5-3.8-5.9L49,48c3.3-4,2.3-8.1,2.5-9.7c3.4-1.1,4.9-11.8,1.9-14.7c-0.4-0.3-1-0.5-1.9-0.5c0-0.2,0-3.8,0-3.6   c0-5.2-2.1-10.3-6.4-13.9c10.7,4.7,18.2,15.3,18.2,27.7C63.3,44.4,57.2,54.1,48.3,59.3z"/><path d="M29.1,35.2c-0.6-1.9-1.7-3-3.2-3.4c-2.4-2.4-3-2.7-7.4-3.2c-0.4,0-0.8,0.3-0.8,0.7c0,4.3-0.1,4.3,0.1,4.6   c1.1,1.7,4.1,5.8,6.1,5.8c1.9,0,5.3-1.8,6-2.2c0.4-0.2,0.5-0.8,0.2-1.1C30.1,36.4,29.7,35.9,29.1,35.2z M25.2,33.2   c0.7,0.7,1.4,1.4,2,2.1c-2.1,0.4-4-0.1-5.2-1.9C23,33.4,24.1,33.1,25.2,33.2z M23.7,38.3c-1-0.3-3.2-3-4.6-4.9v-3.1   c3.3,0.4,3.5,0.7,4.4,1.5c-0.9,0.1-2.1,0.3-2.7,0.1c-0.6-0.3-1.3,0.4-1,1c1.6,3.8,4.9,4.9,8.4,3.8c0,0,0.1,0.1,0.1,0.1   C24.6,38.6,23.8,38.3,23.7,38.3z"/><path d="M47.5,28.7c-0.6,0.1-3.6,0.4-4.7,1c-1.6,0.9-4.7,4.2-5.8,5.5c-0.7,0.8-2,1.9-0.9,2.5c1.4,0.8,5,2.5,6.6,2.1   c1.9-0.5,5.7-5.5,5.7-6.1C48.3,30.1,48.7,28.5,47.5,28.7z M40.8,33.2c1.1-0.1,2.2,0.1,3.2,0.2c-1.6,2.3-3.9,2.2-5.2,1.9   C39.5,34.7,40.2,33.9,40.8,33.2z M46.9,33.4c-1.3,2-3.5,4.7-4.6,4.9c-0.7,0.2-2.8-0.6-4.7-1.5c0,0,0.1-0.1,0.1-0.1   c3.3,1.1,6.8,0,8.4-3.8c0.1-0.3,0.1-0.6-0.2-0.8c-0.2-0.2-0.5-0.3-0.8-0.2c-0.4,0.2-1.2,0.1-1.9,0c-0.2,0-0.5-0.1-0.7-0.1   c0.9-0.7,1.1-1.1,4.4-1.5V33.4z"/><path d="M33,49.2c-0.3,0-4.1-2.2-6.7,2c-0.5,0.7,0.4,1.5,1.1,1c2.1,1.5,9.4,1.4,11.3,0c0.7,0.6,1.6-0.3,1.1-1   C37.1,47,33.3,49.2,33,49.2z M28.4,51c1.9-1.7,3.1-0.7,3.3-0.7l0,0c1.2,0.5,1.4,0.5,2.7,0c1-0.4,2-0.4,3.3,0.7   C35.9,52,30,51.9,28.4,51z"/><path d="M30.6,46.8c0.1-0.1,0.2-0.3,0.2-0.5c0.2,0.1,0.4,0.1,0.6,0.3c0.8,1,2.4,1,3.2,0c0.2-0.2,0.3-0.2,0.6-0.3   c0,0.7,0.8,0.9,1.2,0.5c1.7-1.5,1.1-3.4,0.5-4.2c-0.6-0.8-1.8,0-1.2,0.9c0.1,0.2,0.5,0.9,0.2,1.7c-0.4-0.7-1.2-0.2-1.5-0.1   c-0.8,0.3-0.8,0.7-1.2,0.8h-0.3c-0.4-0.1-0.4-0.6-1.2-0.8c-0.3,0-1.1-0.6-1.5,0.1c-0.6-1.3,0.9-2,0-2.7c-0.3-0.2-0.8-0.2-1,0.2   C27.4,45,29.6,47.9,30.6,46.8z"/></g></svg>