<svg xmlns="http://www.w3.org/2000/svg" xmlns:xlink="http://www.w3.org/1999/xlink" version="1.1" x="0px" y="0px" viewBox="0 0 66 82.5" enable-background="new 0 0 66 66" xml:space="preserve"><g><path d="M43.7,3.3C43.7,3.3,43.7,3.3,43.7,3.3C43.7,3.3,43.7,3.3,43.7,3.3L43.7,3.3c-6.4-3.1-15-3.1-21.3,0l0,0   C22.2,3.4,8.5,7.5,3.2,22.6c-9.2,26,17,50.8,42.3,39.9C72,51.2,70.8,12.9,43.7,3.3z M43.1,4.6c5.9,2.8,8,8.6,10,14.7   c3.8,11.4,6,12.1,10.1,15.9c-0.5,6.7-3,12.9-7.7,18.2c-3.2-0.3-6.4-0.6-8.8-2.6c-0.2-0.2-0.4-0.4-0.6-0.6C46.1,50.2,46,50.1,46,50   c-0.4-0.5-0.7-1.2-1-2c1.6-2.1,2.9-4.5,3.9-7c1.9-4.9,2.3-10.3,1.2-15.4c-2-9.6-8.8-12.7-14.9-10.7c-1.4,0.5-2.9,0.5-4.3,0   c-2.8-0.9-6-0.6-8.4,0.7c-7.7,4.2-8.4,17.2-5.2,25.4c0.8,2.2,2.2,4.6,3.9,7c-1.4,4.6-6,4.7-10.6,5.4C6,48.2,3.3,42,2.9,35.2   c4-3.7,6.3-4.4,10.1-15.9c1.6-4.9,3.2-9.5,7.3-13c2.4-2,7.1-3.9,12.7-3.9C36.9,2.4,40.5,3.3,43.1,4.6z M21.2,51.2   c4.1,3.9,7.7,9.5,9.8,12.2c-7.4-0.5-14.2-3.7-19.1-8.6C15.2,54.4,19.1,53.7,21.2,51.2z M54.2,54.8c-1.6,1.6-3.6,3.1-5.5,4.3   c-4,2.4-8.7,4-13.6,4.3c2.1-2.6,5.8-8.3,9.8-12.2c0,0,0,0,0,0c0.2,0.3,0.5,0.5,0.8,0.7c0,0,0.1,0.1,0.1,0.1   C48.2,54,51.2,54.4,54.2,54.8z M38.6,52.4c-1.4,1.1-3.8,2.2-5.5,2.2c-5.6,0-12.2-8.2-14.4-14.1c-4.6-12,0.3-27.9,11.8-24.2   c1.7,0.6,3.5,0.6,5.2,0c5.3-1.7,11.2,1,13,9.6c1,4.9,0.6,9.9-1.2,14.6C45.7,45.2,42.6,49.3,38.6,52.4z M33.1,56.1   c2,0,4.8-1.3,6.4-2.5c1.6-1.2,3.1-2.6,4.4-4.2c0.1,0.2,0.2,0.3,0.2,0.5c-5.2,4.8-9.5,12.3-11,13.4c-1.5-1.2-5.9-8.7-11-13.4   c0.1-0.2,0.2-0.4,0.2-0.5C25.4,53.1,29.3,56.1,33.1,56.1z M4.6,23.1c2.3-6.6,6.7-12,12.5-15.6c-2.8,3.4-4.2,7.4-5.5,11.4   c-2.5,7.6-3.6,9.9-8.8,14.5C2.8,29.9,3.4,26.4,4.6,23.1z M63.3,33.3c-5.3-4.7-6.4-7.2-8.8-14.4c-1.3-3.9-2.7-7.9-5.4-11.3   C57.9,13,63.4,22.8,63.3,33.3z"/><path d="M35,42.8c0.8-0.8,1-0.9,2.2-0.9c1,0,1-1.5,0-1.5c-1.6,0-2.1,0.3-3.2,1.4c-0.3,0.3-0.3,0.8,0,1.1   C34.2,43.1,34.7,43.1,35,42.8z"/><path d="M28.9,41.8c1.2,0,1.4,0.1,2.2,0.9c0.7,0.7,1.8-0.4,1.1-1.1c-1.1-1.1-1.7-1.3-3.2-1.4C27.9,40.4,28,41.8,28.9,41.8z"/><path d="M39.7,43.7c-0.1,0-1.3,0.8-4.9,0.2c-1.1-0.2-1.4,0.5-1.9,0.3c-0.3-0.2-0.9-0.4-1.5-0.3c-3.6,0.6-4.9-0.2-4.9-0.2   c-0.8-0.6-1.8,0.7-0.7,1.3c0.1,0.1,0.9,0.8,1.4,1.6c1.8,3.6,10.1,3.6,11.9,0c0.5-0.9,1.3-1.6,1.3-1.6c0,0,0,0,0,0l0.3-0.2   c0,0,0,0,0,0c0,0,0,0,0,0s0,0,0,0c0,0,0,0,0,0c0,0,0,0,0,0c0,0,0,0,0,0c0,0,0,0,0,0c0,0,0,0,0,0c0,0,0,0,0,0h0   c0.3-0.3,0.3-0.7,0.1-1C40.5,43.5,40,43.5,39.7,43.7z M33.1,47.9c-2.8,0-4-1-4.8-2.3c2.3,0.1,3.3-0.4,3.7-0.2   c0.6,0.4,1.6,0.4,2.1,0c0.5-0.2,1.4,0.3,3.8,0.2C37.1,46.9,35.9,47.9,33.1,47.9z"/><path d="M29.3,34.2c-0.8-2.7-2.4-4-4.8-4c-1,0-2.4,0.3-3.1,0.3c-0.1,0-0.5,0-0.7-0.1c-0.6-0.3-1.3,0.4-1,1c1.5,3.6,4.2,4.3,6.2,4.3   C26.9,35.7,29.7,35.4,29.3,34.2z M21.7,32c2.4-0.1,4.7-1.1,5.9,2C25.3,34.6,23.1,34.1,21.7,32z"/><path d="M24.3,28.5c1.4,0.3,5,2.3,6.3,3.1c0.4,0.2,0.8,0.1,1-0.3c0.2-0.4,0.1-0.8-0.3-1c-0.5-0.3-4.9-3-6.8-3.3   c-1.1-0.2-3.7,0.2-4.2,0.3c-0.4,0.1-0.7,0.5-0.6,0.9C20,29.6,22.4,28.1,24.3,28.5z"/><path d="M45.4,30.4c-0.4,0.2-1.2,0.1-2.1,0c-0.6-0.1-1.2-0.1-1.8-0.1c-2.5,0-4,1.3-4.8,4c-0.1,0.4,0.1,0.8,0.4,0.9   c0.1,0,1.4,0.6,3,0.6c2,0,4.6-0.8,6.2-4.3c0.1-0.3,0.1-0.6-0.2-0.8S45.7,30.3,45.4,30.4z M40.2,34.2c-0.7,0-1.3-0.1-1.8-0.2   c0.8-1.9,2-2.2,3.2-2.2c0.5,0,1.1,0.1,1.6,0.1c0.4,0,0.8,0.1,1.2,0.1C43.4,33.5,42,34.2,40.2,34.2z"/><path d="M35.5,31.6c1.3-0.8,5-2.9,6.3-3.1c0.6-0.1,2.5,0.1,3.7,0.3c0.4,0.1,0.8-0.2,0.9-0.6s-0.2-0.8-0.6-0.9   c-0.5-0.1-3.2-0.5-4.2-0.3c-1.9,0.4-6.3,3-6.8,3.3c-0.4,0.2-0.5,0.7-0.3,1C34.7,31.7,35.1,31.8,35.5,31.6z"/></g></svg>