<svg xmlns="http://www.w3.org/2000/svg" data-name="Layer 1" viewBox="0 0 100 125" x="0px" y="0px"><title>avengers icon</title>
<style>
path {
    fill: brown;
    stroke-width: 1px;
    stroke: brown;
}
</style>

<path d="M64,76l-.8-.6c.41-.54,4.07-5.31,6-5.93C70.7,69,71,66.53,71,66.51c0-.18.61-4.16,1.92-5.93,1.1-1.48.6-6.82-.56-9.57l.92-.39c1.18,2.81,1.85,8.65.44,10.56C72.6,62.74,72,66.6,72,66.64s-.39,3.06-2.51,3.74C68.14,70.82,65.08,74.55,64,76Z"/><path d="M51.9,94.8H48.83a11.11,11.11,0,0,1-5.49-1.69c-2.55-1.64-11.55-13.62-11.91-15a11.6,11.6,0,0,1-.08-3.2c0-.52.07-1,.07-1.48a11.35,11.35,0,0,0-1-3.51l.91-.42a12.2,12.2,0,0,1,1.11,3.93c0,.48,0,1-.07,1.54a10.17,10.17,0,0,0,.06,2.9c.33,1.23,9.1,12.93,11.47,14.45a10.22,10.22,0,0,0,4.95,1.53H51.9a10.25,10.25,0,0,0,5-1.53C59.22,90.75,68,79.05,68.32,77.82a11,11,0,0,0,.06-2.9c0-.53-.07-1.06-.07-1.54a12.2,12.2,0,0,1,1.11-3.93l.91.42a11.35,11.35,0,0,0-1,3.51c0,.46,0,1,.06,1.48a10.87,10.87,0,0,1-.08,3.2c-.35,1.43-9.35,13.41-11.9,15A11.11,11.11,0,0,1,51.9,94.8Z"/><path d="M54.4,55.66a5.93,5.93,0,0,1-3-.93l.54-.83s2.15,1.37,3.79.42c2.05-1.19,7.09-3.09,9.44-2.49,2.75.71,5.46.67,5.75.14a5.61,5.61,0,0,1,3.14-2.22c.16,0,.75-.32.8-1.7A7.71,7.71,0,0,0,74.8,47a4,4,0,0,1,1.74-4.16c1.92-1.56,1.63-5.61,1.58-6.22-.22-.49-1.22-2.9-.27-4.74a7.13,7.13,0,0,0,.64-3.59l0-.14,1.74-3.81h0a2.94,2.94,0,0,0,0-2.18c-.1-.19-.23-.38-.35-.57-.61-.93-1.36-2.1-.16-3.61.94-1.19.09-4.21-.28-4.6-.29-.17-1-.63-1.31-.51-.08,0-.14.15-.17.25l-.15.52-1.93-.75c-.69.34-3.09,1.61-3.71,3.36l0,1.71,0,.11c-.07.16-.47.95-1.15,1a1.06,1.06,0,0,1-1-.61,3.75,3.75,0,0,1-.13-2.93,1.74,1.74,0,0,0,0-1.35,1.36,1.36,0,0,0-1.12-.48l.07-1a2.27,2.27,0,0,1,1.9.95,2.69,2.69,0,0,1,.07,2.24,2.72,2.72,0,0,0,.05,2A.44.44,0,0,0,71,18s.12-.19.2-.33l0-1.65,0-.08c.81-2.49,4.32-4.05,4.47-4.12l.19-.08,1.39.54a1.11,1.11,0,0,1,.54-.42c.77-.29,1.67.28,2.15.58s1,1.76,1.1,2.52a4.74,4.74,0,0,1-.53,3.57c-.72.91-.42,1.46.22,2.45.13.2.27.41.39.63a3.93,3.93,0,0,1,0,3.06l-1.64,3.58a8,8,0,0,1-.75,4c-.81,1.57.31,3.9.32,3.92l0,.16c0,.21.57,5.17-1.93,7.2a3,3,0,0,0-1.37,3.28,9.49,9.49,0,0,1,.06,1.22c-.07,2-1.11,2.67-1.8,2.67a5.1,5.1,0,0,0-2.26,1.71c-1,1.8-6.82.35-6.88.34-2-.51-6.74,1.26-8.69,2.39A3.57,3.57,0,0,1,54.4,55.66Z"/><path d="M65.55,29.25l-1-.29s1-3.09,1.25-4a24.14,24.14,0,0,0,1.06-4.31c.12-1.11.48-2.84.67-3.77.07-.33.11-.57.12-.64a2.93,2.93,0,0,1,.08-.37c.78-3.37.7-4.73.49-5.29a2.54,2.54,0,0,0-2-1.49h0c-.17.56-.5,2.38-.69,3.49a7.63,7.63,0,0,1-.78,3.44c-.2.3-.15.46,0,.9a2.5,2.5,0,0,1,0,2.12c-.14.33-.31.66-.46,1a7.58,7.58,0,0,0-1,3.27,26.58,26.58,0,0,1-1.11,5.35.5.5,0,0,1-1-.29,26.85,26.85,0,0,0,1.07-5.06,8.27,8.27,0,0,1,1.13-3.7c.15-.32.31-.64.45-1a1.47,1.47,0,0,0,0-1.35,1.77,1.77,0,0,1,.08-1.81,6.86,6.86,0,0,0,.63-3c.1-.62.56-3.32.78-3.88a.87.87,0,0,1,.91-.52h0a3.5,3.5,0,0,1,2.93,2.15c.49,1.33,0,4-.46,5.86a2,2,0,0,0,0,.25s0,.07-.14.73c-.19.91-.54,2.61-.65,3.68a24.59,24.59,0,0,1-1.12,4.52C66.49,26.18,65.55,29.25,65.55,29.25Z"/><path d="M47,27.27a.51.51,0,0,1-.36-.15,13.51,13.51,0,0,0-1.71-1.51,4.29,4.29,0,0,1-1.31-1.38l-.2-.3a.31.31,0,0,0-.07-.08.43.43,0,0,0-.18.23c0,.28,0,1.33,0,2a.5.5,0,0,1-.4.51.51.51,0,0,1-.56-.3l-3-7.36-2.44-1.08a.51.51,0,0,1-.26-.66.5.5,0,0,1,.66-.26l2.63,1.17a.51.51,0,0,1,.26.26l2.19,5.36a1.37,1.37,0,0,1,.88-.8,1,1,0,0,1,1.13.48l.21.31a3.15,3.15,0,0,0,1,1.1A10.66,10.66,0,0,1,46.91,26a3.19,3.19,0,0,0,.36-1.45,5.93,5.93,0,0,0,0-.87,5.22,5.22,0,0,1,.65-3,10.28,10.28,0,0,0,.79-4.55V15.9c0-.26,0-.61-.06-1-.12-1.31-.24-2.79.43-3.42.41-.39.28-1.76.21-2.5l0-.33c-.08-1,.82-1.91,1.48-2.58.14-.15.26-.27.35-.38a1.52,1.52,0,0,1,1.29-.5A1.75,1.75,0,0,1,53.7,6c.26.42,1.2,2.31,1.81,3.55l.2-.64a.78.78,0,0,1,.49-.47,5.3,5.3,0,0,1,2.65-.28,1.93,1.93,0,0,1,.52.54l.37-.36.38-1.5a.5.5,0,0,1,.36-.36c1.84-.47,2.87-.35,3.07.35a4,4,0,0,0,1,1.17.45.45,0,0,1,.17.27c.91,3.9.9,4,.88,4.11a.5.5,0,0,1-.58.4.51.51,0,0,1-.42-.47c0-.28-.51-2.32-.82-3.66a4.51,4.51,0,0,1-1.15-1.43A5,5,0,0,0,61,7.4l-.34,1.34a.58.58,0,0,1-.14.24l-.92.89a.47.47,0,0,1-.42.14.5.5,0,0,1-.36-.25,5.3,5.3,0,0,0-.45-.68,6.66,6.66,0,0,0-1.76.28l-.55,1.69a.49.49,0,0,1-.44.35.51.51,0,0,1-.48-.28c-.68-1.38-2-4.11-2.31-4.59a.77.77,0,0,0-.59-.33.51.51,0,0,0-.44.15c-.1.12-.24.26-.39.42-.47.48-1.25,1.28-1.2,1.81l0,.31c.11,1.1.26,2.61-.52,3.33-.31.3-.18,1.86-.12,2.6,0,.42.07.8.07,1.08v.24a11.23,11.23,0,0,1-.88,5,4.2,4.2,0,0,0-.56,2.51,7.27,7.27,0,0,1,0,1,4.05,4.05,0,0,1-.92,2.54.51.51,0,0,1-.37.15ZM56.67,9.2h0Z"/><path d="M37.11,76.15a.51.51,0,0,1-.4-.2c-1.06-1.4-4.12-5.13-5.5-5.57-2.12-.68-2.5-3.63-2.51-3.75L25.22,48.24a2.27,2.27,0,0,0-1.66-1.09c-1.8-.16-2-3.48-2-3.86a23.26,23.26,0,0,1-.5-4.27,23.43,23.43,0,0,1,.36-3.83c-.34-.93-2.41-6.7-2.79-7.65a1.07,1.07,0,0,1,.08-1,2.4,2.4,0,0,1,1.67-.78,1.78,1.78,0,0,0,.09-.48,2.57,2.57,0,0,0-.38-1.12,6.61,6.61,0,0,1-.74-2.84,2,2,0,0,1,1-1.87c.06-.59.19-1.93.35-3.27a8.67,8.67,0,0,0-.68-3.67.51.51,0,0,1,.4-.7l2.46-.32a.5.5,0,0,1,.56.41,14.28,14.28,0,0,1,.2,3.64,7.69,7.69,0,0,0,.82,2.77c.19-.5.39-1.06.5-1.46a7.72,7.72,0,0,0,.18-1.06,4.56,4.56,0,0,1,.72-2.39c.59-.67,2.31-.91,3-1a5.4,5.4,0,0,0,.5-2.52A2,2,0,0,1,30,8.29a2.4,2.4,0,0,1,2-.23,2.15,2.15,0,0,0,.37.06c.77,0,1.83,1.17,2.25,1.67a.42.42,0,0,1,.09.16,25,25,0,0,1,.9,3.55c.15,1.2.4,1.45.85,1.79S37.28,16.56,38,19c.08.26.13.46.16.53.12.32,2.76,7,2.79,7a.51.51,0,0,1-.28.65A.5.5,0,0,1,40,27l-2.8-7c0-.08-.09-.31-.18-.62a12.69,12.69,0,0,0-1.12-3.21,3.07,3.07,0,0,1-1.23-2.45,23.08,23.08,0,0,0-.82-3.27,4.64,4.64,0,0,0-1.45-1.24A3.61,3.61,0,0,1,31.85,9c-.39-.07-.93-.18-1.17,0a1.13,1.13,0,0,0-.24.83,5.29,5.29,0,0,1-.82,3.31.49.49,0,0,1-.35.19,5.66,5.66,0,0,0-2.62.66,4.53,4.53,0,0,0-.48,1.86,9,9,0,0,1-.21,1.2,26.86,26.86,0,0,1-1,2.64.5.5,0,0,1-.44.31.54.54,0,0,1-.46-.28c-.27-.55-1.61-3.34-1.38-4.45a11,11,0,0,0-.14-2.8l-1.35.18a8.72,8.72,0,0,1,.52,3.57c-.21,1.79-.37,3.57-.37,3.57a.52.52,0,0,1-.42.45c-.09,0-.58.17-.58,1A5.62,5.62,0,0,0,21,23.66a3.65,3.65,0,0,1,.51,1.69,2.85,2.85,0,0,1-.32,1.15.49.49,0,0,1-.41.23,2.07,2.07,0,0,0-1.19.35c.43,1.13,2.75,7.63,2.85,7.9a.46.46,0,0,1,0,.26A24.33,24.33,0,0,0,22.07,39a23.22,23.22,0,0,0,.49,4.15c.05,1.22.43,2.92,1.09,3a3.33,3.33,0,0,1,2.49,1.69.65.65,0,0,1,0,.13l3.5,18.5c0,.06.33,2.48,1.83,3,1.93.62,5.59,5.39,6,5.93a.51.51,0,0,1-.1.7A.49.49,0,0,1,37.11,76.15Z"/><path d="M47.09,57.28c-.33,0-.59-.24-.92-.57a9.89,9.89,0,0,0-1.82-1.42,8.16,8.16,0,0,1-3.12-1c-.38-.3-3-.58-5.58-.58,0,0-5.35,0-5.9-.6l.36-.36.26-.42a33.57,33.57,0,0,0,5.28.38c.55,0,5.37,0,6.26.84a8.05,8.05,0,0,0,2.69.79l.18.07A10.7,10.7,0,0,1,46.86,56l.17.17a9.89,9.89,0,0,1,2.48-1.63l.44.9a7.74,7.74,0,0,0-2.2,1.44.79.79,0,0,1-.57.41Z"/><path d="M30.11,35.57a.51.51,0,0,1-.5-.43,11.71,11.71,0,0,0-1.28-3,13,13,0,0,1-1.47-3.61c-.24-1.8-2.78-8.7-2.8-8.77a.5.5,0,0,1,.93-.35c.11.29,2.61,7.08,2.86,9a12.74,12.74,0,0,0,1.37,3.28A12,12,0,0,1,30.6,35a.5.5,0,0,1-.42.56Z"/><path d="M25.92,39.44a.51.51,0,0,1-.43-.24A10.86,10.86,0,0,1,24,35.07a5.57,5.57,0,0,0-1.61-3.69c-1.18-1.44-2.12-4.87-2.16-5a.5.5,0,0,1,1-.26,17.43,17.43,0,0,0,2,4.65A6.44,6.44,0,0,1,25,35.06a9.84,9.84,0,0,0,1.33,3.63.5.5,0,0,1-.17.68A.48.48,0,0,1,25.92,39.44Z"/><path d="M27,34.24a.51.51,0,0,1-.5-.47A14,14,0,0,0,24.37,28c-1.72-2.74-1.83-3.68-2-4.77,0-.21-.06-.43-.1-.66a4.43,4.43,0,0,0-1.73-2.3.5.5,0,1,1,.58-.82,5.58,5.58,0,0,1,2.14,2.95c0,.25.07.48.1.7.13,1,.23,1.82,1.83,4.37a14.76,14.76,0,0,1,2.26,6.27.49.49,0,0,1-.46.53Z"/><path d="M39,47a.49.49,0,0,1-.45-.29c-.16-.35-3.78-8.52-4.23-10.73-.34-1.72-3.7-7-5-8.93a.5.5,0,1,1,.83-.55c.19.28,4.67,7,5.13,9.28S39.4,46.22,39.44,46.3a.5.5,0,0,1-.25.66A.52.52,0,0,1,39,47Z"/><path d="M39.92,77.07a.59.59,0,0,1-.25-.07.49.49,0,0,1-.18-.68,5.79,5.79,0,0,0,.74-2.13c0-.19,0-.46,0-.78a32.45,32.45,0,0,1,.19-5.54,10.66,10.66,0,0,1,2.27-4.56,9.22,9.22,0,0,0,1-1.57c.46-1,0-3.64-.23-4.56a.5.5,0,0,1,.36-.6.51.51,0,0,1,.61.37c.09.37.85,3.67.18,5.19a10.59,10.59,0,0,1-1.13,1.76A9.68,9.68,0,0,0,41.39,68a31.2,31.2,0,0,0-.18,5.36c0,.34,0,.62,0,.82a6.64,6.64,0,0,1-.88,2.63A.5.5,0,0,1,39.92,77.07Z"/><path d="M62.25,76.15a.49.49,0,0,1-.33-.11c-.15-.12-.64-.65-.73-2.28l0-.46a34.71,34.71,0,0,0-1-7.35,5.58,5.58,0,0,0-1.54-3,6.32,6.32,0,0,1-1.22-1.72c-1.11-2.25-.35-3.61-.32-3.67a.5.5,0,1,1,.87.49,3.19,3.19,0,0,0,.35,2.74,5.23,5.23,0,0,0,1,1.48,6.56,6.56,0,0,1,1.77,3.41,36,36,0,0,1,1,7.56l0,.46a2.93,2.93,0,0,0,.38,1.58.47.47,0,0,1,.06.69A.5.5,0,0,1,62.25,76.15Z"/><path d="M52.53,80.67A70.49,70.49,0,0,1,40,79.43a.49.49,0,0,1-.39-.59.5.5,0,0,1,.59-.39c.13,0,13.62,2.69,21.27,0a.5.5,0,0,1,.64.31.49.49,0,0,1-.31.63A29,29,0,0,1,52.53,80.67Z"/><path d="M51.84,84a45.92,45.92,0,0,1-5.17-.35.5.5,0,0,1-.43-.56.49.49,0,0,1,.56-.43c.06,0,5.91.76,8.11,0a.5.5,0,0,1,.63.31.51.51,0,0,1-.31.64A11.77,11.77,0,0,1,51.84,84Z"/><path d="M54.5,33.65h-.09a.5.5,0,0,1-.41-.57c0-.08,1.37-8.11,1.7-10.9a4,4,0,0,0-.84-2.81,3.75,3.75,0,0,1-.73-3.26,41.49,41.49,0,0,0,1-5.26.51.51,0,0,1,.55-.44.49.49,0,0,1,.44.56,39.9,39.9,0,0,1-1,5.41,2.84,2.84,0,0,0,.62,2.47,4.92,4.92,0,0,1,1,3.45C56.36,25.1,55,33.15,55,33.23A.49.49,0,0,1,54.5,33.65Z"/><path d="M71.55,51.88a.54.54,0,0,1-.22-.05.5.5,0,0,1-.24-.66,7.15,7.15,0,0,0,.65-3.34,4.29,4.29,0,0,1,.55-2.67,6.71,6.71,0,0,0,.58-1.62,22.16,22.16,0,0,1,1.6-4.38.5.5,0,1,1,.9.44,21.74,21.74,0,0,0-1.52,4.12,7.59,7.59,0,0,1-.65,1.86,3.29,3.29,0,0,0-.47,2.1A8,8,0,0,1,72,51.59.51.51,0,0,1,71.55,51.88Z"/><path d="M69.87,44.5a.51.51,0,0,1-.28-.09.5.5,0,0,1-.13-.69A7.54,7.54,0,0,0,70.61,41a4.37,4.37,0,0,0-.07-1.35A9.3,9.3,0,0,1,70.62,36c.24-1.25,1.2-4.22,2.23-7.36,1.34-4.11,3-9.24,3-10.54a.5.5,0,0,1,.5-.5.5.5,0,0,1,.5.5c0,1.46-1.56,6.24-3.06,10.85-1,3.11-2,6-2.2,7.24a8.34,8.34,0,0,0-.07,3.34,5.09,5.09,0,0,1,.07,1.63,8.35,8.35,0,0,1-1.32,3.16A.48.48,0,0,1,69.87,44.5Z"/><path d="M62.23,50.63a.53.53,0,0,1-.27-.08.51.51,0,0,1-.15-.7,9.52,9.52,0,0,0,1.31-5.2.5.5,0,0,1,.48-.52.48.48,0,0,1,.52.48,10.46,10.46,0,0,1-1.47,5.79A.51.51,0,0,1,62.23,50.63Z"/><path d="M38.86,60.13a2.32,2.32,0,1,1,2.31-2.31A2.32,2.32,0,0,1,38.86,60.13Zm0-3.63a1.32,1.32,0,1,0,1.31,1.32A1.32,1.32,0,0,0,38.86,56.5Z"/><path d="M31.48,58l-.37-.93c6.91-2.75,10.45-1.62,10.6-1.57l-.32.95.16-.48-.16.48S38,55.43,31.48,58Z"/><path d="M62.9,60.13a2.32,2.32,0,1,1,2.31-2.31A2.32,2.32,0,0,1,62.9,60.13Zm0-3.63a1.32,1.32,0,1,0,1.31,1.32A1.32,1.32,0,0,0,62.9,56.5Z"/><path d="M70.27,58c-6.56-2.62-9.87-1.56-9.9-1.55l-.32-.95c.15-.05,3.69-1.18,10.59,1.57Z"/></svg>