<svg xmlns="http://www.w3.org/2000/svg" viewBox="0 0 60 75" x="0px" y="0px">
    <defs>
        <style>.cls-1{fill:none;stroke:#000;stroke-linecap:round;stroke-linejoin:round;stroke-width:2px;}</style>
    </defs>
    <path class="cls-1" d="M30,59S6,54,6,5c0,0,7.63636-4,24-4S54,5,54,5c0,49-24,54-24,54"/>
    <path class="cls-1" d="M28.46,9c-13.55.27-20.72,3.96-22.18,4.81"/>
    <path class="cls-1" d="M53.72,13.81C52.26,12.96,45.09,9.27,31.54,9"/>
    <polygon class="cls-1" points="30 53 32 44 45 38 34 38 36 33 32 35 30 19 28 35 24 33 26 38 15 38 28 44 30 53"/>
    <path class="cls-1" d="M42.48,38C43.74,35.34,47,28.04,47,24c0,0-3,4-5,4,0,0,3-9,1-12,0,0-2,5-4,5,0,0,1-7-1-8,0,0-1,4-3,5L30,5,25,18c-2-1-3-5-3-5-2,1-1,8-1,8-2,0-4-5-4-5-2,3,1,12,1,12-2,0-5-4-5-4,0,4.04,3.26,11.34,4.52,14"/>
    <path class="cls-1" d="M29.55,50.95C25.5,50.21,19,40,19,40"/>
    <path class="cls-1" d="M41,40S34.5,50.21,30.45,50.95"/>
    <path class="cls-1" d="M18,6A70.88182,70.88182,0,0,1,42,6"/>
</svg>