<svg xmlns="http://www.w3.org/2000/svg" xmlns:xlink="http://www.w3.org/1999/xlink" version="1.1" x="0px" y="0px" viewBox="0 0 26 32.5" enable-background="new 0 0 26 26" xml:space="preserve">
<style>
path {
    fill: purple;
}
</style>
<g><g><path d="M9.37,1.81928c-0.3-0.1201-0.65-0.08-0.92,0.0999c-0.28,0.1899-0.44,0.5-0.44,0.8301v7.25h2v-5.6699    c3.1433,1.7998,5,5.1229,5,8.6699c0,3.5461-1.85379,6.868-5,8.6699v-5.6699h-2v7.25c0,0.3301,0.16,0.6401,0.44,0.8301    c0.2896,0.1988,0.6756,0.211,0.92,0.0998c4.6766-1.8299,7.64-6.2368,7.64-11.1799C17.01,8.05818,14.0488,3.65008,9.37,1.81928z"/><path d="M12.95,11.99928c0.0801,0.661,0.0801,1.3385,0,2H5.29c-0.1,0.1699-0.21,0.3398-0.35,0.48l-2.22,2.2199    c-0.407,0.387-1.013,0.387-1.42,0c-0.39-0.3899-0.39-1.03,0-1.4199l2.22-2.22l0.07-0.08l-2.27-2.2601    c-0.39-0.3898-0.39-1.03,0-1.4199c0.39-0.3901,1.02-0.3901,1.41,0l2.21,2.2c0.15,0.1499,0.26,0.32,0.36,0.5H12.95z"/><path d="M24.7,13.69918l-2.01,2.01c-0.63,0.6299-1.7,0.19-1.7-0.6999v-1.01h-2.02c0.03-0.3301,0.04-0.6699,0.04-1    s-0.01-0.6699-0.04-1H21v-0.99c0-0.8899,1.08-1.3401,1.71-0.71l1.99,1.99C25.09,12.67918,25.09,13.30928,24.7,13.69918z"/></g></g></svg>