<svg xmlns="http://www.w3.org/2000/svg" xmlns:xlink="http://www.w3.org/1999/xlink" version="1.1" x="0px" y="0px" viewBox="0 0 100 125" enable-background="new 0 0 100 100" xml:space="preserve">
<style>
path {
    fill: darkgreen;
}
polygon {
    fill: darkgreen;
}
</style>

<path d="M86.81,59.675c0.059-0.102,1.465-2.563,3.386-8.324c1.237-3.708,0.764-7.386-0.092-9.591  c-0.199-0.511-0.587-0.892-1.124-1.101c-1.368-0.533-3.649,0.209-5.157,0.835c-0.461-3.314-0.898-6.372-1.256-8.84  c0.119-3.165,0.518-6.377,1.533-8.107c0.542-0.924-1.916-1.188-1.916-1.188s-0.501,0.633,1.25-3.167  c0.585-1.269-2.75-3.083-2.75-3.083s-3.005-1.463-2.834-2.833c0.25-2-3.096,1.816-2.729-1.729c0.188-1.813-4.688-3.604-4.688-3.604  s-2.98-1.167-3.584-0.5c-1.214,1.341-4.5-0.821-4.5-0.821s-4.273-1.137-6.25-0.763c-0.924,0.175-4.688,1.458-3.5-1.167  c0.701-1.549-5.5,1.75-5.5,1.75s-0.665,0.76-2-1c-1.375-1.813-4.309,1.042-5.083,0.917C38.378,7.092,36.1,8.691,36.1,8.691  s-3.901-3.207-4.132-1.5c-0.416,3.083-3.917,4.211-4.969,3.377c-0.015-0.011-0.024-0.02-0.036-0.03  c0.471,0.515,1.637,2.476-4.863,3.486c-0.942,0.146-3.903,2.809-4.75,3.25c-0.779,0.407,1.497,2.82-0.396,3.5  c-1.854,0.667-1.021,3.5-1.021,3.5s-2.841,0.448-2.434,1.167c1.371,2.42,2.547,7.873,3.209,11.438  c-0.199,1.442-0.41,2.979-0.626,4.576c-1.506-0.617-3.721-1.319-5.063-0.797c-0.536,0.209-0.925,0.59-1.123,1.101  c-0.856,2.206-1.33,5.883-0.093,9.591c1.921,5.762,3.328,8.223,3.387,8.324c0.124,0.216,0.319,0.36,0.536,0.437  c-0.575,5.144-0.916,9.133-0.74,10.223c0.712,4.4,16.756,22.417,19.939,23.911c2.772,1.296,15.613,1.463,17.068,1.478l0.01-1l0.01,1  c1.455-0.015,14.292-0.182,17.065-1.479c3.18-1.49,19.226-19.505,19.942-23.912c0.175-1.089-0.179-5.073-0.773-10.211  C86.476,60.048,86.681,59.898,86.81,59.675z M11.702,50.718c-1.379-4.136-0.192-7.585,0.02-8.185  c0.42-0.271,2.285,0.194,4.085,0.979c-0.596,4.449-1.209,9.191-1.716,13.453C13.513,55.68,12.676,53.64,11.702,50.718z   M85.047,70.014c-0.559,3.432-15.925,21.064-18.816,22.419c-1.79,0.837-10.897,1.236-16.227,1.29  c-5.331-0.054-14.441-0.453-16.229-1.289c-2.895-1.358-18.259-18.99-18.813-22.419c-0.282-1.743,1.192-14.012,2.88-26.619  c0.002-0.005,0.007-0.008,0.01-0.013c0.095-0.193,0.104-0.399,0.072-0.597c0.508-3.784,1.033-7.58,1.534-11.121  c0.391-0.76,0.835-1.343,1.341-1.575c2.195-1.008,11.636,4.602,9.341,2.477c-1.996-1.849,3.445-4.018,3.445-4.018  s5.54,4.08,5.181,2.393c-0.29-1.362,5.314-1.508,5.314-1.508s3.052,0.445,3.333,4.664c0.104,1.552,3.438-5.073,3.438-5.073  s4.204,3.739,3.917,2.25c-0.209-1.083,3.666-2,3.666-2s2.546,1.237,2.5,2.042c-0.083,1.458,3.584-2.458,3.584-2.458  s7.409,0.706,6.166,2.583c-2.317,3.5,5.352-2.421,7.084-1.833c1.16,0.394,2.163,2.204,2.961,4.296  C82.918,49.105,85.398,67.83,85.047,70.014z M84.108,43.551c1.824-0.81,3.74-1.3,4.13-1.068c0.252,0.649,1.439,4.099,0.061,8.235  c-0.991,2.973-1.841,5.033-2.419,6.315C85.356,52.767,84.724,48.013,84.108,43.551z"/><polygon points="46.1,81 42.287,82 54.537,82 48.037,81 "/><path d="M54.076,74.164c-1.012-0.296-3.055,0.424-4.072,0.424c-1.019,0-3.045-0.552-4.075-0.424c-4.824,0.622-9.229,5.55-9.229,5.55  s9.973-1.799,13.305-1.799c3.331,0,13.302,1.799,13.302,1.799S59.438,75.753,54.076,74.164z"/><path d="M60.421,58.43c7.162,11.39,9.308,20.041,9.308,20.103l0.318,0.004c0.002-0.253-2.077-10.236-8.675-20.651L60.421,58.43z"/><polygon points="54,59.825 51,61.748 51,61.979 54,61.372 "/><polygon points="49,61.748 46,59.825 46,61.372 49,61.979 "/><path d="M37.816,57.885c-6.601,10.415-7.681,20.398-7.678,20.651l0.315-0.004c0-0.062,1.145-8.713,8.311-20.103L37.816,57.885z"/><path d="M69.103,49.992l0.177-0.984c-5.567-0.999-10.258,2.05-10.455,2.181l0.551,0.834c0.017-0.011,0.671-0.436,1.755-0.91  c-0.08,0.154-0.125,0.31-0.099,0.461c0.144,0.767,1.68,1.138,3.446,0.824c1.766-0.316,3.091-1.188,2.957-1.953  c-0.048-0.259-0.265-0.468-0.586-0.626C67.578,49.809,68.331,49.854,69.103,49.992z"/><polygon points="54,50.077 72,44.615 72,42.121 54,49.025 "/><path d="M50.693,48.796c-1.147-3.788-0.171-5.587-0.161-5.605l-0.864-0.504c-0.05,0.085-1.222,2.144,0.067,6.399L50.693,48.796z"/><polygon points="45,49.025 27,42.121 27,44.615 45,50.077 "/><path d="M26.963,10.539C26.82,10.383,26.745,10.362,26.963,10.539L26.963,10.539z"/><path d="M41.375,51.188c-0.197-0.131-4.895-3.179-10.455-2.181l0.177,0.984c0.863-0.155,1.706-0.195,2.516-0.166  c-0.313,0.157-0.525,0.363-0.572,0.619c-0.133,0.765,1.191,1.636,2.958,1.953c1.767,0.313,3.302-0.058,3.446-0.824  c0.017-0.097,0.01-0.195-0.018-0.294c0.864,0.402,1.382,0.733,1.397,0.743L41.375,51.188z"/></svg>