<svg xmlns="http://www.w3.org/2000/svg" data-name="Layer 1" viewBox="0 0 100 125" x="0px" y="0px"><title>avengers icon</title><path fill="red" d="M65.23,91.24,64.9,91a30.23,30.23,0,0,0-3.38-2.7l-.64,0-.1,0a31.94,31.94,0,0,0-10.31-1.68H49.41A32.57,32.57,0,0,0,39.1,88.24l-.09,0-.64,0A31.1,31.1,0,0,0,35,91l-.32.29L34.33,91c-1.53-1.32-3.2-6-3.39-6.58l-.58-2,.55-.1h0s1.1-.31,1.14-3c0-3-3.38-8.84-3.41-8.9-.2-.32-5-8.11-6.4-11S20,49.58,20,49.29c-.51-7.88,0-8.16.32-8.32l.29-.15.35.22a5.9,5.9,0,0,1,1.31,2.64l0,.12v.45c.23.5,1.11,2.38,1.27,2.9A18.47,18.47,0,0,0,25,49.81h0a70.94,70.94,0,0,1,4.44,5.9,1.56,1.56,0,0,0,.92.84c4.09.42,8.71.77,9.28.59C40,57,40,57,40,56.71c0-.1,0-.2,0-.32s-.21-.19-.21-.19c-.42-.12-9.44-2.73-12.06-4.65s-2.85-3.07-2.86-3.28c0,0-1.05-6-1.69-10.46s-.31-10.5,0-14.68c.27-3.66.73-4.58.78-4.68l.67-.83a1.92,1.92,0,0,1,2.14-.51,26.2,26.2,0,0,1,4.68,1.06,5.39,5.39,0,0,1,3.34,3l7.68,12.65a4.91,4.91,0,0,0,4,2.54h7a4.86,4.86,0,0,0,4-2.53l7.68-12.66a5.39,5.39,0,0,1,3.34-3,26,26,0,0,1,4.69-1.06,1.9,1.9,0,0,1,2.13.51l.62.76c.1.17.57,1.09.83,4.75.3,4.18.63,10.25,0,14.68S75,48.26,75,48.32s-.22,1.3-2.85,3.23-11.65,4.53-12,4.64c0,0-.25.07-.24.2s0,.22,0,.32c0,.3,0,.3.39.45a73.07,73.07,0,0,0,9.32-.61h0a1.6,1.6,0,0,0,.88-.83,70.59,70.59,0,0,1,4.43-5.9h0a19.49,19.49,0,0,0,1.47-2.66c.16-.52,1-2.4,1.27-2.9v-.57A5.9,5.9,0,0,1,79,41l.25-.2.39.13c.29.16.84.44.33,8.29,0,.32-.89,7.22-2.29,10.13s-6.2,10.65-6.4,11c0,0-3.45,5.87-3.4,8.89,0,2.68,1.14,3,1.15,3l.5.12-.12.5L69,84.36c-.19.56-1.86,5.28-3.39,6.6ZM31.59,83l.31,1.06a25.14,25.14,0,0,0,2.78,5.81,21.15,21.15,0,0,1,3.41-2.61l.1,0,.66,0a32.39,32.39,0,0,1,10.58-1.71h1A32.91,32.91,0,0,1,61,87.27l.67,0,.09,0a21.15,21.15,0,0,1,3.41,2.61A25,25,0,0,0,68,84.06l.29-1c-.57-.36-1.42-1.3-1.45-3.74,0-3.31,3.4-9.18,3.54-9.43.06-.09,5-8.08,6.36-10.89s2.19-9.72,2.2-9.79c.16-2.49.24-5.25.16-6.63a7.78,7.78,0,0,0-.46,1.32l0,.71c-.45,1-1.15,2.5-1.26,2.88a17.35,17.35,0,0,1-1.76,3.08h0c-.35.35-3.77,4.8-4.22,5.64a2.52,2.52,0,0,1-1.61,1.36c-2.11.22-8.93.9-9.83.55s-1-.84-1-1.37a2.18,2.18,0,0,0,0-.25,1.21,1.21,0,0,1,1-1.25c.06,0,9.21-2.66,11.69-4.48C73.82,49.09,74,48.18,74,48.17s1.06-6,1.7-10.5.29-10.33,0-14.47c-.24-3.39-.64-4.24-.66-4.27l-.56-.68a1,1,0,0,0-1-.19l-.14,0a24.58,24.58,0,0,0-4.54,1A4.35,4.35,0,0,0,66,21.53l0,.09-7.7,12.69a5.86,5.86,0,0,1-4.84,3h-7a5.86,5.86,0,0,1-4.84-3L33.87,21.53a4.42,4.42,0,0,0-2.74-2.42,24.58,24.58,0,0,0-4.54-1l-.14,0a.94.94,0,0,0-1,.19l-.62.76h0a17.33,17.33,0,0,0-.61,4.19c-.3,4.14-.62,10.13,0,14.47s1.68,10.42,1.69,10.48.2.94,2.46,2.59C30.81,52.56,40,55.2,40.05,55.23a1.19,1.19,0,0,1,1,1.24,2.18,2.18,0,0,0,0,.25c0,.53-.08,1-1,1.37s-7.72-.33-9.79-.54a2.52,2.52,0,0,1-1.66-1.37c-.44-.84-3.86-5.29-4.21-5.64h0a17.35,17.35,0,0,1-1.76-3.08c-.12-.38-.82-1.93-1.26-2.88l-.05-.21v-.5a8.83,8.83,0,0,0-.47-1.32c-.08,1.37,0,4.14.17,6.66,0,0,.86,7,2.19,9.76s6.31,10.8,6.36,10.88c.15.26,3.6,6.13,3.55,9.44C33,81.72,32.17,82.66,31.59,83Z"/><path fill="red" d="M27.29,54.3a5.46,5.46,0,0,1,.31-3.41l.86.51L28,51.15l.44.24a4.82,4.82,0,0,0-.19,2.77Z"/><path fill="red" d="M72.59,54.26l-1,0a26.6,26.6,0,0,0-.24-3l1-.13A23.9,23.9,0,0,1,72.59,54.26Z"/><path fill="red" d="M63,84l-.3-.59a2.74,2.74,0,0,0-2.28-1.52c-1.81.11-10.28.46-10.36.47h-.19c-.11,0-8.57-.36-10.38-.47a2.75,2.75,0,0,0-2.29,1.52L36.9,84l-.49-.45-2.56-2.34.7-.71,2.09,1.91a3.42,3.42,0,0,1,2.9-1.52c1.8.11,10.25.47,10.34.47H50c.06,0,8.52-.36,10.32-.47a3.39,3.39,0,0,1,2.89,1.52l2.09-1.91.71.71-2.57,2.34Z"/><path fill="red" d="M32,81.67a12,12,0,0,1-2.42-2.08c-.45-.69-3.45-10.46-4.05-12.41l0-.14V65h1V67c1.35,4.41,3.59,11.54,3.91,12.09a11.49,11.49,0,0,0,2.14,1.8Z"/><path fill="red" d="M67.76,82.14l-.57-.83a10.92,10.92,0,0,0,2.15-1.8c.32-.55,2.56-7.67,3.91-12.08v-2h1l0,2.17c-.6,1.95-3.6,11.71-4,12.4A12.09,12.09,0,0,1,67.76,82.14Z"/><path fill="red" d="M50.82,97.5H49.18c-8.22,0-13.83-2.1-17.64-6.6-2.88-3.41-8.46-13.67-8.91-20.2-.36-5.26-2.64-14.34-3.49-17.76-.17-.65-.29-1.13-.34-1.37a22.09,22.09,0,0,0-1.12-3.31l0-.12c-.7-4.48-.63-20.31.94-21.37a3.45,3.45,0,0,0,1.18-1.21,38.66,38.66,0,0,1,4.91-16l.12-.12C33.9,2.39,49.31,2.49,50,2.5h.11c.64,0,16-.11,25.15,6.94l.12.12a38.66,38.66,0,0,1,4.91,16,3.43,3.43,0,0,0,1.18,1.21c1.57,1.06,1.64,16.89.93,21.37l0,.12a23.42,23.42,0,0,0-1.12,3.31c0,.24-.17.72-.34,1.37-.85,3.42-3.13,12.5-3.49,17.76-.45,6.53-6,16.79-8.91,20.2C64.65,95.4,59,97.5,50.82,97.5Zm-.24-1h.23c10.39,0,14.61-3.56,16.88-6.25C70.5,86.93,75.93,77,76.37,70.63c.37-5.34,2.58-14.17,3.52-17.94l.34-1.34a21.68,21.68,0,0,1,1.15-3.42c.85-5.56.33-19.27-.55-20.36a4.12,4.12,0,0,1-1.55-1.69l0-.13a39,39,0,0,0-4.72-15.58C65.68,3.39,50.23,3.5,50.06,3.5h-.12c-.15,0-15.63-.1-24.47,6.67a39,39,0,0,0-4.72,15.58l0,.13a4.23,4.23,0,0,1-1.58,1.72c-.85,1.06-1.37,14.77-.52,20.33a21.68,21.68,0,0,1,1.15,3.42l.34,1.34c.94,3.77,3.15,12.6,3.52,17.94.44,6.33,5.87,16.3,8.68,19.62,2.27,2.69,6.5,6.25,16.88,6.25h1.39Z"/></svg>