<svg xmlns="http://www.w3.org/2000/svg" xmlns:xlink="http://www.w3.org/1999/xlink" version="1.1" x="0px" y="0px" viewBox="0 0 100 125" enable-background="new 0 0 100 100" xml:space="preserve"><path
  fill="#000000"
  d="M81.151,54.636L81.151,54.636l-0.005-0.917c0-0.001,0-0.002,0-0.002c0-0.001,0-0.002,0-0.003l-0.014-0.839  v-0.001v-0.001l-0.014-0.727v-0.001v-0.001l-0.02-0.82c0-0.001,0-0.002-0.001-0.003c0-0.001,0.001-0.001,0.001-0.002l-0.023-0.689  c-0.001-0.019-0.01-0.032-0.013-0.05c-0.005-0.031-0.008-0.061-0.018-0.089c-0.005-0.016-0.009-0.031-0.016-0.046  c-0.005-0.01-0.013-0.018-0.018-0.027c-0.003-0.005-0.005-0.008-0.008-0.012c-0.016-0.028-0.03-0.056-0.052-0.08  c-0.02-0.023-0.044-0.043-0.068-0.062c-0.026-0.021-0.052-0.041-0.082-0.057c-0.011-0.006-0.018-0.016-0.029-0.021l-0.108-0.047  l0.003-0.074l0,0l0.164-2.679c0-0.002-0.001-0.004-0.001-0.007c0-0.002,0.001-0.004,0.001-0.006l0.043-1.177  c0-0.008-0.004-0.016-0.004-0.023c0-0.009,0.004-0.016,0.003-0.024l-0.042-0.689c0-0.001-0.001-0.002-0.001-0.003  c0-0.002,0.001-0.003,0.001-0.004l-0.047-0.628c0-0.001-0.002-0.002-0.002-0.004c0-0.001,0.001-0.002,0.001-0.004l-0.057-0.633  c0-0.001-0.001-0.002-0.001-0.003s0-0.002,0-0.003l-0.041-0.412c0-0.002-0.002-0.003-0.002-0.004c0-0.002,0-0.003,0-0.005  l-0.047-0.39c0-0.005-0.003-0.008-0.004-0.013c0-0.005,0.001-0.009,0-0.013l-0.051-0.3c-0.003-0.014-0.012-0.023-0.015-0.037  c-0.004-0.014-0.001-0.028-0.006-0.042l-0.052-0.149c-0.002-0.004-0.005-0.007-0.006-0.011c-0.002-0.003-0.001-0.006-0.002-0.009  c-0.007-0.018-0.021-0.028-0.029-0.045c-0.014-0.027-0.028-0.055-0.049-0.08c-0.008-0.011-0.015-0.022-0.023-0.032  c-0.018-0.018-0.038-0.029-0.057-0.045c-0.015-0.011-0.023-0.027-0.039-0.037l-0.461-0.291l-0.01-0.275  c0-0.003-0.002-0.006-0.002-0.009c-0.001-0.003,0.001-0.006,0-0.009l-0.049-0.695l0,0l-0.006-0.103c0-0.004-0.002-0.007-0.002-0.01  c0-0.004,0.002-0.007,0.001-0.01l-0.009-0.108c0-0.001,0-0.001,0-0.001l-0.107-1.36c-0.001-0.003-0.003-0.006-0.004-0.01  c0-0.003,0.002-0.006,0.002-0.009l-0.221-1.87l0,0l-0.102-1.044c0-0.001-0.001-0.001-0.001-0.002c0,0,0-0.001,0-0.001l-0.132-1.256  c0,0,0,0,0,0c0,0,0,0,0-0.001l-0.149-1.383c0-0.001-0.001-0.001-0.001-0.002c0-0.001,0-0.001,0-0.002l-0.168-1.444  c0,0-0.001-0.001-0.001-0.002s0-0.001,0-0.002l-0.179-1.434c0,0,0-0.001,0-0.002c0,0,0-0.001,0-0.001l-0.36-2.726  c0-0.001,0-0.001,0-0.002l-0.159-1.229c0,0,0-0.001,0-0.001l-0.108-0.863c0,0,0,0,0,0l-0.083-0.787c0-0.001-0.001-0.001-0.001-0.002  c0-0.001,0.001-0.003,0.001-0.004l-0.127-1.068c-0.001-0.005-0.004-0.009-0.006-0.014c0-0.005,0.002-0.009,0.001-0.014l-0.31-1.748  c-0.002-0.01-0.008-0.018-0.011-0.028s0-0.02-0.003-0.03l-0.478-1.575c-0.017-0.055-0.047-0.103-0.079-0.147  c-0.006-0.01-0.006-0.022-0.012-0.033c-0.004-0.006-0.012-0.01-0.016-0.016c-0.004-0.006-0.004-0.014-0.009-0.02l-0.707-0.951  c-0.007-0.009-0.017-0.013-0.022-0.021c-0.018-0.021-0.039-0.038-0.06-0.056c-0.014-0.011-0.021-0.026-0.036-0.037l-0.918-0.633  c-0.001,0-0.001,0-0.002,0c0,0,0-0.001-0.001-0.001l-1.261-0.857c-0.003-0.002-0.006-0.002-0.01-0.004  c-0.002-0.002-0.004-0.004-0.006-0.006l-2.387-1.491c-0.007-0.004-0.014-0.004-0.02-0.007c-0.007-0.004-0.011-0.01-0.018-0.014  l-2.831-1.453c-0.006-0.003-0.013-0.002-0.019-0.005c-0.006-0.002-0.01-0.008-0.016-0.011l-3.225-1.354  c-0.009-0.003-0.018-0.002-0.025-0.005s-0.014-0.009-0.021-0.012l-3.445-1.068c-0.008-0.002-0.015,0-0.022-0.002  c-0.009-0.002-0.015-0.008-0.022-0.01l-3.605-0.75c-0.006-0.001-0.012,0.001-0.018,0s-0.01-0.004-0.016-0.005l-1.838-0.254  c-0.004,0-0.007,0.001-0.011,0c-0.003,0-0.007-0.002-0.01-0.003l-1.856-0.178c-0.004,0-0.008,0.001-0.012,0.001  c-0.003,0-0.006-0.002-0.009-0.002l-1.875-0.104c-0.005,0-0.009,0.002-0.015,0.002c-0.004,0-0.008-0.003-0.013-0.003h-3.755  c-0.005,0-0.009,0.003-0.015,0.003c-0.004,0-0.008-0.002-0.013-0.002l-1.87,0.104c-0.003,0-0.006,0.002-0.009,0.002  c-0.004,0-0.007-0.001-0.011-0.001l-1.856,0.178c-0.003,0-0.006,0.002-0.01,0.003c-0.004,0-0.007-0.001-0.011,0l-1.842,0.254  c-0.006,0.001-0.01,0.005-0.016,0.006c-0.006,0.001-0.012-0.001-0.018,0l-3.6,0.75c-0.008,0.002-0.014,0.007-0.022,0.009  s-0.016,0-0.024,0.002l-3.45,1.068c-0.008,0.002-0.014,0.009-0.021,0.012s-0.016,0.001-0.024,0.005l-3.226,1.354  c-0.006,0.002-0.01,0.008-0.016,0.011c-0.006,0.003-0.013,0.002-0.02,0.005l-2.826,1.453c-0.007,0.003-0.01,0.01-0.017,0.014  c-0.006,0.003-0.013,0.003-0.02,0.007l-2.386,1.491c-0.002,0.001-0.004,0.004-0.007,0.006s-0.006,0.002-0.009,0.004l-1.261,0.857  c0,0-0.001,0.001-0.001,0.001s0,0-0.001,0l-0.919,0.633c-0.018,0.013-0.028,0.031-0.044,0.046c-0.021,0.019-0.044,0.035-0.061,0.056  c-0.003,0.004-0.008,0.006-0.011,0.01l-0.713,0.951c-0.005,0.007-0.006,0.015-0.01,0.022c-0.005,0.007-0.013,0.012-0.018,0.02  l-0.037,0.062c-0.011,0.018-0.011,0.037-0.019,0.055c-0.009,0.021-0.024,0.036-0.031,0.058L23.899,22.7  c-0.003,0.01,0,0.021-0.003,0.031s-0.009,0.018-0.011,0.029l-0.305,1.748c-0.001,0.005,0.001,0.009,0,0.014  c-0.001,0.004-0.003,0.007-0.004,0.012l-0.131,1.068c0,0.001,0,0.002,0,0.003c0,0.001-0.001,0.002-0.001,0.004L23.361,26.4  c0,0,0,0,0,0l0,0.003v0l-0.001,0.011l-0.1,0.846c0,0,0,0,0,0.001L23.1,28.49c0,0,0,0.001,0,0.002l-0.361,2.726c0,0,0,0,0,0.001  s0,0.001,0,0.001l-0.183,1.434c0,0.001,0,0.002,0,0.004c0,0.001-0.001,0.001-0.001,0.002l-0.164,1.443c0,0.001,0,0.001,0,0.002  l-0.155,1.383c0,0.001,0,0.002,0,0.003c0,0,0,0,0,0.001l-0.131,1.256c0,0,0,0,0,0.001s0,0.001,0,0.002L22.001,37.8l-0.219,1.867  c0,0.003,0.001,0.006,0.001,0.01c0,0.004-0.002,0.007-0.003,0.01l-0.104,1.358l0,0l-0.009,0.113c0,0.003,0.001,0.005,0.001,0.008  s-0.002,0.005-0.002,0.008l-0.004,0.091v0.001l0,0l0,0.011l0,0l-0.051,0.695c0,0.003,0.001,0.007,0.001,0.01  c0,0.003-0.002,0.006-0.002,0.009l-0.009,0.273l-0.464,0.291c-0.019,0.012-0.03,0.03-0.046,0.044  c-0.001,0.001-0.003,0.002-0.005,0.004c-0.017,0.014-0.038,0.022-0.053,0.039c-0.008,0.009-0.012,0.021-0.019,0.029  c-0.021,0.026-0.035,0.055-0.05,0.085c-0.01,0.019-0.025,0.033-0.033,0.054c0,0.001,0,0.001,0,0.002  c0,0.001-0.001,0.002-0.001,0.003l-0.052,0.149c-0.005,0.016-0.002,0.031-0.006,0.046c-0.003,0.015-0.013,0.026-0.015,0.041  l-0.047,0.3c0,0.003,0.001,0.006,0,0.009s-0.002,0.006-0.003,0.009l-0.047,0.39c0,0.002,0,0.003,0,0.005  c0,0.001-0.001,0.002-0.001,0.004l-0.042,0.412c0,0.001,0,0.001,0,0.002s0,0.001,0,0.001l-0.061,0.633c0,0.002,0,0.004,0,0.005  c0,0.002-0.001,0.004-0.001,0.006l-0.047,0.628c0,0.002,0.001,0.004,0,0.005c0,0.002-0.001,0.003-0.001,0.005l-0.038,0.689  c0,0.008,0.003,0.015,0.003,0.022c0,0.007-0.004,0.014-0.003,0.021l0.038,1.177c0,0.002,0.001,0.004,0.001,0.007  c0,0.002-0.001,0.004-0.001,0.007l0.164,2.678l0,0l0.003,0.075l-0.109,0.047c-0.012,0.005-0.02,0.016-0.031,0.021  c-0.031,0.016-0.058,0.036-0.084,0.058c-0.024,0.021-0.047,0.039-0.066,0.062c-0.021,0.024-0.037,0.052-0.052,0.081  c-0.004,0.007-0.009,0.012-0.013,0.019c-0.003,0.006-0.007,0.01-0.01,0.016c-0.007,0.017-0.012,0.032-0.017,0.05  c-0.01,0.029-0.014,0.059-0.018,0.09c-0.002,0.017-0.011,0.03-0.012,0.047l-0.023,0.689c0,0.001,0,0.002,0,0.003  c0,0.002-0.001,0.003-0.001,0.005l-0.014,0.816l0,0l-0.019,0.727c0,0.001,0,0.002,0,0.004c0,0.001,0,0.002,0,0.003l-0.01,0.839  c0,0,0,0,0,0.001l0,0l-0.01,0.919c0,0.001,0,0.001,0,0.002l0,0.001l-0.004,0.984v0.001v0.001v1.021v0.001v0.001l0.004,1.013  c0,0.001,0,0.002,0,0.003s0,0.002,0,0.003l0.015,0.947c0,0.001,0,0.001,0,0.001c0,0.001,0,0.001,0,0.002l0.019,0.844  c0,0.002,0.001,0.004,0.001,0.006c0,0.001,0,0.002,0,0.004l0.028,0.693c0,0.002,0.001,0.003,0.001,0.005c0,0.002,0,0.003,0,0.005  l0.032,0.534c0,0.007,0.004,0.012,0.004,0.018s-0.002,0.012-0.001,0.018l0.047,0.356c0.001,0.012,0.008,0.021,0.011,0.033  c0.002,0.01-0.001,0.021,0.002,0.031l0.047,0.174c0.003,0.011,0.014,0.016,0.017,0.025c0.029,0.087,0.078,0.166,0.153,0.228  c0.007,0.005,0.01,0.013,0.017,0.019c0.002,0.001,0.003,0.004,0.006,0.006l1.822,1.295l0.046,0.693c0,0.005,0.003,0.009,0.003,0.014  c0,0.004-0.001,0.008-0.001,0.013l0.035,0.292l0.022,0.663c0,0.006,0.003,0.01,0.003,0.016c0,0.005-0.002,0.01-0.001,0.016  l0.117,1.219c0,0.004,0.002,0.007,0.003,0.011c0,0.003-0.001,0.006,0,0.01l0.197,1.426c0,0.005,0.004,0.009,0.004,0.014  c0.001,0.004-0.001,0.008,0,0.013l0.286,1.48c0.001,0.004,0.003,0.008,0.004,0.012c0.001,0.003,0,0.007,0,0.011  c0,0.003,0.002,0.005,0.003,0.008c0,0.003,0,0.006,0,0.009l0.394,1.421c0.001,0.004,0.005,0.006,0.006,0.009  c0.001,0.006,0,0.011,0.002,0.017l0.44,1.308c0.001,0.005,0.007,0.007,0.008,0.011c0.003,0.009,0.001,0.017,0.005,0.024l0.432,1.021  c0.001,0.003,0.004,0.004,0.006,0.007c0.002,0.005,0.001,0.011,0.004,0.016l0.782,1.629l0.068,0.289  c0.004,0.018,0.015,0.032,0.021,0.049c0.004,0.013,0.002,0.025,0.008,0.037l0.586,1.341c0.001,0.002,0.003,0.003,0.004,0.005  c0.001,0.003,0.001,0.007,0.002,0.01l0.787,1.654c0.001,0.004,0.005,0.005,0.007,0.008c0.002,0.006,0.002,0.012,0.005,0.017  l0.146,0.268c0,0.001,0.002,0.001,0.002,0.003c0,0,0,0.001,0,0.001l0.097,0.174l0.855,1.583c0.004,0.007,0.012,0.01,0.016,0.016  c0.006,0.011,0.007,0.022,0.014,0.032l1.064,1.532c0.009,0.013,0.024,0.018,0.034,0.03c0.017,0.02,0.027,0.044,0.047,0.062  l1.364,1.191c0.005,0.005,0.012,0.006,0.018,0.011c0.004,0.003,0.006,0.008,0.01,0.011l1.176,0.891  c0.002,0.002,0.005,0.001,0.007,0.002c0.004,0.004,0.006,0.008,0.01,0.011l1.083,0.75c0.001,0.001,0.004,0.001,0.005,0.002  c0.003,0.002,0.004,0.005,0.007,0.007l1.026,0.665c0.002,0.001,0.005,0.001,0.007,0.002c0.003,0.002,0.004,0.005,0.007,0.007  l1.031,0.619c0.002,0.001,0.004,0.001,0.007,0.002c0.002,0.002,0.004,0.004,0.007,0.006l1.135,0.633  c0.001,0.001,0.002,0,0.003,0.001c0.001,0.001,0.002,0.002,0.004,0.003l1.289,0.693c0.001,0,0.002,0,0.003,0.001  c0,0,0.001,0.001,0.001,0.001l1.215,0.638c0.001,0.001,0.001,0.002,0.002,0.002l0.904,0.492c0.002,0.001,0.004,0.001,0.006,0.001  c0.001,0.001,0.002,0.002,0.003,0.003l0.577,0.3c0.012,0.006,0.024,0.004,0.036,0.009c0.017,0.007,0.029,0.02,0.046,0.025  l0.318,0.099c0.02,0.006,0.039,0.005,0.058,0.009c0.012,0.002,0.021,0.01,0.033,0.011l1.336,0.154  c0.006,0.001,0.013,0.001,0.02,0.001c0.001,0,0.002,0.001,0.003,0.001l0.909,0.062c0.004,0,0.008,0,0.012,0l1.082,0.061  c0.001,0,0.002,0,0.003,0s0.002,0.001,0.003,0.001l1.224,0.052c0.003,0,0.007,0,0.01,0l1.312,0.028c0,0,0,0,0.001,0l1.378,0.027  c0.003,0,0.005,0,0.008,0l1.43,0.005c0,0,0.001,0,0.001,0h3.023c0.001,0,0.001,0,0.001,0l1.43-0.005c0.003,0,0.006,0,0.009,0  l1.383-0.027c0.001,0,0.001,0,0.001,0l1.312-0.028c0.004,0,0.007,0,0.01,0l1.219-0.052c0.002,0,0.003-0.001,0.004-0.001  s0.002,0,0.004,0l1.08-0.061c0.004,0,0.008,0,0.012,0l0.91-0.062c0.002,0,0.003-0.001,0.004-0.001c0.007,0,0.014,0,0.02-0.001  l1.34-0.154c0.013-0.001,0.021-0.009,0.033-0.011c0.02-0.004,0.039-0.003,0.058-0.009l0.319-0.099  c0.018-0.006,0.031-0.019,0.048-0.026c0.013-0.005,0.025-0.003,0.037-0.009l0.571-0.3c0.001-0.001,0.002-0.002,0.003-0.002  c0.001-0.001,0.001-0.001,0.003-0.001l0.903-0.489c0.001,0,0.001,0,0.002,0l1.219-0.643c0.001,0,0.001-0.001,0.002-0.002  c0.001,0,0.001,0,0.001,0l1.293-0.693c0.002-0.001,0.002-0.002,0.004-0.003c0.001-0.001,0.002,0,0.004-0.001l1.13-0.633  c0.003-0.001,0.003-0.004,0.006-0.005c0.002-0.001,0.005-0.001,0.007-0.002l1.035-0.619c0.004-0.002,0.006-0.006,0.009-0.008  c0.003-0.001,0.005-0.001,0.007-0.002l1.027-0.665c0.002-0.002,0.004-0.005,0.007-0.007c0.001-0.001,0.004-0.001,0.005-0.002  l1.084-0.75c0.004-0.003,0.006-0.007,0.01-0.011c0.002-0.001,0.005,0,0.007-0.002l1.177-0.891c0.004-0.003,0.006-0.008,0.01-0.012  c0.006-0.004,0.012-0.005,0.018-0.01l1.364-1.191c0.021-0.018,0.03-0.042,0.048-0.062c0.01-0.013,0.024-0.018,0.033-0.03  l1.064-1.532c0.006-0.01,0.008-0.021,0.014-0.031c0.004-0.007,0.012-0.01,0.016-0.017l0.934-1.729h0.001l0.147-0.267l0.016-0.027  l0,0l0.001-0.002c0.003-0.006,0.003-0.013,0.006-0.019c0.002-0.004,0.006-0.005,0.008-0.009l0.788-1.654  c0.002-0.003,0.001-0.006,0.002-0.009c0.002-0.003,0.005-0.004,0.006-0.007l0.581-1.341c0.005-0.013,0.004-0.026,0.009-0.04  c0.006-0.016,0.016-0.029,0.02-0.047l0.066-0.287l0.783-1.629c0.002-0.004,0.001-0.009,0.003-0.014  c0.001-0.003,0.005-0.004,0.006-0.007l0.436-1.021c0.003-0.008,0.002-0.017,0.005-0.024c0.002-0.005,0.008-0.007,0.009-0.012  l0.441-1.308c0.002-0.006,0.001-0.012,0.002-0.018c0.001-0.004,0.005-0.005,0.007-0.009l0.393-1.421  c0.002-0.004,0-0.008,0.002-0.012c0-0.004,0.004-0.007,0.004-0.012l0.014-0.061c0.002-0.004,0-0.007,0-0.011l0.271-1.426  c0.001-0.005-0.001-0.009,0-0.013c0-0.005,0.004-0.008,0.004-0.013l0.196-1.426c0.001-0.004-0.001-0.007-0.001-0.01  c0.001-0.004,0.003-0.007,0.004-0.011l0.117-1.219c0-0.006-0.002-0.011-0.002-0.016c0-0.006,0.004-0.01,0.004-0.016l0.021-0.665  l0.036-0.288c0.001-0.005-0.001-0.009-0.001-0.014s0.004-0.009,0.004-0.015l0.046-0.69l1.825-1.298  c0.003-0.002,0.004-0.005,0.006-0.006c0.008-0.006,0.011-0.014,0.018-0.019c0.075-0.062,0.124-0.141,0.153-0.228  c0.003-0.01,0.015-0.015,0.017-0.025l0.047-0.174c0.004-0.012,0-0.022,0.003-0.034c0.003-0.014,0.01-0.023,0.011-0.037l0.043-0.356  c0-0.004-0.002-0.008-0.002-0.013c0.001-0.004,0.003-0.007,0.004-0.011l0.037-0.534c0.001-0.003-0.001-0.006,0-0.009  c0-0.004,0.002-0.007,0.002-0.01l0.023-0.693l0,0c0-0.001,0-0.002,0-0.003l0.023-0.844c0-0.002-0.001-0.003-0.001-0.005  c0-0.001,0.001-0.003,0.001-0.004l0.009-0.947l0.01-1.013c0-0.001-0.001-0.002-0.001-0.003c0,0,0.001-0.001,0.001-0.002v-1.021  c0-0.001-0.001-0.002-0.001-0.002c0-0.001,0.001-0.002,0.001-0.003L81.151,54.636z M55.033,87.854L55.033,87.854l-1.382,0.027l0,0  l-1.421,0.005h-3.021l-1.421-0.005l0,0l-1.377-0.027l0,0l-0.694-0.015c-0.085-0.081-0.195-0.136-0.321-0.141l-1.153-0.042  c0,0-0.001,0-0.002,0l-1.02-0.055l-0.902-0.079c0,0,0,0,0,0l-0.323-0.038l0.068-0.059c0.001-0.001,0.002-0.001,0.003-0.002  l0.952-0.802l0,0l0.918-0.729l1.043-0.67l0.712-0.055c0.006-0.001,0.012-0.001,0.018-0.001l1.242-0.117c0,0,0,0,0,0l1.376-0.073  c0.002,0,0.004,0,0.006,0l1.542-0.042h1.684l1.547,0.042c0.002,0,0.004,0,0.006,0l1.376,0.073l0,0l1.238,0.117  c0.002,0,0.004,0,0.006,0s0.002,0.001,0.003,0.001l0.728,0.056l1.031,0.666l0.936,0.741l0,0l0.945,0.793l0,0l0.07,0.061  l-0.321,0.038h-0.001l-0.906,0.079l-1.016,0.055c-0.001,0-0.002,0-0.002,0l-1.154,0.042c-0.125,0.005-0.236,0.06-0.32,0.141  L55.033,87.854z M54.629,83.6c-0.004,0-0.008,0.001-0.012,0.001s-0.007-0.003-0.012-0.003l-1.443-0.075  c-0.004,0-0.006,0.001-0.008,0.001c-0.004,0-0.006-0.002-0.008-0.002l-1.557-0.032c-0.001,0-0.003,0.001-0.004,0.001  c-0.002,0-0.004-0.001-0.006-0.001h-1.716c-0.002,0-0.003,0.001-0.005,0.001c-0.001,0-0.003-0.001-0.005-0.001l-1.557,0.032  c-0.003,0-0.005,0.002-0.008,0.002c-0.002,0-0.005-0.001-0.008-0.001l-1.443,0.075c-0.003,0-0.006,0.002-0.01,0.003  c-0.004,0-0.008-0.002-0.013-0.002l-1.173,0.116l-0.571,0.025l-0.048-0.497c0-0.007-0.005-0.013-0.006-0.02s0.002-0.014,0-0.021  l-0.197-1.106c0-0.001,0-0.001,0-0.001c0-0.001,0-0.001,0-0.001l-0.197-1.079l-0.067-0.424l0.327-0.081l1.412-0.208  c0,0,0.001-0.001,0.002-0.001c0.001,0,0.002,0,0.004,0l1.148-0.183c0.002,0,0.004-0.002,0.007-0.003c0.004,0,0.009,0,0.013-0.001  l0.651-0.131c0.013-0.003,0.022-0.012,0.035-0.015c0.036-0.011,0.069-0.025,0.102-0.043c0.023-0.013,0.046-0.023,0.066-0.04  c0.028-0.021,0.052-0.048,0.075-0.076c0.016-0.02,0.034-0.037,0.047-0.059c0.018-0.03,0.028-0.063,0.04-0.097  c0.009-0.026,0.021-0.051,0.025-0.079c0.001-0.006,0.005-0.012,0.006-0.018l0.063-0.486l0.01-0.002l1.423,0.014  c0.002,0,0.003,0,0.005,0h1.401c0.002,0,0.003,0,0.005,0l1.424-0.014l0.01,0.002l0.062,0.485c0.001,0.007,0.005,0.013,0.007,0.02  c0.004,0.027,0.016,0.052,0.024,0.078c0.012,0.033,0.022,0.067,0.04,0.097c0.014,0.022,0.031,0.04,0.049,0.06  c0.023,0.027,0.046,0.054,0.074,0.076c0.021,0.016,0.043,0.026,0.066,0.039c0.033,0.019,0.066,0.033,0.104,0.043  c0.012,0.004,0.021,0.012,0.034,0.015l0.656,0.131c0.004,0.001,0.008,0,0.012,0.001c0.003,0.001,0.005,0.003,0.007,0.003  l1.145,0.183c0.001,0,0.002,0,0.004,0c0,0,0.001,0.001,0.002,0.001l1.414,0.208l0.326,0.081l-0.066,0.432l-0.195,1.071l-0.201,1.106  c-0.001,0.008,0.002,0.015,0.001,0.021c-0.001,0.008-0.006,0.015-0.007,0.022l-0.045,0.495l-0.588-0.026c-0.001,0-0.001,0-0.001,0  L54.629,83.6z M27.196,73.782l-0.003-0.076l0.001,0.002l0.084,0.44l0.003,0.055l-0.069-0.344l0-0.001L27.196,73.782z M28.938,21.945  l2.192-1.26l2.491-1.252l2.587-1.063l2.528-0.729l1.141-0.179c0.001,0,0.003-0.001,0.004-0.001c0.003,0,0.006,0,0.009-0.001  l0.729-0.135l0.109,0.203c0.001,0.001,0.002,0.002,0.003,0.004c0.001,0.002,0.001,0.004,0.002,0.007l0.403,0.712l0,0l0.325,0.585  l0.252,0.687l0.247,0.809l0.221,0.892l0.197,0.963l0.174,1.022v0l0.149,1.102c0,0,0,0,0,0l0.135,1.063  c0,0.002,0.002,0.004,0.002,0.007c0,0.001,0,0.003,0,0.005l0.146,0.961c0.001,0.007,0.006,0.013,0.007,0.021  c0.001,0.007,0,0.014,0.001,0.021l0.169,0.708c0.014,0.058,0.037,0.111,0.068,0.158l0.299,0.459  c0.007,0.011,0.019,0.014,0.026,0.024c0.035,0.046,0.078,0.084,0.126,0.116c0.016,0.01,0.029,0.024,0.046,0.032  c0.063,0.032,0.133,0.053,0.209,0.055l1.481,0.032c0.003,0,0.006,0,0.009,0l1.134,0.005l0,0l1.092,0.014c0,0,0,0,0,0l2.058,0.047  c0.004,0,0.008,0,0.011,0h1.997c0.004,0,0.008,0,0.012,0l2.057-0.047c0,0,0,0,0.001,0l1.091-0.014l0,0l1.131-0.005  c0.003,0,0.006,0,0.009,0l1.48-0.032c0.075-0.002,0.146-0.022,0.208-0.054c0.018-0.008,0.029-0.021,0.045-0.032  c0.05-0.031,0.092-0.068,0.127-0.115c0.008-0.009,0.02-0.013,0.026-0.023l0.305-0.46c0,0,0,0,0.001-0.001  c0.031-0.047,0.055-0.101,0.068-0.159l0.169-0.708c0.002-0.007-0.001-0.014,0.001-0.021c0.002-0.008,0.006-0.014,0.008-0.022  l0.141-0.961c0-0.001-0.001-0.002,0-0.003c0-0.001,0-0.002,0-0.003l0.141-1.064c0,0,0-0.001,0-0.001l0.15-1.102c0,0,0,0,0-0.001  l0.168-1.021l0.199-0.969l0.219-0.884l0.246-0.808l0.258-0.689l0.322-0.586l0,0l0.402-0.712c0.002-0.001,0.002-0.003,0.002-0.005  c0.001-0.001,0.002-0.001,0.002-0.002l0.113-0.207l0.73,0.135c0.003,0,0.006,0,0.01,0.001c0.001,0,0.002,0.001,0.004,0.001  l1.141,0.179l2.523,0.729l2.596,1.065l2.479,1.249l2.201,1.262l1.502,0.935l0.454,0.41c-0.017,0.019-0.023,0.041-0.036,0.061  c-0.016,0.024-0.037,0.044-0.049,0.072l-0.149,0.36c-0.002,0.005-0.001,0.01-0.003,0.015s-0.006,0.008-0.008,0.013l-0.143,0.415  l-0.198,0.445c-0.009,0.019-0.007,0.038-0.013,0.057c-0.006,0.019-0.018,0.033-0.021,0.053l-0.117,0.614c0,0.003,0,0.007,0,0.01  c0,0.004-0.003,0.006-0.004,0.01l-0.104,0.688c0,0.001,0.001,0.002,0,0.003c0,0.001,0,0.002,0,0.003l-0.104,0.755  c0,0.001,0.001,0.002,0.001,0.004c-0.001,0.001-0.001,0.002-0.001,0.004l-0.1,0.825c0,0,0,0.001,0,0.001c0,0,0,0,0,0l-0.103,0.881  l0,0l-0.116,0.93c-0.001,0-0.001,0-0.001,0.001l-0.126,0.976v0l-0.145,1.014l-0.162,1.046v0l-0.188,1.106l0,0l-0.209,1.131v0  l-0.226,1.188c0,0.001,0,0.001,0,0.002c0,0-0.001,0.001-0.001,0.001l-0.225,1.233c0,0.001,0.001,0.003,0,0.004  c0,0.001-0.001,0.002-0.001,0.004l-0.211,1.284c-0.001,0.002,0.001,0.004,0,0.007c0,0.003-0.002,0.005-0.003,0.008l-0.178,1.331  c0,0.008,0.002,0.015,0.002,0.022s-0.005,0.013-0.006,0.021l-0.061,1.27l-0.271,2.575l-0.994,0.256H70.19l-1.267,0.327l-2.471,0.572  l-2.779,0.564l-2.953,0.505c-0.001,0-0.002,0.001-0.002,0.001l-2.945,0.397l0,0l-2.832,0.258l0,0l-2.581,0.134h-3.281l-2.578-0.134  l0,0l-2.836-0.258l0,0l-2.945-0.397c0,0-0.001-0.001-0.001-0.001l-2.954-0.505l-2.778-0.565l-2.469-0.57l0,0l-1.27-0.328h0  l-0.987-0.256l-0.28-2.579l-0.055-1.264c0-0.008-0.005-0.015-0.005-0.022c-0.001-0.008,0.002-0.016,0.001-0.024l-0.183-1.331  c0-0.002-0.001-0.003-0.002-0.005c0-0.002,0.001-0.004,0-0.007l-0.207-1.284c0-0.002-0.001-0.003-0.002-0.005s0-0.004,0-0.006  l-0.229-1.233c0,0,0-0.001,0-0.001l0,0l-0.224-1.188c0,0,0,0,0-0.001l-0.211-1.139c0,0,0,0,0,0l-0.18-1.09c0,0,0,0,0-0.001  l-0.163-1.054l-0.145-1.018l0,0l-0.131-0.969l-0.112-0.932c0,0,0,0,0-0.001L28.03,27.7c0,0,0,0,0,0s0-0.001,0-0.001l-0.099-0.825  c0-0.001-0.001-0.002-0.001-0.004c0-0.001,0-0.003,0-0.004l-0.104-0.755c0-0.001-0.001-0.003-0.001-0.005c0-0.001,0-0.003,0-0.004  l-0.107-0.688c0-0.002-0.002-0.004-0.002-0.007c0-0.002,0-0.004,0-0.006l-0.112-0.614c-0.004-0.021-0.017-0.037-0.022-0.057  c-0.006-0.02-0.005-0.041-0.014-0.061l-0.201-0.441l-0.137-0.411c-0.002-0.006-0.007-0.01-0.009-0.016  c-0.002-0.006-0.001-0.013-0.003-0.019l-0.15-0.36c-0.011-0.027-0.032-0.045-0.047-0.069c-0.013-0.021-0.021-0.043-0.037-0.063  l0.455-0.41L28.938,21.945z M45.723,19.81L45.723,19.81l1.497-0.199l1.686-0.16h3.632l1.685,0.16l1.493,0.199h0.001l1.387,0.218  l-0.093,0.902l-1.448,0.033l0,0l-1.508,0.027l-1.641-0.047c-0.002,0-0.004,0.001-0.007,0.001s-0.005-0.001-0.007-0.001h-3.356  c-0.002,0-0.004,0.001-0.007,0.001s-0.005-0.001-0.007-0.001l-1.642,0.047l-1.512-0.027l0,0l-1.443-0.033l-0.093-0.903L45.723,19.81  z M45.854,21.963c0.001,0,0.001,0,0.002,0l1.528,0.027c0.003,0,0.005,0,0.008,0h0c0.005,0,0.009,0,0.014,0l1.65-0.047h3.329  l1.648,0.047c0.006,0,0.01,0,0.015,0h0.001c0.002,0,0.005,0,0.008,0l1.523-0.027c0.001,0,0.002,0,0.002,0l1.207-0.027L56.66,22.51  c-0.001,0.006,0.001,0.012,0,0.018s-0.005,0.01-0.006,0.016l-0.107,0.694c0,0.002,0.001,0.005,0,0.008  c0,0.002-0.002,0.004-0.002,0.007l-0.094,0.749l-0.115,0.792c0,0.001,0,0.001,0,0.002c0,0.001-0.002,0.002-0.002,0.003L56.227,25.6  c-0.001,0.003,0,0.007,0,0.011c0,0.003-0.002,0.005-0.002,0.009l-0.059,0.608l-0.11,0.162l-0.55-0.003c-0.001,0-0.002,0-0.003,0  h-0.966c-0.001,0-0.002,0-0.002,0l-0.98,0.005c0,0-0.002,0-0.003,0s-0.003,0-0.004,0l-0.946,0.019l0,0l-0.938,0.01h-1.883  l-0.938-0.01l0,0l-0.947-0.019c-0.002,0-0.005,0-0.007,0l-0.979-0.005c-0.001,0-0.001,0-0.002,0H45.94c-0.001,0-0.002,0-0.003,0  l-0.555,0.003l-0.109-0.16l-0.054-0.607c0-0.004-0.003-0.007-0.003-0.011c0-0.004,0.001-0.007,0-0.011l-0.107-0.802  c0-0.001-0.001-0.002-0.001-0.003c0,0,0-0.001,0-0.002l-0.116-0.795l-0.099-0.749c0-0.002-0.001-0.003-0.002-0.005  c0-0.002,0.001-0.004,0-0.006l-0.107-0.694c-0.001-0.006-0.005-0.01-0.006-0.016s0.001-0.012,0-0.018l-0.13-0.574L45.854,21.963z   M30.998,44.963C30.998,44.963,30.998,44.963,30.998,44.963l1.271,0.328c0.003,0.001,0.006,0,0.009,0.001  c0.001,0.001,0.002,0.002,0.004,0.002l2.494,0.576c0.002,0.001,0.005,0,0.008,0.001c0.002,0,0.003,0.002,0.005,0.002l2.789,0.567  c0.003,0.001,0.007,0,0.01,0.001c0.001,0,0.003,0.002,0.005,0.002l2.958,0.506c0.005,0.001,0.01,0,0.016,0.001  c0,0,0.001,0.001,0.002,0.001l2.985,0.403c0.005,0.001,0.01,0.001,0.016,0.001c0.002,0,0.003,0.002,0.006,0.002l2.836,0.258  c0.006,0,0.013,0,0.019,0.001c0,0,0,0,0,0l2.616,0.136c0.009,0.001,0.017,0.001,0.026,0.001l0,0h3.295l0,0  c0.009,0,0.018,0,0.025-0.001l2.621-0.136l0,0c0.006-0.001,0.013-0.001,0.02-0.001l2.83-0.258c0.003,0,0.004-0.002,0.006-0.002  c0.006,0,0.011,0,0.016-0.001l2.986-0.403c0.001,0,0.002-0.001,0.002-0.001c0.006-0.001,0.011,0,0.016-0.001l2.959-0.506  c0.002,0,0.003-0.002,0.004-0.002c0.004-0.001,0.008,0,0.011-0.001l2.794-0.567c0.002,0,0.003-0.002,0.005-0.002  c0.003-0.001,0.005,0,0.009-0.001l2.488-0.576c0.001,0,0.002-0.002,0.004-0.002c0.002-0.001,0.005,0,0.008-0.001l1.271-0.328h0.001  l0.8-0.206l0.011,0.07l0.053,0.769l-0.119,0.022c-0.003,0.001-0.005,0.002-0.008,0.003c-0.002,0-0.005-0.001-0.008,0l-1.082,0.234  c-0.002,0-0.003,0-0.004,0l-1.439,0.323c0,0-0.001,0.001-0.002,0.001l-1.447,0.303h-0.001L65.6,46.777l0,0l-1.971,0.299  c0,0-0.001,0-0.002,0l-2.244,0.295c-0.001,0-0.002,0-0.002,0l-2.311,0.244l-2.58,0.104c-0.002,0-0.004,0.002-0.006,0.002  s-0.004-0.001-0.006-0.001l-0.895,0.057c-0.003,0-0.005,0.002-0.008,0.002c-0.002,0-0.004-0.001-0.006-0.001l-1.138,0.103  l-1.384,0.078l0,0l-1.551,0.037h-1.556l-1.547-0.037h0l-1.388-0.078l-1.139-0.103c-0.002,0-0.004,0.001-0.007,0.001  c-0.002,0-0.004-0.002-0.006-0.002l-0.891-0.057c-0.002,0-0.003,0.001-0.005,0.001s-0.004-0.002-0.006-0.002l-2.579-0.104  l-2.31-0.244c0,0-0.001,0-0.001,0l-2.25-0.295c0,0-0.001,0-0.002,0l-1.966-0.299l0,0l-1.594-0.295c0,0,0,0-0.001,0l-1.448-0.303  c-0.001,0-0.001-0.001-0.002-0.001l-1.444-0.323c-0.001,0-0.002,0-0.003,0l-1.083-0.234c-0.002,0-0.004,0-0.006,0  c-0.003-0.001-0.005-0.002-0.007-0.003l-0.116-0.021l0.052-0.772l0.012-0.067L30.998,44.963z M70.14,66.033l-1.068,2.024  c-0.001,0.001,0,0.001-0.001,0.002L68.088,69.9l0,0l-0.719,1.238l-0.736,1.131l-0.307,0.41l-0.014-0.273l0.061-0.623l0.105-0.628  l0.166-0.624l0.242-0.651l0.311-0.651l0.399-0.686l0.472-0.691l0.555-0.709l0.6-0.719l0.723-0.773c0,0,0,0,0.001,0l0.708-0.747  c0.008-0.008,0.01-0.019,0.018-0.027c0.009-0.008,0.021-0.011,0.03-0.02c0.003-0.002,0.003-0.006,0.005-0.008  s0.006-0.003,0.008-0.005l0.033-0.036L70.14,66.033z M65.436,81.29l-1.16,1.026l-1.463,1.167l-1.049-0.928  c0-0.001,0-0.002-0.001-0.002l-2.273-2.053c-0.004-0.004-0.009-0.005-0.014-0.008c-0.005-0.004-0.007-0.01-0.011-0.014l-0.957-0.755  c-0.011-0.009-0.024-0.011-0.035-0.019c-0.009-0.005-0.014-0.014-0.023-0.019l0.049-0.12c0.005-0.012,0.003-0.024,0.007-0.036  c0.005-0.016,0.015-0.028,0.019-0.045l0.258-1.192l0.445-1.503c0-0.001,0-0.003,0-0.004l0.001-0.001l0.427-1.486  c0-0.002,0-0.003,0-0.005c0.001-0.001,0.002-0.002,0.002-0.003l0.175-0.647l0.143,0.298c0.001,0.002,0.003,0.002,0.003,0.004  c0.001,0.002,0.001,0.004,0.002,0.006l0.507,1.003c0.001,0.003,0.004,0.003,0.005,0.006c0.002,0.004,0.002,0.007,0.004,0.011  l0.571,1.031c0.003,0.005,0.009,0.007,0.011,0.012c0.004,0.006,0.004,0.014,0.008,0.02l0.344,0.525c0,0.001,0,0.001,0.001,0.002  l0.343,0.534c0.004,0.005,0.01,0.007,0.013,0.012c0.004,0.006,0.005,0.014,0.009,0.02c0.031,0.04,0.072,0.062,0.111,0.091  c0.021,0.016,0.037,0.039,0.061,0.051c0.072,0.036,0.148,0.057,0.229,0.057c0.092,0,0.186-0.025,0.27-0.079  c0.007-0.005,0.01-0.012,0.017-0.017c0.005-0.003,0.01-0.002,0.015-0.005l0.459-0.347l0,0l0.936-0.702  c0.004-0.003,0.006-0.009,0.011-0.012c0.005-0.004,0.011-0.005,0.015-0.009l0.877-0.75c0.001-0.001,0.001-0.002,0.002-0.003  c0.001,0,0.002,0,0.002-0.001l0.756-0.661c0.001-0.002,0.002-0.004,0.004-0.005c0-0.001,0-0.001,0.001-0.001l0.036,0.092  l0.373,1.034c0,0,0,0,0,0.001l0,0l0.838,2.305l0.172,0.59l-0.519,0.533l-0.001,0.001L65.436,81.29z M55.374,79.01  c-0.004-0.001-0.007,0.001-0.011,0c-0.004,0-0.006-0.003-0.01-0.003l-1.172-0.146l-0.026-0.398  c-0.001-0.006-0.004-0.011-0.005-0.018c0-0.006,0.002-0.012,0.002-0.018l-0.02-0.136c0-0.004-0.002-0.007-0.003-0.01  c-0.007-0.043-0.025-0.082-0.043-0.122c-0.009-0.02-0.012-0.042-0.022-0.061c-0.018-0.026-0.043-0.047-0.064-0.071  c-0.023-0.024-0.042-0.052-0.068-0.071c-0.004-0.002-0.005-0.006-0.008-0.008l-0.094-0.065c-0.01-0.007-0.021-0.008-0.031-0.014  c-0.028-0.018-0.059-0.028-0.091-0.04c-0.032-0.011-0.063-0.021-0.097-0.026c-0.012-0.001-0.021-0.008-0.033-0.009l-0.141-0.01l0,0  l0,0l-0.272-0.019c-0.005,0-0.009,0.002-0.014,0.002c-0.004-0.001-0.007-0.003-0.012-0.003l-1.654-0.028  c-0.002,0-0.003,0.001-0.005,0.001s-0.002-0.001-0.004-0.001h-1.514c-0.001,0-0.002,0.001-0.004,0.001s-0.003-0.001-0.005-0.001  l-1.655,0.028c-0.004,0-0.007,0.002-0.012,0.003c-0.005,0-0.009-0.003-0.014-0.002l-0.267,0.019l-0.141,0.01  c-0.012,0.001-0.022,0.008-0.034,0.01c-0.032,0.004-0.062,0.015-0.094,0.025c-0.033,0.012-0.064,0.022-0.093,0.04  c-0.01,0.006-0.021,0.007-0.031,0.014l-0.094,0.065c-0.004,0.003-0.006,0.008-0.01,0.011c-0.025,0.019-0.042,0.044-0.064,0.066  c-0.022,0.024-0.048,0.045-0.065,0.072c-0.014,0.022-0.019,0.051-0.029,0.075c-0.014,0.035-0.032,0.068-0.038,0.105  c0,0.004-0.002,0.006-0.003,0.009l-0.02,0.136c-0.001,0.007,0.002,0.013,0.001,0.02c0,0.007-0.004,0.013-0.005,0.02l-0.026,0.398  l-1.172,0.146c-0.003,0-0.006,0.003-0.01,0.003c-0.003,0.001-0.007-0.001-0.01,0l-1.528,0.253c0,0,0,0-0.001,0l-0.608,0.091  l-0.047-0.118l-0.249-1.172c-0.001-0.007-0.006-0.013-0.008-0.02s0-0.014-0.002-0.021l-0.454-1.518l-0.418-1.474l0,0l-0.303-1.126  l0.479-0.084l1.902-0.22l2.358-0.134l2.596-0.052h1.869l2.6,0.052l2.359,0.134l0.891,0.103l0.354,0.046c0.004,0,0.006,0,0.01,0.001  c0,0,0,0,0.001,0l0.593,0.064l0.054,0.006l0.479,0.084l-0.303,1.126v0.001l-0.423,1.471c0,0.001-0.001,0.001-0.001,0.002  l-0.45,1.519c-0.002,0.007,0,0.014-0.002,0.02c-0.001,0.007-0.006,0.011-0.007,0.018l-0.254,1.173l-0.049,0.119l-0.607-0.091  c0,0,0,0-0.001,0L55.374,79.01z M37.151,82.306l-1.133-1.005l-1.038-1.02c0,0,0,0-0.001-0.001l-0.513-0.523l0.176-0.594l0.833-2.303  l0.373-1.034l0.037-0.095c0.001,0.001,0.003,0.002,0.004,0.003s0.002,0.004,0.004,0.005l0.75,0.661  c0.001,0.001,0.002,0.001,0.003,0.002s0.001,0.003,0.003,0.004l0.881,0.75c0.004,0.004,0.01,0.005,0.014,0.008  c0.004,0.004,0.005,0.008,0.009,0.011l0.933,0.703l0.46,0.347c0.004,0.003,0.009,0.002,0.013,0.005  c0.006,0.004,0.009,0.011,0.016,0.015c0.084,0.055,0.178,0.081,0.271,0.081c0.079,0,0.156-0.021,0.227-0.057  c0.024-0.012,0.041-0.035,0.062-0.052c0.038-0.027,0.08-0.051,0.11-0.091c0.004-0.006,0.005-0.013,0.008-0.018  s0.009-0.006,0.012-0.011l0.347-0.534c0,0,0-0.001,0-0.001l0.345-0.528c0.004-0.007,0.004-0.015,0.008-0.021  c0.002-0.005,0.008-0.006,0.01-0.011l0.572-1.031c0.002-0.003,0.001-0.007,0.003-0.01c0.001-0.003,0.004-0.004,0.006-0.007  l0.506-1.003c0.001-0.002,0.001-0.004,0.002-0.006c0-0.002,0.002-0.002,0.003-0.004l0.143-0.299l0.175,0.648  c0,0.001,0.001,0.001,0.001,0.002c0,0.002,0,0.003,0,0.005l0.422,1.486c0,0.001,0.001,0.001,0.001,0.002c0,0.002,0,0.003,0,0.005  l0.448,1.498l0.253,1.194c0.003,0.017,0.014,0.03,0.019,0.046c0.004,0.013,0.002,0.024,0.007,0.037l0.049,0.122  c-0.007,0.005-0.012,0.013-0.02,0.018c-0.011,0.007-0.023,0.009-0.034,0.017l-0.961,0.755c-0.005,0.004-0.007,0.01-0.012,0.014  c-0.004,0.004-0.01,0.005-0.015,0.009l-2.269,2.053c0,0,0,0.001-0.001,0.001l-1.051,0.927L37.151,82.306z M32.368,68.061  c0-0.001,0-0.002,0-0.002l-1.063-2.025l-0.615-1.232l0.034,0.036l0,0l0.051,0.057c0.002,0.002,0.004,0.003,0.006,0.005  s0.002,0.005,0.004,0.007l0.718,0.75h0l0.713,0.764l0.6,0.719l0.559,0.721l0.47,0.689l0.396,0.678l0.318,0.659l0.235,0.645  l0.172,0.629l0.105,0.622l0.056,0.624l-0.014,0.271l-0.302-0.407l-0.74-1.136l-0.715-1.225L32.368,68.061z M37.566,51.136  l-1.383,0.047h-0.889l-0.844-0.075l-0.645-0.114l0.011,0.001c0.001,0,0.003,0,0.005,0l0.773,0.093c0.01,0.001,0.02,0.001,0.03,0.002  c0.001,0,0.002,0.001,0.004,0.001l0.815,0.042c0.009,0.001,0.017,0.001,0.026,0.001l0,0h0.854c0.003,0,0.006,0,0.009,0l1.284-0.023  c0.001,0,0.001-0.001,0.002-0.001c0.003,0,0.007,0,0.01,0l1.002-0.044L37.566,51.136z M31.132,46.831  c0.001,0,0.002,0.001,0.003,0.001l0.529,0.118l-0.838-0.117c-0.002,0-0.004,0.001-0.007,0c-0.002,0-0.004-0.002-0.007-0.002  l-0.511-0.057c-0.013-0.001-0.024,0.004-0.038,0.004c-0.038-0.001-0.074,0.005-0.112,0.012c-0.024,0.005-0.047,0.009-0.07,0.017  c-0.038,0.013-0.071,0.033-0.106,0.056c-0.021,0.014-0.042,0.026-0.061,0.043c-0.012,0.011-0.027,0.016-0.038,0.027l-0.112,0.122  c-0.015,0.017-0.021,0.037-0.033,0.054c-0.012,0.017-0.028,0.027-0.038,0.046l-0.032,0.06l0.228-0.646l0.175,0.032L31.132,46.831z   M74.713,56.51L74.713,56.51l-0.064,0.188l0,0L74.32,57.61l-0.449,1.1l-1.073,1.995l-0.22,0.323l0,0l-0.418,0.596l0,0l-0.662,0.86  l-0.744,0.853l-0.443,0.474l-0.32,0.344l-0.052,0.052c-0.002,0.002-0.002,0.004-0.004,0.006c-0.001,0.002-0.004,0.002-0.005,0.004  l-0.713,0.75c0,0,0,0.001,0,0.002c-0.001,0-0.002,0-0.002,0.001l-0.727,0.778c-0.004,0.004-0.005,0.009-0.008,0.013  c-0.004,0.003-0.008,0.004-0.01,0.008l-0.619,0.74c-0.002,0.002-0.003,0.005-0.004,0.007c-0.002,0.003-0.005,0.004-0.007,0.006  l-0.572,0.731c-0.003,0.004-0.004,0.01-0.007,0.015c-0.004,0.005-0.01,0.007-0.013,0.012L66.757,68  c-0.003,0.005-0.003,0.01-0.007,0.015c-0.003,0.006-0.009,0.009-0.012,0.015l-0.412,0.708c-0.004,0.007-0.004,0.015-0.008,0.021  c-0.003,0.006-0.009,0.01-0.012,0.016l-0.333,0.698c-0.003,0.007-0.003,0.015-0.005,0.021c-0.004,0.007-0.01,0.012-0.013,0.02  l-0.258,0.693c-0.003,0.008-0.001,0.016-0.004,0.023c-0.003,0.009-0.009,0.015-0.011,0.022l-0.178,0.671  c-0.002,0.008,0,0.015-0.002,0.022c-0.001,0.008-0.006,0.014-0.008,0.021l-0.112,0.661c-0.001,0.007,0.001,0.013,0.001,0.019  c-0.001,0.006-0.005,0.011-0.006,0.017l-0.066,0.684c-0.001,0.013,0.004,0.024,0.004,0.037s-0.006,0.024-0.006,0.038l0.055,1.049  l-0.053,0.656c0,0,0,0,0,0.001l0,0l-0.041,0.505l-0.392,0.364l0,0l-0.739,0.647l0,0l-0.863,0.738l-0.926,0.694l0,0  c-0.001,0.001-0.001,0.001-0.002,0.001l-0.027,0.021l-0.052-0.08c-0.001-0.001-0.001-0.001-0.002-0.002s-0.001-0.001-0.001-0.001  l-0.335-0.513l-0.56-1.01l-0.498-0.986l-0.458-0.959c-0.003-0.007-0.009-0.011-0.013-0.017c-0.016-0.029-0.038-0.053-0.059-0.078  c-0.022-0.027-0.042-0.055-0.068-0.076c-0.005-0.004-0.008-0.011-0.014-0.015l-0.346-0.258c-0.006-0.004-0.011-0.004-0.016-0.007  c-0.025-0.019-0.057-0.027-0.086-0.041c-0.023-0.01-0.042-0.026-0.067-0.033c-0.002,0-0.003,0-0.005,0  c-0.008-0.002-0.016-0.002-0.024-0.004c-0.005-0.001-0.009-0.005-0.015-0.006l-1.046-0.183c-0.005-0.001-0.009,0.001-0.013,0  c-0.006-0.001-0.01-0.004-0.016-0.005l-1.035-0.12l-0.229-0.029c-0.002,0-0.004,0.001-0.006,0c-0.002,0-0.002-0.001-0.004-0.001  l-0.572-0.063l-0.062-0.007c-0.001,0-0.001,0-0.001,0h-0.002c-0.005,0-0.009,0.002-0.014,0.001c-0.004,0-0.008-0.003-0.013-0.003  l-2.4-0.136c-0.003,0-0.006,0.001-0.009,0.001c-0.004,0-0.006-0.002-0.01-0.002l-2.602-0.052c-0.002,0-0.003,0.001-0.005,0.001  c-0.001,0-0.003-0.001-0.005-0.001h-1.889c-0.002,0-0.003,0.001-0.005,0.001c-0.002,0-0.003-0.001-0.005-0.001l-2.598,0.052  c-0.003,0-0.006,0.002-0.009,0.002s-0.006-0.001-0.009-0.001l-2.399,0.136c-0.005,0-0.008,0.003-0.013,0.004  c-0.006,0-0.011-0.003-0.017-0.002l-1.908,0.221c-0.005,0.001-0.01,0.004-0.015,0.005c-0.004,0.001-0.009-0.001-0.013,0  l-1.045,0.183c-0.005,0.001-0.008,0.004-0.013,0.005c-0.009,0.002-0.019,0.002-0.028,0.005c-0.001,0-0.002,0-0.003,0  c-0.021,0.006-0.036,0.02-0.055,0.027c-0.006,0.002-0.011,0.005-0.017,0.008c-0.028,0.013-0.057,0.021-0.082,0.039  c-0.004,0.003-0.01,0.003-0.015,0.007l-0.347,0.258c-0.005,0.004-0.008,0.011-0.013,0.015c-0.027,0.021-0.047,0.05-0.069,0.077  c-0.021,0.025-0.043,0.048-0.058,0.077c-0.003,0.006-0.01,0.01-0.013,0.017l-0.459,0.959l-0.502,0.995l0,0L39.514,76.5l-0.339,0.518  c0,0,0,0.001-0.001,0.001l-0.055,0.084l-0.032-0.023l-0.918-0.692l-0.872-0.742c0,0,0,0-0.001,0l-0.743-0.655h0l-0.386-0.356  l-0.041-0.504l-0.053-0.656l0.054-1.051c0-0.013-0.005-0.023-0.005-0.035c0-0.012,0.005-0.022,0.004-0.034l-0.061-0.684  c0-0.007-0.005-0.012-0.005-0.019c-0.001-0.008,0.001-0.014,0-0.021l-0.112-0.661c-0.001-0.009-0.007-0.015-0.009-0.023  c-0.001-0.009,0-0.017-0.001-0.024l-0.184-0.671c-0.002-0.007-0.007-0.012-0.01-0.02c-0.002-0.006,0-0.013-0.003-0.02l-0.253-0.693  c-0.003-0.008-0.01-0.014-0.013-0.021c-0.004-0.008-0.003-0.017-0.007-0.025l-0.337-0.698c-0.003-0.007-0.009-0.01-0.013-0.017  c-0.003-0.006-0.002-0.012-0.006-0.018L34.7,68.029c-0.003-0.005-0.009-0.008-0.012-0.014c-0.003-0.005-0.003-0.011-0.007-0.016  l-0.492-0.722c-0.003-0.004-0.008-0.006-0.011-0.011c-0.003-0.004-0.004-0.01-0.007-0.015l-0.567-0.731  c-0.002-0.003-0.005-0.004-0.007-0.006c-0.002-0.003-0.002-0.006-0.004-0.008l-0.618-0.74c-0.003-0.004-0.008-0.005-0.011-0.009  c-0.003-0.003-0.004-0.008-0.007-0.012l-0.727-0.778c0-0.001-0.001-0.001-0.002-0.002s-0.001-0.002-0.002-0.003l-0.718-0.75  c-0.007-0.007-0.016-0.01-0.022-0.016c-0.007-0.009-0.01-0.021-0.018-0.029c-0.002-0.002-0.004-0.003-0.006-0.005  c-0.001-0.001-0.002-0.003-0.003-0.005l-0.333-0.352c0,0,0,0,0,0l-0.436-0.473l-0.739-0.844l-0.677-0.874l-0.407-0.587  c0,0,0,0,0-0.001l-0.224-0.323l-1.07-1.995l-0.45-1.101l-0.329-0.917c0-0.001-0.001-0.002-0.002-0.003s0-0.003,0-0.004l-0.068-0.181  l-0.097-0.3l0.042,0.04c0,0,0,0.001,0.001,0.001l0.398,0.375c0.001,0.001,0.002,0.001,0.003,0.002s0.001,0.002,0.002,0.003  l0.436,0.398c0,0,0,0,0.001,0.001l0.454,0.426h0l0.468,0.45l1.06,1.018h0c0,0.001,0,0.001,0,0.001l0.619,0.591l0,0  c0,0.001,0.001,0.001,0.001,0.002l0.703,0.665l0,0l0.758,0.721c0,0.001,0.001,0.001,0.002,0.001l0.777,0.755  c0.001,0.001,0.001,0.001,0.001,0.002l0.795,0.81l0.782,0.847l0.75,0.861l0,0l0.72,0.876l0,0l0.702,0.896l0.663,0.896l0.623,0.902  l0,0l0.572,0.887l0.525,0.892l0.468,0.897l0.411,0.842l0.333,0.735c0.084,0.185,0.266,0.294,0.456,0.294  c0.069,0,0.139-0.015,0.206-0.045c0.251-0.113,0.363-0.41,0.249-0.661l-0.338-0.745c-0.001-0.002-0.003-0.004-0.004-0.006  c-0.001-0.003-0.001-0.005-0.002-0.008l-0.417-0.854c-0.001-0.002-0.003-0.003-0.004-0.005s-0.001-0.005-0.002-0.007l-0.474-0.909  c-0.002-0.004-0.006-0.007-0.009-0.011c-0.002-0.004-0.002-0.008-0.004-0.012l-0.539-0.914c-0.002-0.003-0.005-0.005-0.007-0.008  c-0.001-0.003-0.001-0.006-0.003-0.009l-0.586-0.909c-0.001-0.002-0.004-0.003-0.005-0.006c-0.001-0.002-0.001-0.005-0.003-0.008  l-0.628-0.909c-0.001-0.002-0.004-0.004-0.006-0.006c-0.001-0.002-0.001-0.006-0.003-0.008l-0.67-0.905  c-0.001-0.002-0.004-0.003-0.005-0.005s-0.001-0.004-0.003-0.006l-0.708-0.904c-0.001-0.002-0.003-0.002-0.005-0.004  c-0.001-0.002-0.001-0.004-0.002-0.005l-0.736-0.896c-0.001-0.002-0.003-0.002-0.005-0.004c-0.002-0.002-0.002-0.005-0.004-0.007  l-0.759-0.872c-0.001-0.002-0.004-0.003-0.006-0.005c-0.002-0.002-0.002-0.005-0.004-0.007l-0.788-0.853  c-0.002-0.002-0.004-0.003-0.006-0.005c-0.001-0.002-0.002-0.004-0.004-0.006l-0.801-0.815c-0.002-0.002-0.004-0.003-0.006-0.004  c-0.001-0.001-0.001-0.003-0.002-0.004l-0.793-0.77c0,0-0.001,0-0.001-0.001c-0.001-0.001-0.001-0.002-0.002-0.003l-0.759-0.722h0  l0-0.001l-0.703-0.665c0,0-0.001-0.001-0.002-0.001l-0.616-0.588l0,0l-1.059-1.017l-0.473-0.454c0-0.001-0.001-0.001-0.002-0.001  c-0.001-0.001-0.001-0.002-0.002-0.003l-0.46-0.432c0-0.001-0.001-0.001-0.002-0.002s-0.001-0.002-0.002-0.003l-0.43-0.394l0,0  l-0.398-0.375c0,0-0.001-0.001-0.001-0.001l0,0l-0.366-0.342c-0.194-0.181-0.491-0.174-0.682,0.007l-0.185-0.64l-0.007-0.123  c0.062,0.027,0.125,0.043,0.187,0.043c0.001,0,0.001-0.001,0.002-0.001c0.006,0,0.011,0.004,0.017,0.004  c0.107,0,0.215-0.034,0.307-0.105l0.066-0.052c0.06-0.047,0.101-0.104,0.129-0.165c0.004-0.008,0.013-0.011,0.017-0.019l0.065-0.141  c0.01-0.021,0.009-0.043,0.016-0.064c0.003-0.01,0.014-0.014,0.016-0.024l0.052-0.206c0.002-0.007,0-0.014,0.001-0.021  c0.002-0.008,0.007-0.015,0.008-0.023l0.042-0.268c0.001-0.005-0.001-0.01,0-0.016c0-0.006,0.004-0.01,0.004-0.016l0.028-0.305  c0-0.006-0.002-0.011-0.002-0.016c0-0.006,0.004-0.011,0.004-0.017l0.009-0.328c0-0.003-0.001-0.005-0.001-0.007  c0-0.003,0.001-0.005,0.001-0.007v-0.146c0-0.002-0.001-0.004-0.001-0.006c0-0.003,0.001-0.005,0.001-0.008l-0.005-0.183  c0-0.004-0.003-0.008-0.003-0.012c0-0.005,0.002-0.009,0.001-0.014L27.051,52c0-0.007-0.005-0.013-0.006-0.02  c0-0.008,0.002-0.015,0.001-0.021l-0.042-0.258c-0.001-0.009-0.007-0.016-0.009-0.024s0.001-0.017-0.001-0.025l-0.052-0.192  c-0.005-0.018-0.017-0.031-0.024-0.048c-0.006-0.017-0.006-0.035-0.015-0.052l-0.061-0.117c-0.011-0.021-0.028-0.033-0.041-0.052  c-0.02-0.028-0.04-0.057-0.065-0.081c-0.026-0.024-0.056-0.042-0.086-0.06c-0.019-0.012-0.032-0.028-0.053-0.037l-0.065-0.028  c-0.008-0.004-0.016-0.002-0.024-0.005l0.208-0.951l0-0.001l0.111-0.465l0-0.001l0.322-1.318l0.225-0.748  c0.001-0.005,0-0.009,0.001-0.014c0-0.002,0.003-0.003,0.004-0.006l0.3-1.167c0.001-0.005,0-0.009,0.001-0.014  c0.001-0.006,0.004-0.01,0.005-0.015l0.225-1.148c0-0.002,0-0.004,0-0.005c0-0.002,0.001-0.004,0.002-0.006l0.179-1.041  c0-0.002,0-0.004,0-0.006c0-0.002,0.001-0.004,0.002-0.006l0.159-1.078c0-0.004-0.001-0.008,0-0.013  c0-0.005,0.003-0.009,0.004-0.014l0.154-1.654c0.002-0.021-0.006-0.041-0.007-0.062c0-0.021,0.006-0.039,0.003-0.06l-0.135-0.888  c0,0,0-0.001,0-0.002l-0.328-2.175c0,0,0-0.001,0-0.001l-0.162-1.159v0l-0.14-1.178c0,0,0,0,0,0l-0.131-1.167c0,0,0-0.001,0-0.001  l-0.122-1.149l0,0l-0.106-1.125c0,0,0-0.001,0-0.002l-0.104-1.111c0,0,0-0.001,0-0.001l-0.093-1.098l-0.079-1.107c0,0,0,0,0-0.001  l-0.074-1.143l-0.057-1.188c0,0,0,0,0,0l-0.009-0.227L26.939,27l0,0l0.098,0.817c0,0,0,0.001,0,0.001l0.102,0.883v0  c0,0,0,0.001,0,0.001l0.112,0.933c0,0.001,0.001,0.002,0.001,0.004c0,0.001,0,0.002,0,0.003l0.132,0.976c0,0,0,0.001,0,0.002  c0,0,0,0.001,0,0.001l0.146,1.021c0,0.001,0.001,0.002,0.001,0.003c0,0.001,0,0.002,0,0.003l0.164,1.06  c0,0.001,0.001,0.002,0.001,0.003c0,0,0,0.001,0,0.002l0.183,1.106c0,0.001,0.001,0.003,0.001,0.004c0,0.002,0,0.003,0,0.005  l0.211,1.139c0,0,0,0.001,0,0.001l0,0l0.224,1.188c0,0,0,0,0,0.001l0.229,1.231l0.204,1.263c0,0,0,0,0,0l0.18,1.306l0.055,1.259  c0,0.006,0.003,0.011,0.004,0.017c0,0.005-0.002,0.01-0.001,0.016l0.312,2.87l-0.097,0.563c-0.001,0.009,0.002,0.016,0,0.024  c-0.001,0.009-0.006,0.017-0.007,0.025l-0.076,1.116l-0.06,0.099c-0.01,0.016-0.01,0.033-0.018,0.05  c-0.007,0.016-0.02,0.026-0.025,0.043l-0.313,0.891c0,0.002,0,0.003-0.001,0.005c0,0.002-0.002,0.004-0.003,0.006l-0.249,0.764  c-0.001,0.004,0,0.007-0.001,0.011c-0.001,0.003-0.003,0.005-0.004,0.008l-0.234,0.825c-0.005,0.019-0.001,0.037-0.004,0.056  c-0.006,0.034-0.009,0.067-0.008,0.102c0.001,0.032,0.007,0.062,0.014,0.094c0.007,0.03,0.016,0.059,0.029,0.088  c0.015,0.032,0.033,0.061,0.054,0.09c0.011,0.015,0.015,0.032,0.028,0.046l0.422,0.459c0.007,0.008,0.016,0.01,0.023,0.017  c0.008,0.009,0.012,0.02,0.021,0.027l0.46,0.39c0.007,0.006,0.016,0.008,0.022,0.013c0.005,0.004,0.007,0.01,0.013,0.014l0.511,0.36  c0.002,0.001,0.004,0.001,0.005,0.002c0.004,0.002,0.005,0.006,0.009,0.009l1.2,0.783c0.007,0.005,0.017,0.003,0.024,0.007  c0.011,0.007,0.018,0.017,0.029,0.022l0.656,0.323c0.005,0.003,0.011,0.002,0.017,0.004c0.007,0.003,0.012,0.01,0.02,0.013  l0.754,0.3c0.018,0.007,0.035,0.005,0.053,0.01c0.015,0.005,0.027,0.015,0.043,0.018l0.844,0.15c0,0,0,0,0.001,0l0.848,0.15  c0.011,0.002,0.022,0.002,0.033,0.003c0.003,0,0.006,0.003,0.01,0.003l0.886,0.079c0.015,0.001,0.03,0.002,0.044,0.002l0,0H36.2h0  c0.006,0,0.011,0,0.017,0l1.388-0.047c0.001,0,0.001-0.001,0.002-0.001c0.005,0,0.009,0,0.014,0l1.392-0.094  c0.001,0,0.003-0.001,0.004-0.001c0.004-0.001,0.008-0.001,0.012-0.001l1.341-0.136c0,0,0.001,0,0.001-0.001  c0.002,0,0.005,0,0.007,0l1.261-0.15h0c0.004-0.001,0.008,0,0.012-0.001l1.031-0.149c0.002,0,0.003-0.002,0.005-0.002  c0.004-0.001,0.007,0,0.011-0.001l1.266-0.226c0.012-0.002,0.021-0.01,0.031-0.013c0.038-0.009,0.072-0.024,0.107-0.042  c0.022-0.012,0.045-0.021,0.065-0.037c0.008-0.006,0.017-0.008,0.025-0.014l0.229-0.188c0.064-0.053,0.106-0.119,0.137-0.19  c0.003-0.007,0.01-0.01,0.013-0.017l0.179-0.464c0.002-0.006,0.001-0.012,0.003-0.018c0.001-0.004,0.005-0.005,0.006-0.009  l0.527-1.641l0.494,0.031l1.134,0.103c0.005,0,0.01,0,0.016,0.001c0,0,0,0,0.001,0l1.42,0.08c0.005,0,0.009,0,0.014,0  c0.001,0,0.001,0.001,0.002,0.001l1.547,0.037c0.004,0,0.008,0,0.012,0h1.58c0.004,0,0.008,0,0.012,0l1.551-0.037  c0.001,0,0.002-0.001,0.002-0.001c0.005,0,0.01,0,0.015,0l1.416-0.08c0.001,0,0.001,0,0.001,0c0.006-0.001,0.011-0.001,0.016-0.001  l1.133-0.103l0.5-0.031l0.527,1.641c0.002,0.003,0.004,0.004,0.006,0.007c0.002,0.005,0,0.01,0.002,0.015l0.173,0.464  c0.003,0.008,0.012,0.012,0.015,0.02c0.031,0.073,0.074,0.143,0.142,0.196l0.234,0.188c0.005,0.004,0.011,0.002,0.017,0.006  c0.061,0.045,0.129,0.081,0.208,0.096l1.261,0.226c0.004,0.001,0.008,0,0.012,0.001c0.002,0,0.003,0.002,0.005,0.002l1.036,0.149  c0.004,0,0.008,0,0.012,0.001l0,0l1.257,0.15c0.003,0,0.005,0,0.008,0c0.001,0.001,0.001,0.001,0.001,0.001l1.346,0.136  c0.004,0,0.008,0,0.012,0.001c0.002,0,0.003,0.001,0.004,0.001l1.393,0.094c0.006,0,0.01,0,0.015,0c0.001,0,0.001,0.001,0.003,0.001  l1.387,0.047c0.006,0,0.012,0,0.018,0l0,0h0.928l0,0c0.015,0,0.029-0.001,0.045-0.002l0.885-0.079c0.004,0,0.007-0.003,0.01-0.003  c0.012-0.001,0.022-0.001,0.033-0.003l0.848-0.15c0.001,0,0.002,0,0.002,0l0.84-0.15c0.016-0.003,0.028-0.014,0.044-0.018  c0.017-0.005,0.034-0.003,0.051-0.01l0.76-0.3c0.007-0.003,0.012-0.009,0.019-0.013c0.006-0.002,0.013-0.001,0.019-0.004  l0.656-0.323c0.012-0.006,0.019-0.017,0.03-0.023c0.008-0.004,0.016-0.002,0.023-0.007l1.195-0.783  c0.003-0.002,0.004-0.006,0.008-0.008c0.002-0.001,0.004-0.001,0.006-0.002l0.511-0.36c0.006-0.004,0.009-0.011,0.014-0.015  c0.007-0.005,0.015-0.007,0.022-0.013l0.459-0.39c0.008-0.007,0.01-0.016,0.018-0.023c0.008-0.007,0.018-0.009,0.024-0.017  l0.427-0.459c0.014-0.016,0.02-0.035,0.031-0.052c0.02-0.027,0.038-0.054,0.053-0.084c0.014-0.03,0.021-0.061,0.029-0.092  c0.007-0.031,0.013-0.061,0.014-0.092c0.002-0.035-0.002-0.068-0.008-0.103c-0.004-0.02,0-0.039-0.006-0.059l-0.238-0.825  c-0.001-0.002-0.002-0.003-0.003-0.005c-0.001-0.003-0.001-0.005-0.001-0.007l-0.243-0.764c-0.001-0.003-0.003-0.004-0.004-0.007  s0-0.005-0.001-0.008l-0.314-0.891c-0.006-0.017-0.019-0.027-0.025-0.043c-0.008-0.017-0.009-0.034-0.018-0.05l-0.061-0.099  l-0.075-1.116c-0.001-0.008-0.005-0.015-0.007-0.023c0-0.008,0.003-0.016,0.002-0.023L72.15,44.12l0.303-2.87  c0-0.005-0.002-0.009-0.001-0.014c0-0.005,0.003-0.01,0.003-0.015l0.061-1.26l0.176-1.309l0,0l0.207-1.267l0.223-1.223  c0,0,0.001,0,0.001-0.001l0.226-1.19c0,0,0,0,0,0c0,0,0-0.001,0-0.001l0.211-1.139c0.001-0.001,0-0.002,0-0.003  c0-0.002,0.002-0.003,0.002-0.004l0.188-1.106c0-0.001,0-0.002,0-0.003c0-0.001,0.001-0.002,0.001-0.003l0.164-1.06  c0-0.001-0.001-0.002,0-0.003c0-0.001,0.001-0.002,0.001-0.003l0.146-1.021c0-0.001-0.001-0.002,0-0.003  c0-0.001,0.001-0.002,0.001-0.003l0.126-0.976c0,0,0-0.001,0-0.001l0,0l0.117-0.933c0-0.001-0.001-0.001,0-0.002  c0,0,0.001-0.001,0.001-0.002l0.103-0.883c0.001,0,0.001,0,0.001-0.001l0.098-0.82l0.072-0.534l-0.009,0.223  c0,0-0.001,0-0.001,0.001l-0.061,1.19c0,0,0,0,0,0.001l-0.069,1.14l-0.083,1.11v0l-0.094,1.098c0,0,0,0,0,0.001l-0.099,1.111  c0,0,0,0,0,0.001l-0.107,1.127l-0.12,1.145c0,0-0.001,0.001-0.001,0.002l-0.132,1.167c0,0,0,0.001,0,0.002l-0.144,1.168l-0.163,1.17  c0,0,0,0,0,0.001l-0.301,2.011c0,0,0,0.001,0,0.001s0,0.001,0,0.001l-0.023,0.164c0,0,0,0.001,0,0.001l-0.139,0.882  c-0.004,0.021,0.003,0.04,0.002,0.061c-0.001,0.021-0.009,0.042-0.007,0.064l0.155,1.654c0,0.006,0.004,0.01,0.004,0.016  c0.001,0.005,0,0.009,0,0.013l0.164,1.078c0,0.001,0.001,0.002,0.001,0.003c0.001,0.001,0,0.003,0,0.004l0.173,1.041  c0,0.003,0.002,0.005,0.002,0.007c0.001,0.003,0,0.005,0,0.008l0.227,1.148c0,0.006,0.004,0.01,0.006,0.016  c0.001,0.005-0.001,0.009,0,0.014l0.305,1.167c0.001,0.002,0.004,0.003,0.004,0.006c0.002,0.004,0,0.008,0.002,0.012l0.225,0.751  l0.315,1.312l0.112,0.469v0.001l0.209,0.958c-0.006,0.002-0.012,0.003-0.018,0.006c-0.014,0.003-0.025,0.007-0.039,0.012  c-0.007,0.002-0.014,0.001-0.021,0.004c-0.023,0.01-0.039,0.027-0.061,0.04c-0.029,0.017-0.059,0.032-0.084,0.056  c-0.027,0.024-0.046,0.053-0.066,0.081c-0.014,0.02-0.033,0.033-0.045,0.055l-0.061,0.117c-0.01,0.018-0.01,0.036-0.016,0.054  c-0.008,0.018-0.02,0.03-0.025,0.049l-0.051,0.192c-0.003,0.009,0,0.017-0.002,0.025s-0.008,0.016-0.01,0.024l-0.041,0.258  c-0.002,0.007,0.001,0.014,0,0.021c0,0.007-0.005,0.013-0.006,0.02l-0.023,0.3c0,0.007,0.003,0.013,0.003,0.02  s-0.004,0.013-0.004,0.02v0.181l-0.005,0.131c0,0.005,0.003,0.01,0.003,0.015c0,0.006-0.003,0.011-0.003,0.017l0.01,0.328  c0,0.006,0.004,0.01,0.004,0.016s-0.002,0.01-0.002,0.016l0.028,0.305c0.001,0.008,0.005,0.014,0.006,0.021s-0.001,0.013-0.001,0.02  l0.047,0.268c0.002,0.007,0.006,0.013,0.008,0.02c0.001,0.005-0.001,0.011,0,0.017l0.053,0.206c0.002,0.011,0.013,0.015,0.016,0.024  c0.007,0.021,0.006,0.044,0.016,0.064l0.065,0.141c0.043,0.092,0.11,0.164,0.191,0.214c0.007,0.006,0.011,0.014,0.017,0.02  c0.092,0.072,0.201,0.107,0.311,0.107c0.07,0,0.14-0.017,0.205-0.046l-0.006,0.084c-0.105,0.012-0.21,0.049-0.293,0.128  l-0.263,0.253l0,0l-0.312,0.29l0,0c-0.001,0.001-0.002,0.001-0.002,0.001l-0.365,0.342c0,0,0,0.001-0.001,0.001l-0.401,0.373  c0,0,0,0,0,0.001l-0.433,0.395c-0.001,0.001-0.002,0.003-0.003,0.004c-0.002,0.002-0.003,0.002-0.004,0.003l-0.455,0.432  l-0.479,0.454c0,0.001,0,0.001-0.001,0.002c-0.001,0-0.001,0.001-0.001,0.001l-1.049,1.012c-0.001,0.001-0.002,0.001-0.004,0.002  l-0.623,0.591v0.001l-0.702,0.664c-0.001,0-0.001,0.001-0.001,0.002l-0.76,0.721c0,0.001,0,0.001-0.001,0.002  s-0.002,0.001-0.003,0.002l-0.792,0.77c-0.001,0.001-0.002,0.003-0.003,0.005c-0.002,0.001-0.004,0.002-0.005,0.003l-0.802,0.815  c-0.002,0.002-0.002,0.005-0.005,0.007c-0.002,0.003-0.005,0.004-0.007,0.006l-0.783,0.853c0,0.001-0.001,0.003-0.002,0.004  c-0.002,0.002-0.004,0.002-0.005,0.004l-0.765,0.872C66,63.52,66,63.522,65.997,63.525c-0.002,0.002-0.005,0.003-0.007,0.005  l-0.73,0.896c-0.002,0.002-0.002,0.004-0.004,0.005c0,0.002-0.002,0.003-0.004,0.004l-0.707,0.904  c-0.001,0.002-0.001,0.004-0.002,0.005c-0.002,0.002-0.004,0.003-0.006,0.005l-0.67,0.905c-0.002,0.003-0.002,0.006-0.004,0.009  c-0.002,0.001-0.004,0.002-0.005,0.004l-0.633,0.909c-0.001,0.002-0.001,0.005-0.003,0.008c-0.002,0.002-0.006,0.004-0.008,0.007  L62.629,68.1c-0.002,0.003-0.002,0.007-0.004,0.011c-0.002,0.003-0.005,0.005-0.007,0.008l-0.534,0.914  c-0.002,0.004-0.002,0.008-0.004,0.011c-0.002,0.004-0.005,0.006-0.007,0.009l-0.479,0.909c-0.001,0.002-0.001,0.005-0.002,0.007  c-0.001,0.003-0.005,0.005-0.006,0.008l-0.412,0.854c-0.001,0.002-0.001,0.005-0.002,0.007s-0.003,0.003-0.003,0.005l-0.338,0.745  c-0.114,0.251-0.003,0.548,0.248,0.661c0.067,0.03,0.138,0.045,0.207,0.045c0.189,0,0.371-0.109,0.455-0.294l0.334-0.735  l0.411-0.852l0,0l0.465-0.883l0.522-0.895l0.582-0.902l0,0l0.612-0.881c0.001,0,0.001-0.001,0.001-0.001l0.672-0.905  c0,0,0,0,0-0.001l0.691-0.885l0,0l0.722-0.883l0.764-0.871l0,0l0.771-0.841l0.789-0.802l0.789-0.767v-0.001l0.754-0.715  c0,0,0,0,0.001-0.001l0.702-0.664c0-0.001,0.001-0.001,0.002-0.001l0.623-0.591c0-0.001,0.001-0.003,0.002-0.004l0,0l1.052-1.015  c0.001,0,0.001,0,0.001,0l0.479-0.454l0.449-0.428l0.434-0.396c0,0,0-0.001,0.001-0.002c0.001,0,0.002,0,0.003-0.001l0.402-0.375  l0,0c0.001-0.001,0.002-0.001,0.002-0.001l0.036-0.033L74.713,56.51z M70.303,46.832c0.002,0,0.003-0.001,0.004-0.002l1.068-0.23  l0.178-0.033l0.229,0.647l-0.033-0.06c-0.01-0.02-0.027-0.031-0.041-0.049c-0.014-0.02-0.02-0.041-0.037-0.059l-0.117-0.122  c-0.007-0.008-0.018-0.011-0.025-0.018c-0.023-0.022-0.051-0.038-0.08-0.056s-0.057-0.035-0.088-0.047  c-0.024-0.008-0.05-0.011-0.074-0.016c-0.04-0.008-0.078-0.014-0.119-0.012c-0.01,0-0.019-0.004-0.029-0.003l-0.51,0.057  c-0.004,0-0.006,0.002-0.008,0.003c-0.003,0-0.005-0.001-0.008-0.001l-0.838,0.118L70.303,46.832z M65.262,51.183l-1.384-0.047  l-1.063-0.071l0.996,0.044c0.004,0,0.008,0,0.011,0c0.001,0,0.001,0.001,0.003,0.001l1.283,0.023c0.004,0,0.007,0,0.01,0h0.857l0,0  c0.009,0,0.018,0,0.025-0.001l0.816-0.042c0.002,0,0.003-0.001,0.004-0.001c0.01-0.001,0.02-0.001,0.03-0.002l0.771-0.093  c0.002,0,0.004,0,0.006,0l0.009-0.001l-0.644,0.114l-0.844,0.075H65.262z M74.232,73.854l-0.074,0.354l0.002-0.06l0.088-0.439  v-0.001l-0.002,0.077L74.232,73.854L74.232,73.854z M21.633,60.683c0-0.003,0.002-0.006,0.003-0.009l0.062-0.544  c0-0.003-0.001-0.006-0.001-0.009c0-0.002,0.002-0.004,0.002-0.006l0.061-0.717c0-0.001,0-0.002,0-0.004  c0-0.001,0.001-0.002,0.001-0.003l0.062-0.862c0-0.001,0-0.002,0-0.003c0-0.002,0.001-0.003,0.001-0.004l0.056-0.989  c0,0,0,0,0-0.001s0-0.001,0-0.002l0.057-1.102c0-0.001,0-0.002,0-0.004c0-0.001,0-0.001,0-0.002l0.047-1.19c0,0,0,0,0-0.001l0,0  l0.047-1.247v-0.001c0-0.001,0-0.002,0-0.003l0.037-1.289V52.69v-0.001l0.033-1.299c0-0.001,0-0.002,0-0.003s0-0.002,0-0.003  l0.019-1.289l0,0c0-0.001,0-0.001,0-0.001l0.014-1.242c0-0.001,0-0.001,0-0.002s0-0.001,0-0.002l0.005-1.186v-0.001v-0.001v-1.088  c0-0.001,0-0.002,0-0.003c0-0.002,0-0.003,0-0.004l-0.014-0.975c0-0.001,0-0.001,0-0.002s0-0.001,0-0.002l-0.019-0.844  c0-0.002-0.001-0.004-0.001-0.006c0-0.001,0-0.002,0-0.004l-0.028-0.689c0-0.002-0.001-0.003-0.001-0.005  c0-0.002,0.001-0.004,0.001-0.006L22.041,43.5c0-0.005-0.003-0.009-0.003-0.014c0-0.006,0.001-0.01,0.001-0.015l-0.034-0.281  l0.351-0.22c0.001-0.001,0.001-0.002,0.003-0.003c0,0,0,0,0.001,0l0.273-0.175l0.094,1l0.083,1.314c0,0.001,0,0.001,0,0.001  l0.075,1.505l0,0.001l0.055,1.608v0.001l0.033,1.674l0,0l0.023,1.685v1.609l-0.018,1.494c-0.004,0.026-0.016,0.05-0.016,0.077  c0,0.022,0.01,0.041,0.013,0.063l-0.036,1.405c0,0,0,0,0,0.001l-0.06,1.378l-0.103,1.293l-0.094,1.158l0,0l-0.088,0.984L22.53,61.7  l-0.947-0.673l0.05-0.337C21.634,60.688,21.633,60.686,21.633,60.683z M78.914,61.7l-0.066-0.659l-0.001-0.001l-0.093-0.977  c0-0.001,0-0.001,0-0.002l-0.094-1.158l0,0l-0.102-1.291l-0.061-1.38c0-0.001,0-0.001,0-0.001l-0.035-1.389  c0.005-0.026,0.017-0.052,0.017-0.08c0-0.034-0.013-0.064-0.02-0.098l-0.018-1.472l0.005-1.612l0,0l0.019-1.683l0,0l0.037-1.674  v-0.001l0.056-1.611v-0.001l0.07-1.497l0.089-1.331l0.089-0.991l0.277,0.177c0.001,0,0.002,0,0.002,0c0,0.001,0,0.001,0,0.001  l0.353,0.222l-0.034,0.28c0,0.005,0.002,0.009,0.002,0.013c-0.001,0.005-0.004,0.008-0.004,0.013l-0.037,0.534  c0,0.003,0.001,0.005,0.001,0.008c0,0.002-0.001,0.004-0.001,0.006l-0.029,0.689c0,0.001,0.001,0.003,0.001,0.004  c0,0.002-0.001,0.004-0.001,0.006l-0.019,0.844c0,0.001,0.001,0.002,0.001,0.003s-0.001,0.002-0.001,0.003l-0.01,0.975  c0,0.001,0.001,0.001,0.001,0.002c0,0-0.001,0-0.001,0.001l-0.005,1.088c0,0.001,0,0.001,0,0.002s0,0.001,0,0.002l0.005,1.186  c0,0.001,0.001,0.001,0.001,0.002s-0.001,0.001-0.001,0.002l0.015,1.242c0,0.001,0,0.001,0,0.001c0,0.001,0,0.001,0,0.002  l0.023,1.289c0,0.001,0,0.001,0,0.002s0,0.001,0,0.002l0.032,1.299v0.001v0.001l0.038,1.289c0,0.001,0,0.001,0,0.002l0.043,1.247  c0,0.001,0,0.001,0,0.002s0,0.002,0,0.003l0.051,1.19v0.001v0.001l0.051,1.102c0,0.001,0.002,0.003,0.002,0.004  s-0.001,0.003-0.001,0.004l0.062,0.989l0,0c0,0.001,0,0.001,0,0.001l0.056,0.862c0,0.002,0.001,0.004,0.001,0.006s0,0.003,0,0.005  l0.062,0.717c0,0.002,0.001,0.004,0.001,0.006c0.001,0.002,0,0.005,0,0.007l0.061,0.544c0,0.005,0.004,0.008,0.004,0.013  c0,0.004-0.001,0.008,0,0.013l0.054,0.329L78.914,61.7z"/><path
  fill="#000000"
  d="M52.312,86.454c0-0.035-0.008-0.068-0.017-0.102c-0.005-0.021-0.003-0.042-0.011-0.062l-0.079-0.206  c-0.004-0.011-0.013-0.018-0.018-0.027c-0.015-0.031-0.034-0.059-0.055-0.087c-0.021-0.026-0.038-0.052-0.062-0.073  c-0.009-0.008-0.013-0.019-0.022-0.026l-0.221-0.174c-0.025-0.02-0.055-0.027-0.082-0.042c-0.026-0.014-0.049-0.033-0.078-0.042  l-0.102-0.032c-0.002-0.001-0.004,0-0.006-0.001c-0.003-0.001-0.006-0.003-0.008-0.004l-0.234-0.066  c-0.018-0.005-0.035-0.001-0.052-0.004c-0.016-0.003-0.028-0.012-0.045-0.013l-0.46-0.037c-0.013-0.001-0.025,0.005-0.038,0.005  c-0.015,0-0.027-0.006-0.042-0.005l-0.464,0.037c-0.016,0.001-0.029,0.01-0.045,0.013c-0.018,0.003-0.034-0.001-0.051,0.004  l-0.234,0.066c-0.002,0.001-0.004,0.003-0.006,0.003c-0.002,0.001-0.004,0-0.006,0.001l-0.092,0.028  c-0.001,0.001-0.003,0.001-0.004,0.002l-0.007,0.002c-0.028,0.009-0.048,0.027-0.074,0.04c-0.031,0.017-0.064,0.026-0.092,0.049  l-0.008,0.006c0,0.001,0,0.001-0.001,0.001l-0.206,0.167c-0.006,0.005-0.009,0.013-0.015,0.019c-0.025,0.021-0.043,0.05-0.064,0.077  s-0.041,0.053-0.055,0.082c-0.003,0.008-0.01,0.013-0.014,0.021l-0.085,0.206c-0.01,0.023-0.008,0.047-0.014,0.071  c-0.009,0.034-0.019,0.067-0.02,0.104c-0.001,0.037,0.007,0.071,0.014,0.106c0.004,0.023,0.001,0.047,0.009,0.07l0.07,0.206  c0.002,0.008,0.011,0.011,0.014,0.019c0.029,0.075,0.07,0.146,0.137,0.202l0.205,0.173c0.007,0.006,0.016,0.008,0.022,0.014  c0.045,0.034,0.094,0.062,0.145,0.078c0.003,0.001,0.005,0.004,0.009,0.005l0.348,0.107c0.026,0.008,0.052,0.008,0.078,0.012  c0.012,0.002,0.022,0.009,0.035,0.01l0.478,0.033c0.011,0.001,0.022,0.001,0.034,0.001l0,0h0h0l0,0c0.012,0,0.023,0,0.034-0.001  l0.478-0.033c0.014-0.001,0.024-0.008,0.037-0.01c0.026-0.004,0.053-0.005,0.078-0.013l0.342-0.107  c0.002-0.001,0.004-0.002,0.006-0.003c0.058-0.019,0.113-0.047,0.162-0.088l0.006-0.004c0-0.001,0-0.001,0.001-0.002l0.204-0.168  c0.07-0.058,0.113-0.133,0.143-0.212c0.004-0.009,0.014-0.013,0.017-0.022l0.065-0.206c0.007-0.021,0.003-0.042,0.007-0.063  C52.309,86.522,52.314,86.489,52.312,86.454z M50.722,86.488l-0.224-0.016l0.224-0.019l0.223,0.019L50.722,86.488z"/><path
  fill="#000000"
  d="M32.992,21.023c0.005,0.036,0.018,0.067,0.031,0.101c0.008,0.021,0.008,0.042,0.019,0.062l0.089,0.164  c0.006,0.012,0.019,0.016,0.026,0.026c0.035,0.054,0.079,0.1,0.133,0.138c0.02,0.014,0.038,0.027,0.06,0.038  c0.015,0.007,0.026,0.02,0.042,0.026l0.2,0.077c0,0,0,0,0.001,0l0.005,0.002c0.054,0.021,0.109,0.028,0.164,0.03  c0.005,0,0.01,0.003,0.015,0.003h0l0,0l0,0c0.013,0,0.025,0,0.039-0.001l0.305-0.023c0.013-0.001,0.023-0.008,0.035-0.01  c0.026-0.004,0.052-0.004,0.078-0.012l0.338-0.107c0.02-0.006,0.034-0.021,0.052-0.029c0.012-0.005,0.025-0.003,0.037-0.01  l0.375-0.206c0.017-0.009,0.028-0.025,0.043-0.037c0.008-0.005,0.018-0.003,0.025-0.009l0.31-0.244  c0.028-0.022,0.045-0.052,0.067-0.079c0.011-0.013,0.027-0.019,0.037-0.033l0.159-0.234c0.001-0.002,0.001-0.005,0.003-0.007  c0.033-0.051,0.059-0.107,0.072-0.169l0.047-0.221c0.005-0.025-0.001-0.049,0.001-0.074c0.002-0.036,0.006-0.071,0.001-0.107  c-0.006-0.036-0.021-0.068-0.034-0.102c-0.009-0.023-0.01-0.047-0.023-0.069l-0.094-0.164c-0.001-0.002-0.004-0.003-0.005-0.006  c-0.021-0.036-0.052-0.064-0.082-0.094c-0.017-0.017-0.029-0.038-0.048-0.052c-0.017-0.013-0.04-0.018-0.059-0.029  c-0.039-0.021-0.076-0.044-0.118-0.055c-0.002,0-0.004-0.002-0.006-0.003L34.98,19.42c-0.005-0.001-0.01,0-0.015,0  c-0.034-0.007-0.07-0.003-0.106-0.003c-0.03,0-0.06-0.003-0.088,0.002c-0.006,0.001-0.011-0.001-0.017,0l-0.333,0.075  c-0.018,0.004-0.03,0.016-0.047,0.021c-0.017,0.006-0.033,0.004-0.049,0.012l-0.361,0.164c-0.008,0.004-0.013,0.011-0.021,0.016  c-0.009,0.004-0.019,0.004-0.027,0.009l-0.173,0.103c-0.01,0.006-0.015,0.016-0.024,0.022c-0.01,0.007-0.021,0.009-0.031,0.016  l-0.296,0.234c-0.019,0.015-0.028,0.036-0.044,0.052c-0.016,0.017-0.036,0.026-0.05,0.045l-0.178,0.244  c-0.002,0.002-0.002,0.006-0.004,0.009c-0.02,0.027-0.029,0.061-0.042,0.092c-0.013,0.03-0.03,0.059-0.037,0.091  c-0.001,0.003-0.003,0.006-0.004,0.009l-0.042,0.221c-0.004,0.022,0.002,0.044,0.001,0.066  C32.989,20.955,32.987,20.988,32.992,21.023z"/><path
  fill="#000000"
  d="M65.645,20.181c0.001,0.022-0.006,0.044-0.001,0.066l0.042,0.221c0,0.002,0.002,0.003,0.002,0.005  c0.004,0.016,0.013,0.03,0.018,0.045c0.014,0.046,0.03,0.09,0.056,0.129c0.003,0.004,0.003,0.01,0.007,0.014l0.164,0.234  c0.01,0.015,0.027,0.021,0.039,0.034c0.02,0.023,0.033,0.05,0.058,0.07l0.305,0.244c0.008,0.006,0.019,0.003,0.026,0.009  c0.018,0.012,0.029,0.03,0.048,0.04l0.38,0.206c0.012,0.006,0.024,0.004,0.037,0.009c0.018,0.008,0.03,0.022,0.049,0.028  l0.338,0.107c0.025,0.008,0.051,0.008,0.077,0.012c0.013,0.001,0.022,0.009,0.035,0.01l0.3,0.023  c0.014,0.001,0.025,0.001,0.039,0.001l0,0l0,0l0,0c0.004,0,0.008-0.002,0.012-0.002c0.056-0.001,0.111-0.01,0.166-0.031l0.207-0.079  c0.016-0.006,0.025-0.018,0.039-0.025c0.022-0.011,0.041-0.024,0.061-0.038c0.052-0.036,0.094-0.078,0.129-0.128  c0.008-0.011,0.021-0.016,0.027-0.028l0.094-0.164c0.014-0.022,0.015-0.046,0.023-0.069c0.014-0.034,0.028-0.066,0.034-0.102  c0.005-0.036,0.001-0.071-0.001-0.107c-0.002-0.025,0.004-0.049-0.001-0.074l-0.047-0.221c-0.001-0.002-0.002-0.003-0.003-0.006  c-0.006-0.026-0.021-0.049-0.031-0.075c-0.016-0.037-0.027-0.076-0.05-0.107c-0.001-0.001-0.001-0.002-0.002-0.004l-0.179-0.244  c-0.014-0.019-0.033-0.029-0.049-0.045s-0.025-0.037-0.043-0.051l-0.295-0.234c-0.01-0.007-0.021-0.009-0.029-0.015  c-0.009-0.006-0.014-0.016-0.023-0.021l-0.168-0.103c-0.01-0.005-0.02-0.005-0.029-0.01c-0.009-0.005-0.015-0.013-0.023-0.018  l-0.361-0.164c-0.018-0.008-0.035-0.006-0.052-0.012c-0.017-0.005-0.029-0.017-0.046-0.021l-0.338-0.075  c-0.004-0.001-0.008,0-0.014,0c-0.034-0.007-0.07-0.002-0.105-0.002c-0.03,0.001-0.061-0.003-0.088,0.003  c-0.006,0.001-0.012-0.001-0.018,0l-0.352,0.084c-0.004,0.001-0.008,0.004-0.012,0.005c-0.036,0.01-0.068,0.029-0.102,0.047  c-0.024,0.013-0.052,0.022-0.074,0.039c-0.021,0.017-0.036,0.04-0.055,0.06c-0.025,0.028-0.054,0.054-0.072,0.087  c-0.002,0.004-0.007,0.006-0.009,0.01l-0.089,0.164c-0.011,0.02-0.012,0.042-0.02,0.062c-0.012,0.033-0.025,0.065-0.03,0.101  C65.641,20.113,65.643,20.146,65.645,20.181z"/>  
</svg>
