<svg xmlns="http://www.w3.org/2000/svg" xmlns:xlink="http://www.w3.org/1999/xlink" version="1.1" x="0px" y="0px" viewBox="0 0 100 125" style="enable-background:new 0 0 100 100;" xml:space="preserve"><g><path d="M46.44714,58.52685c-0.70658,0-1.36501-0.45009-1.59792-1.15765c-0.91296-2.7654-1.72961-5.01389-2.45191-7.00195   c-2.11189-5.81776-3.50736-9.66023-4.07538-17.70878c-0.06584-0.9277,0.63288-1.73255,1.55959-1.79741   c0.91197-0.08451,1.73157,0.6319,1.79741,1.55959c0.53559,7.57979,1.79545,11.04883,3.88277,16.7978   c0.73115,2.0146,1.55861,4.29256,2.48336,7.09727c0.29187,0.88249-0.1877,1.83377-1.07019,2.12466   C46.79896,58.49933,46.62207,58.52685,46.44714,58.52685z"/><path d="M40.00043,34.22297c-0.69675,0-1.3483-0.43633-1.59006-1.1321c-0.30465-0.87758,0.16019-1.83672,1.03875-2.14137   c2.73396-0.94833,6.12339-1.91927,10.53486-1.91927c0.92966,0,1.68341,0.75375,1.68341,1.68341   c0,0.92966-0.75375,1.68342-1.68341,1.68342c-3.90046,0-6.83882,0.83237-9.43126,1.73255   C40.36994,34.1925,40.18322,34.22297,40.00043,34.22297z"/><path d="M49.98399,58.86687c-1.25986,0-2.55608-0.12383-3.85132-0.37147c-0.91296-0.17296-1.51242-1.05545-1.33848-1.96743   c0.17394-0.91394,1.05251-1.51144,1.96743-1.33848c1.08886,0.20638,2.17281,0.31251,3.22237,0.31251   c0.92966,0,1.68341,0.75277,1.68341,1.68243S50.91365,58.86687,49.98399,58.86687z"/><path d="M35.26466,95.3222c-0.19458,0-0.38916-0.03341-0.57588-0.10023C16.99376,88.77133,18.26639,58.41482,21.80815,41.4932   c0.19065-0.91001,1.09181-1.48982,1.99199-1.30212c0.91001,0.19065,1.49277,1.08199,1.30212,1.99199   c-2.93246,14.01274-4.6434,41.22452,8.47899,48.82102V75.80324c-4.18937-3.85623-4.85075-8.44362-5.18685-13.19413   c-0.21817-2.96391-0.1651-7.15623,2.80176-9.27304c2.93836-2.09911,7.8471-1.49276,15.91334,1.95956   c0.85399,0.36557,1.25101,1.3542,0.88446,2.20918c-0.36557,0.85498-1.3542,1.24807-2.20918,0.88446   c-6.58625-2.81847-10.83459-3.60072-12.63299-2.31334c-1.17436,0.83728-1.64607,2.95408-1.40039,6.29143   c0.32135,4.54021,0.86283,8.25886,4.59426,11.3859c0.3813,0.31841,0.60241,0.79208,0.60241,1.28934v18.59718   c0,0.54836-0.26828,1.06331-0.71838,1.37975C35.94275,95.22,35.60567,95.3222,35.26466,95.3222z"/><path d="M28.37278,44.65464c-1.98118,0-3.9378-0.43731-5.67624-1.31391c-0.82942-0.41864-1.16257-1.43085-0.74393-2.26126   c0.41766-0.83139,1.42987-1.16454,2.26126-0.74393c2.67106,1.34732,6.07327,1.27067,8.87896-0.20343   c2.89807-1.52225,4.75838-4.30042,5.23991-7.82056c0.12677-0.91984,0.9729-1.56451,1.89568-1.4397   c0.92082,0.12579,1.56549,0.97487,1.4397,1.89569c-0.63288,4.62865-3.12213,8.3021-7.00981,10.34421   C32.70465,44.13871,30.52496,44.65464,28.37278,44.65464z"/><path d="M40.0024,34.22297c-0.1022,0-0.20441-0.00983-0.30857-0.0285c-15.05247-2.788-21.58959-12.29788-20.26683-20.25209   C20.5306,7.30797,27.43624,1.46859,40.36012,3.37607c0.91983,0.13562,1.55468,0.99059,1.41906,1.91043   c-0.13463,0.91885-0.99157,1.55861-1.91042,1.41906c-10.66458-1.5704-16.28776,2.77719-17.12111,7.78911   c-1.02794,6.17842,4.77705,14.02257,17.55941,16.38996c0.91394,0.16903,1.51733,1.04759,1.3483,1.96153   C41.50499,33.65593,40.79743,34.22297,40.0024,34.22297z"/><path d="M23.45324,43.52155c-0.29777,0-0.60045-0.0796-0.87365-0.24667C10.61486,35.985,2.50636,18.77151,9.56334,6.64659   c4.38985-7.61419,14.85101-8.69421,31.09061-3.19977c0.88053,0.29777,1.35224,1.25298,1.05447,2.13351   s-1.25495,1.35322-2.13351,1.05447c-9.97077-3.37174-22.76788-5.81383-27.09877,1.69914   C6.46283,18.66439,13.9129,34.05197,24.33081,40.40139c0.79404,0.4835,1.04562,1.51832,0.56114,2.31236   C24.57551,43.2346,24.02125,43.52155,23.45324,43.52155z"/><path d="M53.57881,58.52685c-0.17099,0-0.34592-0.02752-0.51888-0.08451c-0.88446-0.28499-1.36894-1.23431-1.08199-2.11876   c0.95226-2.93443,1.80527-5.29495,2.56001-7.37931c2.04604-5.65364,3.28035-9.06667,3.80906-16.52362   c0.06486-0.92573,0.89625-1.6333,1.79643-1.55959c0.9277,0.06486,1.6274,0.86972,1.56058,1.79741   c-0.56016,7.92375-1.93008,11.70627-4.00167,17.43166c-0.74294,2.05489-1.58416,4.38002-2.52365,7.27121   C54.94873,58.07283,54.28834,58.52685,53.57881,58.52685z"/><path d="M60.02551,34.22297c-0.18279,0-0.3695-0.03046-0.55229-0.09336c-2.59441-0.90018-5.54063-1.73255-9.48923-1.73255   c-0.92966,0-1.68342-0.75376-1.68342-1.68342c0-0.92966,0.75375-1.68341,1.68342-1.68341   c4.45963,0,7.8579,0.96995,10.59382,1.91927c0.87659,0.30465,1.34241,1.26379,1.03776,2.14137   C61.37382,33.78663,60.72325,34.22297,60.02551,34.22297z"/><path d="M49.98399,58.86687c-0.92966,0-1.68342-0.75277-1.68342-1.68243s0.75375-1.68243,1.68342-1.68243   c1.0869,0,2.18952-0.10613,3.28035-0.31251c0.91001-0.17492,1.79446,0.42454,1.96743,1.33848   c0.17492,0.91394-0.42454,1.79446-1.33848,1.96743C52.59608,58.74305,51.28119,58.86687,49.98399,58.86687z"/><path d="M64.76031,95.3222c-0.34003,0-0.67809-0.1022-0.96504-0.30268c-0.45009-0.31644-0.71739-0.83138-0.71739-1.37975V75.0426   c0-0.49726,0.22013-0.97094,0.60143-1.28934c3.68327-3.08773,4.20412-6.66487,4.53628-11.38   c0.24764-3.35307-0.22013-5.47184-1.38762-6.30519c-1.7807-1.27362-6.0143-0.49137-12.5868,2.32121   c-0.85104,0.36558-1.8436-0.02752-2.20918-0.88446c-0.36656-0.85497,0.02948-1.8436,0.88446-2.20918   c8.16452-3.49459,12.90717-4.08128,15.86715-1.96743c2.95802,2.1109,3.00912,6.31109,2.78899,9.2868   c-0.34985,4.95099-0.98862,9.3831-5.12984,13.19019v15.1989c13.12534-7.5965,11.41341-34.80828,8.47899-48.82102   c-0.19065-0.91001,0.39309-1.80134,1.3031-1.99199c0.91197-0.19262,1.80232,0.39309,1.991,1.30212   c3.54372,16.92162,4.81734,47.27813-12.87965,53.72877C65.14947,95.2888,64.95489,95.3222,64.76031,95.3222z"/><path d="M71.62959,44.65268c-2.162,0-4.34367-0.51692-6.29536-1.5478c-3.86803-2.04015-6.3445-5.71162-6.97541-10.33733   c-0.12579-0.92082,0.51888-1.7699,1.43871-1.89569c0.93163-0.13267,1.77088,0.52085,1.8947,1.4397   c0.48154,3.52112,2.333,6.29635,5.21239,7.81663c2.79685,1.47704,6.21085,1.55664,8.91139,0.20441   c0.83336-0.41962,1.84361-0.07862,2.25832,0.75277c0.41471,0.83139,0.07862,1.84262-0.75277,2.25831   C75.57426,44.21733,73.61076,44.65268,71.62959,44.65268z"/><path d="M60.02355,34.22297c-0.79601,0-1.50161-0.56605-1.65295-1.37582c-0.16903-0.91394,0.43437-1.7925,1.3483-1.96251   c12.75583-2.3674,18.54607-10.21449,17.51421-16.39586c-0.83336-5.00701-6.42902-9.3546-17.07591-7.78322   c-0.90411,0.14446-1.77481-0.49824-1.91043-1.41906c-0.13562-0.91885,0.49923-1.77481,1.41906-1.91043   C72.55728,1.4627,79.44818,7.30502,80.55473,13.9355c1.32472,7.95618-5.19471,17.46998-20.22261,20.25897   C60.22796,34.21314,60.12575,34.22297,60.02355,34.22297z"/><path d="M76.57075,43.52155c-0.56802,0-1.12228-0.28696-1.43871-0.8078c-0.48351-0.79404-0.23193-1.82886,0.56016-2.31335   C86.0816,34.07261,93.52283,18.68601,87.54784,8.33492c-4.381-7.4943-17.15256-5.06204-27.09778-1.70012   c-0.88249,0.29875-1.83377-0.17394-2.13252-1.05447c-0.29875-0.88053,0.17493-1.83574,1.05545-2.13351   c16.18359-5.47872,26.6418-4.40066,31.0857,3.19682c7.01669,12.15833-1.08493,29.36396-13.0133,36.63223   C77.17021,43.44195,76.8695,43.52155,76.57075,43.52155z"/><path d="M49.98399,77.35201c-2.76835,0-4.49501-0.75473-5.15442-2.24651c-1.17829-0.47368-1.90944-1.1891-2.17969-2.13449   c-0.51593-1.80822,0.96209-3.33342,1.44756-3.83461c0.64664-0.66629,1.71191-0.68594,2.38017-0.03735   c0.66727,0.64664,0.68398,1.71191,0.03735,2.38017c-0.20343,0.2103-0.34101,0.37737-0.4324,0.50512   c0.12972,0.0511,0.30661,0.11007,0.54345,0.16903c0.69872,0.17493,1.20876,0.77439,1.26968,1.49178   c-0.00491,0.03539,0.34592,0.342,2.0883,0.342c0.92966,0,1.68341,0.75277,1.68341,1.68243   C51.6674,76.59924,50.91365,77.35201,49.98399,77.35201z"/><path d="M46.24372,66.4673c-1.6844,0-3.48181-1.02203-5.36767-3.06218c-1.73845-1.88094-3.89947-2.99929-6.60886-3.41597   c-0.91885-0.13955-1.54878-1.00042-1.40825-1.91829c0.14151-0.91787,1.00337-1.55271,1.91927-1.40727   c3.44349,0.52871,6.32681,2.02835,8.5694,4.45766c1.03383,1.11835,2.46174,2.34283,3.36683,1.83771   c0.81173-0.45009,1.8377-0.15527,2.28878,0.65646c0.45009,0.81173,0.15724,1.83574-0.65548,2.28779   C47.66867,66.28059,46.96602,66.4673,46.24372,66.4673z"/><path d="M40.3267,68.57624c-3.02484,0-5.20355-1.74139-6.67273-3.62234c-0.39997-0.51102-0.46975-1.20679-0.17984-1.78857   c1.05349-2.10894,3.37862-4.35152,8.4672-3.10936c0.90313,0.2221,1.45542,1.13407,1.23333,2.03622   c-0.22112,0.90215-1.13014,1.44658-2.03523,1.23431c-2.22686-0.54443-3.3629-0.19065-4.03312,0.45795   c1.55075,1.51144,3.89161,2.36838,7.99942-0.40685c0.77144-0.52085,1.81707-0.31447,2.33693,0.45402   c0.51986,0.77046,0.31644,1.81608-0.45402,2.33693C44.41879,67.90209,42.20863,68.57624,40.3267,68.57624z"/><path d="M49.98399,77.35201c-0.92966,0-1.68342-0.75277-1.68342-1.68243c0-0.92966,0.75375-1.68243,1.68342-1.68243   c1.74139,0,2.09518-0.29482,2.10894-0.30858c0.05896-0.72132,0.55426-1.35617,1.25789-1.52716   c0.23389-0.057,0.40882-0.114,0.5405-0.16313c-0.09434-0.12972-0.23389-0.29875-0.4383-0.50906   c-0.64663-0.66826-0.62894-1.73354,0.03735-2.38017c0.66629-0.64467,1.73354-0.63091,2.38017,0.03735   c0.49137,0.50709,1.98512,2.04997,1.46427,3.85426c-0.2732,0.94145-1.00828,1.65295-2.19345,2.12073   C54.16255,77.35201,51.09152,77.35201,49.98399,77.35201z"/><path d="M53.72425,66.4673c-0.72329,0-1.42496-0.18671-2.10403-0.56409c-0.81272-0.45205-1.10557-1.47606-0.65548-2.28779   c0.45009-0.8137,1.47409-1.11048,2.2878-0.65646c0.9159,0.50512,2.33496-0.72132,3.36879-1.83771   c2.2308-2.41751,5.11216-3.91716,8.56154-4.45766c0.91984-0.14348,1.78071,0.48351,1.92419,1.40137   c0.14348,0.91983-0.48351,1.7807-1.40137,1.92418c-2.68285,0.42061-4.90775,1.5704-6.6118,3.41597   C57.20705,65.44527,55.41062,66.4673,53.72425,66.4673z"/><path d="M59.64029,68.56445c-1.85343,0-4.05081-0.65057-6.6118-2.40179c-0.76849-0.52478-0.96504-1.57236-0.44026-2.3389   c0.52478-0.76849,1.56844-0.96504,2.33889-0.44026c4.09209,2.79488,6.40936,1.93401,7.94046,0.41471   c-0.6604-0.63877-1.79643-1.02007-3.97416-0.47367c-0.90215,0.2221-1.81608-0.32233-2.04211-1.22448   c-0.22406-0.90215,0.3243-1.81609,1.22448-2.04211c5.31264-1.32472,7.55326,1.37779,8.41806,3.10936   c0.28696,0.57391,0.22209,1.26379-0.16903,1.77481C65.0905,66.55182,62.89705,68.56445,59.64029,68.56445z"/><path d="M50.01249,93.32333c-2.16397,0-4.32794-0.30858-6.38676-0.92377c-0.89035-0.26534-1.39744-1.20286-1.13112-2.09321   c0.26632-0.89036,1.20974-1.40137,2.0942-1.13014c3.49852,1.04169,7.34885,1.04169,10.84737,0   c0.89625-0.27123,1.82984,0.23978,2.09321,1.13014c0.2673,0.89035-0.23978,1.82787-1.13014,2.09321   C54.33944,93.01476,52.17547,93.32333,50.01249,93.32333z"/><path d="M46.38916,99.48701c-0.75867,0-1.44658-0.51495-1.63428-1.28345c-0.49923-2.05193-0.82156-4.26111-1.01319-6.95379   c-0.06683-0.9277,0.63189-1.73158,1.55861-1.7984c0.93359-0.09238,1.73255,0.63091,1.79839,1.55861   c0.17886,2.50203,0.47269,4.53432,0.92672,6.39561c0.22013,0.90411-0.33413,1.81412-1.23726,2.03425   C46.6545,99.47326,46.52085,99.48701,46.38916,99.48701z"/><path d="M53.63777,99.48701c-0.13168,0-0.26534-0.01376-0.39899-0.04717c-0.90411-0.22013-1.45739-1.13013-1.23824-2.03228   c0.45206-1.86523,0.74688-3.89751,0.92573-6.39758c0.06683-0.9277,0.89035-1.63526,1.79839-1.55861   c0.9277,0.06683,1.62543,0.8707,1.55861,1.7984c-0.19262,2.69268-0.51299,4.89989-1.01221,6.95183   C55.08435,98.97206,54.39644,99.48701,53.63777,99.48701z"/><path d="M50.01249,100c-1.38762,0-2.77523-0.19261-4.09602-0.57981c-0.89232-0.26141-1.40334-1.19696-1.14095-2.08928   c0.26141-0.89232,1.19598-1.39745,2.0883-1.14194c2.03228,0.5975,4.26799,0.5975,6.29831,0   c0.89232-0.26141,1.82591,0.25158,2.08928,1.14194c0.26141,0.89232-0.24961,1.82787-1.14193,2.08928   C52.7887,99.80739,51.4001,100,50.01249,100z"/><path d="M46.27811,87.05156c-0.56114,0-1.1095-0.2791-1.42889-0.79012c-0.49333-0.78815-0.25354-1.82591,0.5346-2.31924   c2.83026-1.76891,6.44572-1.76694,9.21702,0.00983c0.78225,0.50119,1.01025,1.54288,0.50905,2.32514   c-0.50316,0.78028-1.54288,1.01418-2.32514,0.50905c-1.6785-1.0751-3.88276-1.06921-5.6163,0.00983   C46.89133,86.96901,46.58276,87.05156,46.27811,87.05156z"/><path d="M42.28135,97.72007c-0.26141,0-0.52576-0.06093-0.77439-0.18869c-3.40319-1.76498-6.01627-4.56183-7.76749-8.31389   c-0.39309-0.84122-0.0285-1.8436,0.8137-2.23669c0.83925-0.39702,1.84262-0.03145,2.23669,0.81371   c1.44952,3.10542,3.4995,5.3146,6.26686,6.74938c0.82549,0.42847,1.14783,1.44265,0.71936,2.26814   C43.47733,97.38987,42.88966,97.72007,42.28135,97.72007z"/><path d="M57.68858,97.72007c-0.61322,0-1.20483-0.33413-1.50161-0.91787c-0.42257-0.82943-0.09238-1.84164,0.73508-2.26421   c2.79488-1.42299,4.85862-3.62823,6.31305-6.74348c0.39113-0.84122,1.39351-1.21072,2.23669-0.81371   c0.84319,0.3931,1.20679,1.39548,0.8137,2.23669c-1.75909,3.76778-4.39476,6.5666-7.83432,8.31979   C58.2055,97.6611,57.94409,97.72007,57.68858,97.72007z"/><path d="M34.29372,55.55901c-0.24273,0-0.48841-0.0511-0.72231-0.16313c-5.01585-2.38607-8.93793-6.71892-11.65615-12.87867   c-0.3754-0.85006,0.00983-1.8436,0.86087-2.21901c0.84809-0.37638,1.84262,0.00983,2.219,0.86087   c2.41653,5.47675,5.69492,9.13938,10.02286,11.1982c0.83925,0.39899,1.19598,1.40334,0.79699,2.24259   C35.52607,55.20522,34.92267,55.55901,34.29372,55.55901z"/><path d="M65.73124,55.55901c-0.62698,0-1.22841-0.34985-1.51929-0.95325c-0.40292-0.83728-0.04914-1.84164,0.78815-2.24652   c4.28667-2.06275,7.66136-5.83053,10.02974-11.20016c0.37344-0.85301,1.36599-1.23333,2.219-0.86087   c0.84908,0.3754,1.23431,1.36894,0.8589,2.21901c-2.70054,6.12339-6.61966,10.45526-11.64927,12.87671   C66.22457,55.50594,65.97496,55.55901,65.73124,55.55901z"/><path d="M49.98399,48.42832c-0.92966,0-1.68342-0.75375-1.68342-1.68341V30.71364c0-0.92966,0.75375-1.68341,1.68342-1.68341   c0.92966,0,1.68341,0.75375,1.68341,1.68341v16.03127C51.6674,47.67457,50.91365,48.42832,49.98399,48.42832z"/></g></svg>