<svg xmlns="http://www.w3.org/2000/svg" xmlns:xlink="http://www.w3.org/1999/xlink" version="1.1" x="0px" y="0px" viewBox="0 0 66 82.5" enable-background="new 0 0 66 66" xml:space="preserve"><g><path d="M38.6,2c-3.5-1.3-7.4-1.4-11.1,0C12.3,4.7,1.3,17.8,1.3,33.3C1.3,51.1,15.8,65,33,65c17.4,0,31.8-14.2,31.8-31.8   C64.8,17.8,53.7,4.7,38.6,2z M47.8,17.6c-0.5,0.2-0.6,0.7-0.4,1.1c0,0,0,0,0,0l-0.3,0.4c-4.2-5.5-10.8,0.4-12.1,2.6   C30.6,15.9,26.1,11.5,21,8.6C29.8-3.3,48.1,3.5,47.8,17.6z M50.5,30.2c-0.2,0.2-0.9,0.5-1.5,0.8l0.1-4.7c0.7-1.7,0.8-3.5,0.6-5.2   c0.9-5,2.2-0.2,1.5,3c-0.2,0.9-1.6,2.7-1.4,4.1C49.8,28.6,50.4,29.8,50.5,30.2z M33,63.5c-7.8,0-15.4-3.1-21.1-8.6   c3.6-0.4,7.9-1.2,9.8-4.3c7.8,2.2,15.6,1.9,22.6,0c2,3.2,6.4,4,9.8,4.3C48.4,60.5,40.7,63.5,33,63.5z M25.3,48.5   c0.4,0.7,0.5,1,1.2,1.5c-1.5-0.2-2.4-0.4-4.2-0.9c0.4-1,0.6-2.1,0.6-3.2C23.7,46.7,24,47.6,25.3,48.5z M31.2,37.5   c1,1.1,1.2,1.8,1.8,1.7c0.6,0,0.7-0.5,1.8-1.7c2,1,4.9,2.8,5.4,3.8c0.7,1.5-0.1,5.4-1.1,7c-0.3,0.5-1.6,1.2-2.4,1.4   c-0.8,0.2-3.5,0-3.6,0c-0.1,0-2.8,0.2-3.6,0c-0.8-0.2-2.1-1-2.4-1.4c-1-1.6-2.1-6-0.8-7.4C27.1,39.9,29.5,38.5,31.2,37.5z M39.4,50   c0.7-0.5,0.9-0.8,1.2-1.5c1.3-0.9,1.7-1.8,2.3-2.6c0.1,1.1,0.3,2.2,0.6,3.2C41.7,49.6,40.7,49.8,39.4,50z M41.7,45.1   c0.2-1.3,0.4-3.2-0.2-4.4c-1-1.9-6-4.5-6.6-4.8c-0.8-0.4-1.3,0.8-1.9,1.4c-0.6-0.6-1.1-1.8-1.9-1.4c-0.6,0.3-5.6,2.8-6.6,4.8   c-0.6,1.2-0.5,3.1-0.2,4.4c-2.2-3.4-5.6-6-5.7-11.5l-0.1-4.5c0.9,1.2,1.5,2.5,1.8,3.8c1.2,4.6,0.8,6,1.8,6c0.5,0,0.8-0.4,0.7-0.9   c-1.1-4.3-0.8-6.6-3.2-9.9c-2.4-3.2-2.3-7.1-1-9.4c0.2-0.4,0.1-0.9-0.4-1.1c-0.1-2.8,0.6-5.4,2-7.8c5.1,3,9.7,7.4,14.1,13.6   c0,0.2,0,0.4,0.1,0.6c1,3.6,12.2,4,13.7-0.5c-0.5,4.1-3.1,4.8-3.9,9L43.1,38c-0.1,0.5,0.3,0.9,0.7,0.9c1.1,0,0.7-1.3,1.8-6   c0.3-1.3,0.9-2.6,1.8-3.8c-0.3,2.9,0.7,7.1-2.4,11.4L41.7,45.1z M17,31c-0.7-0.3-1.4-0.7-1.5-0.8c0-0.3,0.7-1.4,0.8-2.1   c0.2-1.3-1.2-3.1-1.4-4.1c-0.7-3.2,0.6-8,1.5-3c-0.3,1.7-0.1,3.5,0.6,5.2L17,31z M48.1,21.1c-0.1-0.2-0.1-0.4-0.2-0.5l0.1-0.1   C48,20.6,48,20.8,48.1,21.1z M46.7,21.7c1.4,4.8-10.2,4.3-10.9,2c-0.5-1.8,4.8-5.5,6.9-5.5C44.5,18.2,46.3,20,46.7,21.7z M22.4,4.9   C18.5,8.2,16.5,13,16.7,18c-0.7-0.8-1.9-0.8-2.6,0.1c-1.2,1.4-1,5.1-0.8,6.4c0.2,1,1.5,2.9,1.4,3.6c-0.1,0.5-1,1.7-0.7,2.7   c0.3,0.9,2.2,1.7,3,1.9l0,1c0.1,5.7,3.5,8.6,4.5,10.3c0,7.4-2.9,8.7-11,9.5C5.7,48.1,2.8,41,2.8,33.3C2.8,20.4,10.8,9.2,22.4,4.9z    M55.5,53.5c-8.3-0.9-11-2.2-11-9.6c1-1.6,4.4-4.5,4.5-10.3l0-1c0.7-0.2,2.7-1,3-1.9c0.3-1-0.7-2.2-0.7-2.7   c-0.1-0.7,1.2-2.5,1.4-3.6c0.3-1.2,0.4-4.9-0.7-6.3c-0.7-0.8-1.8-0.9-2.6-0.1c0.2-5-1.8-9.8-5.7-13.1c11.7,4.3,19.7,15.5,19.7,28.4   C63.3,41,60.3,48.1,55.5,53.5z"/><path d="M29.5,21.9c1.3,0.1,2.7,0.2,2.6-0.8c0-0.4-0.4-0.7-0.8-0.7c-4.6,0.5-6.9-2.4-8.7-3.2c-2.3-0.9-4.4,0.7-3.5,1.6   c1,1,1.1-1.6,4,0.5c-0.9,0.1-3.1,0.8-3.2,1.7c-0.1,1.1,5.1,5,9.3,1.9C29.4,22.7,29.7,22.3,29.5,21.9z M22,21.1   c2-0.9,3.8-0.4,5.5,0.9C26.9,22.3,23.7,22.5,22,21.1z"/><path d="M36.5,30.3c-0.2,0.3-0.2,0.8,0.2,1c0.7,0.5,0.5,1.8,0.1,2.5c-1-1.2-2.8-1.1-3.8,0.8c-0.9-2-2.7-2-3.8-0.8   c-0.4-0.8-0.6-2,0.1-2.5c0.3-0.2,0.4-0.7,0.2-1c-0.2-0.3-0.7-0.4-1-0.2C25.8,32,28.7,37.3,30,36c0.2-0.3,0.3-0.6,0.1-0.9   c0.3-0.1,0.9-1,1.4,0c0.2,0.4,0.2,0.5,0.4,0.7c0.4,0.5,1.2,0.4,1.1,0.4c0.9,0,1.1-0.3,1.4-0.9c0.1-0.1,0.2-0.6,0.7-0.7   c0.4,0,0.5,0.3,0.8,0.5c-0.5,0.8,0.5,1.6,1.1,0.9c1.1-1.1,1.7-2.4,1.6-3.7C38.5,30.8,37.3,29.3,36.5,30.3z"/><path d="M29.8,47.8c0.9,0.2,2.5-1.2,1.9-3.2c0.8,0,1.7,0,2.6,0c-0.7,2.1,1.1,3.3,1.9,3.2c1.6-0.3,4.1-1.5,3.7-5.7   c-0.1-1.3-4.6-2.5-6.8-2.3c-2.4-0.3-6.7,1.1-6.8,2.3C25.7,46.4,28.3,47.5,29.8,47.8z M29.9,46.3c-1.4-0.4-2.1-1.2-2.3-2.7   c0.8,0.4,1.7,0.7,2.4,0.9C30.3,45.1,30.6,45.9,29.9,46.3z M36.1,46.3c-0.7-0.4-0.5-1.1-0.1-1.8c0.7-0.1,1.6-0.5,2.4-0.9   C38.2,45.1,37.5,46,36.1,46.3z M33.1,41.4c1.9-0.3,3.6,0.4,4.6,0.9c-1.7,0.9-2.9,0.9-4.7,0.9c-1.7,0-3,0-4.7-0.9   C31,41,32.8,41.5,33.1,41.4z"/><path d="M34.7,17.4c0.6-1.8,1.9-3.4,3.5-4.4c3.8-2.2,6.1,0.1,6.4-1.4c0.5-2.2-9.1-2-11.4,5.4C33,17.9,34.4,18.4,34.7,17.4z"/></g></svg>