<svg xmlns="http://www.w3.org/2000/svg" xmlns:xlink="http://www.w3.org/1999/xlink" version="1.1" x="0px" y="0px" viewBox="0 0 66 82.5" enable-background="new 0 0 66 66" xml:space="preserve"><g><path d="M54.5,9.9c-0.4-3.2-1.4-6.2-3.6-8.7C50.7,1.1,50.5,1,50.2,1c-0.3,0-0.5,0.2-0.6,0.5L49.4,2c0,0.1,0,0.1,0,0.2   c-0.1,1.3-0.4,2.4-0.8,3.4c-1.6-0.9-3.2-1.7-4.9-2.3c0,0,0,0,0,0c0,0,0,0,0,0l0,0c-6.4-3.1-15-3.1-21.3,0l0,0   c-0.6,0.2-2.3,0.8-4.9,2.3c-1.1-2.4-0.5-4.4-1.6-4.6c-0.3,0-0.5,0.1-0.7,0.2C12.8,3.8,11.8,7,11.4,10C-9.3,29.1,3.4,65,33,65   C62.5,65,75.3,29.1,54.5,9.9z M26.9,62.9C14.3,60.3,3.8,49.6,2.8,35.3c3.8-3.6,5.8-4.1,9.3-13.7c1,5.7,2.3,11.8,0.2,17.5   c-0.9,2.5-0.6,5.3,0.8,7.4c4.9,7.1,12,11.2,12.7,11.2c0.4,0,1.2,0.3,1.6-0.4c0.1-0.3,0.1-0.6-0.1-0.8c-0.7-0.8-1.2-1.6-1.8-2.4   c4.8,4,10,4.2,15,0c-0.5,0.8-1.1,1.6-1.8,2.4c-0.2,0.2-0.2,0.6-0.1,0.8c0.1,0.3,0.4,0.4,0.7,0.4c0,0,0,0,0,0l0.8,0   c0.8,0,7.7-4,12.7-11.2c1.5-2.1,1.8-4.8,0.8-7.4c-2.2-5.7-0.7-12,0.2-17.4c3.5,9.5,5.6,10.1,9.3,13.6C61.8,53.8,45,66.3,26.9,62.9z    M19.8,29.3c0.1,0.4,0.5,0.6,0.8,0.6c1.2-0.2,3.1-0.5,3.7-0.3c1.4,0.3,5,2.3,6.3,3.1c0.1,0.1,0.3,0.1,0.4,0.1c0.8,0,1-1,0.4-1.4   c-6.5-3.9-7.2-3.7-11.1-3c-0.2,0-0.4,0.2-0.5,0.4c0.6-4.1,2-8.1,5.9-6.5c2.9,1.2,5,3.8,6.7,6.2c1.3,1.9,2.5-3.9,7.9-6.2   c1.7-0.7,3-0.4,4,0.9c1,1.3,1.6,3.3,1.9,5.5c-0.4-0.5-3.9-0.7-4.7-0.6c-1.9,0.4-6.3,3-6.8,3.3c-0.8,0.5-0.1,1.8,0.8,1.3   c1.3-0.8,5-2.9,6.3-3.1c0.6-0.1,2.5,0.1,3.7,0.3c0.3,0.1,0.7-0.1,0.8-0.4c0.9,7.4-0.5,12.8-3.2,19.7c-6.6,8.9-13.8,8.6-20.1,0   C20.2,42.1,18.9,36.7,19.8,29.3z M43,4.7C43,4.7,43,4.7,43,4.7c1.7,0.8,3,1.8,4.2,3.1C43.5,11.9,36,13,33,17.1   C29.9,13,22.6,12,18.8,7.8C24.3,1.8,35.6,1.1,43,4.7z M15.2,3.5c1.5,9.8,14.3,9.7,17.1,15.3c0.3,0.5,1.1,0.5,1.3,0   c2.9-5.7,15.6-5.4,17.1-15.3c6.9,10.2-3,24.3,1.5,36.1c0.8,2.1,0.5,4.3-0.6,6c-2.7,3.9-6.2,7.2-10.1,9.6c2.9-4.3,4.3-9.5,5.8-14.5   c0.8-2.9,1.5-14.1-1.8-18.5c-1-1.3-2.1-1.9-3.6-1.9c-0.7,0-1.5,0.2-2.2,0.5c-2.9,1.2-5.1,3.6-6.7,5.8c-1.7-2.3-3.8-4.7-6.7-5.8   c-2.4-1-4.4-0.5-5.8,1.4c-3.3,4.4-2.6,15.6-1.8,18.4l0.1,0.3c1.4,4.9,2.8,10,5.7,14.2c-3.9-2.4-7.4-5.7-10.1-9.6   c-1.2-1.7-1.4-3.9-0.6-6C18.2,27.6,8.4,13.9,15.2,3.5z M11.3,12.2c-0.1,2.2,0.1,4.1,0.4,6.3C8,29.3,6.3,30.2,2.7,33.4   c0,0,0-0.1,0-0.1C2.7,25.4,5.8,17.8,11.3,12.2z M63.3,33.4c-0.3-0.2-0.5-0.5-0.8-0.7c-3-2.6-4.8-4.2-8.2-14.2   c0.3-2.1,0.5-4.2,0.4-6.3C60.3,17.9,63.3,25.6,63.3,33.4z"/><path d="M34.9,43.8c0.3-0.3,0.6-0.6,1-0.8c0.3-0.2,0.8-0.2,1.2-0.2c1,0,1-1.5,0-1.5c0,0,0,0,0,0c-0.5,0-1.2,0-1.8,0.3   c-0.6,0.3-1.1,0.7-1.4,1.1c-0.3,0.3-0.3,0.8,0,1.1C34.2,44.1,34.6,44.1,34.9,43.8z"/><path d="M28.2,42.1c0,1.1,1.2,0.6,2,0.9c0.6,0.3,1,1,1.5,1c0.7,0,1-0.8,0.5-1.3c-1.1-1.1-1.7-1.3-3.2-1.4   C28.9,41.4,28.2,41.4,28.2,42.1z"/><path d="M31.3,44.9c-3.6,0.6-4.9-0.2-4.9-0.2c-0.8-0.6-1.8,0.7-0.7,1.3c0.1,0.2,0.9,0.7,1.4,1.6c1.8,3.6,10.1,3.6,11.9,0   c0.5-0.9,1.3-1.6,1.3-1.6c0,0,0.3-0.2,0.4-0.3c0.7-0.6-0.2-1.7-1-1.2c-0.1,0-1.3,0.8-4.9,0.2c-1.2-0.2-1.4,0.5-2,0.2   C32.3,44.9,31.8,44.9,31.3,44.9z M32,46.5c0.6,0.4,1.4,0.4,2.1,0c0.1-0.1,0.3-0.1,0.4-0.1c1.4,0.2,2.5,0.3,3.4,0.2   c-0.1,0.1-0.1,0.2-0.2,0.4c0,0.1-1.1,1.9-4.6,1.9c-2.8,0-4-1-4.8-2.3c0.9,0.1,2,0,3.4-0.2C31.7,46.4,31.9,46.4,32,46.5z"/><path d="M19.7,32.4c1.5,3.6,4.2,4.3,6.2,4.3c1,0,3.8-0.3,3.5-1.5c-1.8-6.1-7-3.1-8.7-3.8c-0.3-0.1-0.6-0.1-0.8,0.2   C19.6,31.8,19.6,32.1,19.7,32.4z M27.6,35c-2.4,0.6-4.6,0.1-5.9-2C22.1,33,26.4,31.9,27.6,35z"/><path d="M40.2,36.7c2,0,4.6-0.8,6.2-4.3c0.3-0.6-0.4-1.3-1-1c-1.6,0.7-6.8-2.3-8.7,3.8C36.4,36.5,39.3,36.7,40.2,36.7z M44.4,33   c-1.4,2.1-3.6,2.6-5.9,2C39.2,33,42,32.9,44.4,33z"/></g></svg>