<svg xmlns="http://www.w3.org/2000/svg" data-name="Layer 1" viewBox="0 0 100 125" x="0px" y="0px"><title>avengers icon</title><path d="M54.34,96.88l-7.77,0c-8.18-3.08-21-16.91-22.72-22.15C22.33,69.94,19,55.09,18.92,54.94s-2.6-13.52,0-25.92C22,14.37,32.92,5.18,49.69,3.12h.56C67.08,5.18,78,14.37,81.08,29c2.6,12.4,0,25.77,0,25.91s-3.41,15-4.93,19.77c-1.6,5-13.44,19-21.72,22.15Zm-7.5-1h7.32c7.89-3,19.53-16.78,21-21.49s4.87-19.52,4.9-19.67,2.56-13.3,0-25.5C77.12,15,66.5,6.11,50.19,4.12h-.44C33.5,6.11,22.88,15,19.9,29.22c-2.56,12.2,0,25.38,0,25.51s3.39,14.94,4.9,19.66C26.23,78.85,38.58,92.71,46.84,95.88Z"/><path d="M34.13,64.06a11.67,11.67,0,0,1-7.25-2.52c-10.65-8.23-4.65-22.84-4.59-23l.23-.53.49.3s3.42,2,13.47,5.58c10.4,3.69,12.05,11.28,12.11,11.6l0,.1v.1c-.24,1.23-4.44,5.5-9.42,7.38A14.13,14.13,0,0,1,34.13,64.06ZM23,39.46c-.93,2.62-4.46,14.39,4.47,21.29,3.19,2.46,6.89,3,11,1.52,4.87-1.73,8.69-5.73,9.09-6.68-.25-1-2.28-7.49-11.44-10.75A103,103,0,0,1,23,39.46Z"/><path d="M65.87,64.06a14.13,14.13,0,0,1-5.05-1c-5-1.88-9.18-6.15-9.42-7.38v-.1l0-.1c.06-.32,1.71-7.91,12.11-11.6C73.57,40.33,77,38.34,77,38.32l.49-.3.23.53c.06.15,6.06,14.76-4.59,23A11.67,11.67,0,0,1,65.87,64.06ZM52.41,55.59c.4.94,4.22,4.95,9.09,6.68a11,11,0,0,0,11-1.52c8.93-6.9,5.4-18.67,4.47-21.29a103,103,0,0,1-13.13,5.38C54.69,48.1,52.66,54.64,52.41,55.59Z"/><polygon points="73.39 78.2 71.29 72.43 63.68 64.08 56.4 71.38 43.6 71.38 36.32 64.08 28.71 72.43 26.7 78.19 25.76 77.87 27.9 71.83 36.28 62.63 44.01 70.38 55.99 70.38 63.72 62.63 72.2 72 74.33 77.86 73.39 78.2"/><polygon points="58.34 84.83 41.66 84.83 27.84 72.42 19.48 58.05 22.28 55.2 22.99 55.9 20.73 58.2 28.66 71.85 42.05 83.83 57.95 83.83 71.34 71.85 79.3 58.16 77.2 55.34 78 54.74 80.49 58.09 72.06 72.54 58.34 84.83"/><polygon points="47.02 52.86 46.48 52.02 49.5 50.08 49.75 3.62 50.75 3.62 50.5 50.63 47.02 52.86"/><polygon points="52.97 52.86 49.61 50.67 42.36 41.84 34.05 19.22 34.07 19.09 35.81 7.27 36.8 7.42 35.08 19.11 43.27 41.41 50.34 49.98 53.52 52.02 52.97 52.86"/><polygon points="53.09 62.25 46.91 62.25 44.27 59.68 44.97 58.97 47.32 61.25 52.68 61.25 55.03 58.97 55.73 59.68 53.09 62.25"/><polygon points="18.69 37.24 17.81 36.76 23.7 25.82 34.47 18.68 50.03 15.68 50.22 16.66 34.76 19.64 24.46 26.51 18.69 37.24"/><polygon points="81.43 37.21 75.66 26.49 65.37 19.61 49.91 16.63 50.09 15.65 65.84 18.73 76.42 25.8 76.48 25.91 82.31 36.74 81.43 37.21"/><polygon points="50.38 50.68 49.62 50.03 56.85 41.41 65.05 19.09 63.2 7.42 64.19 7.27 66.08 19.19 66.03 19.31 57.67 41.99 50.38 50.68"/><polygon points="42.35 93.69 41.35 93.69 41.35 84.33 43.34 70.7 46.65 61.58 47.58 61.92 44.29 71 42.35 84.4 42.35 93.69"/><polygon points="57.65 94.31 57.65 84.33 55.71 71 52.42 61.92 53.35 61.58 56.69 70.8 58.64 84.26 58.65 94.31 57.65 94.31"/><polygon points="69.27 43.2 59.69 34.96 50 32.73 40.34 34.86 27.39 41.82 23.58 26.17 23.58 17.75 24.58 17.75 24.58 26.11 28.05 40.33 40.05 33.9 50 31.71 60.16 34.04 68.89 41.55 75.58 25.95 76.89 20.07 77.86 20.29 76.53 26.25 69.27 43.2"/><path d="M37,45.12a.68.68,0,0,1-.19,0l.36-.94-.18.47,0-.49a44,44,0,0,0,5.58-2.9l.12-.06H57.44l4.59,3-.56.83-4.33-2.87H43C38.49,44.74,37.37,45.12,37,45.12Z"/></svg>