<svg xmlns="http://www.w3.org/2000/svg" data-name="Layer 1" viewBox="0 0 100 125" x="0px" y="0px"><title>avengers icon</title><path d="M68.93,63.22a2,2,0,0,1-1.43-.76c-.87-.93-1.37-1.67-1.18-2.46.14-.57,1.63-1.87,2.86-2.87.07-.05,3.38-2.33,3.41-5.39,0-4-.83-8.63-2.84-9.78-2.28-1.3-11.68-.22-14.14,2a5.3,5.3,0,0,1-3.3.91A5.39,5.39,0,0,1,49.06,44C46.55,41.74,37.15,40.66,34.87,42c-2,1.15-2.88,5.74-2.84,9.78,0,3.07,3.34,5.34,3.37,5.36,1.27,1,2.76,2.33,2.9,2.9.18.79-.32,1.52-1.19,2.46-1.14,1.23-2,.59-2.08.56-4.6-2.23-5.76-3.89-6.69-5.22L28,57.33c-1.22-1.67-3.22-16.88-1.19-20.18a7.53,7.53,0,0,1,5.74-3.62H42.68l.12.07a16.15,16.15,0,0,0,5.54,1.73h8a16.4,16.4,0,0,0,5.49-1.73l.12-.07H72a7.5,7.5,0,0,1,5.75,3.62c2,3.3,0,18.52-1.19,20.18l-.33.47c-.93,1.33-2.09,3-6.77,5.27h0A1.1,1.1,0,0,1,68.93,63.22Zm-2.79-22.8a9.31,9.31,0,0,1,4.1.67c2.53,1.44,3.39,6.64,3.35,10.66,0,3.59-3.66,6.08-3.82,6.18a16.65,16.65,0,0,0-2.49,2.34c-.06.26.22.72,1,1.51.4.43.68.46.78.42,4.49-2.2,5.52-3.68,6.43-5l.35-.48c.88-1.2,3-16,1.14-19.07A6.58,6.58,0,0,0,72,34.53H62.21a17.11,17.11,0,0,1-5.83,1.79H48.29a17.27,17.27,0,0,1-5.89-1.8H32.58a6.53,6.53,0,0,0-4.91,3.14c-1.88,3.07.26,17.86,1.15,19.07l.34.48c.91,1.3,1.94,2.78,6.39,5,.14.07.42,0,.83-.39.73-.79,1-1.25.94-1.54a18.39,18.39,0,0,0-2.51-2.34c-.12-.07-3.75-2.56-3.78-6.15,0-4,.82-9.22,3.35-10.66s12.5-.4,15.3,2.16h0a4.43,4.43,0,0,0,2.5.65h.19A4.44,4.44,0,0,0,55,43.2C56.89,41.47,62.18,40.42,66.14,40.42Z"/><path d="M35.66,77l-.33-.39c-.28-.33-6.92-8.13-7.9-9.93a12,12,0,0,1-1.15-5.86c0-2,.25-9.58.26-9.9l1,0c0,.08-.29,7.85-.26,9.85a10.92,10.92,0,0,0,1,5.39c.81,1.5,6.08,7.74,7.46,9.37l.52-.46L35.18,62.75l1-.09,1.15,12.82Z"/><path d="M68.91,77.06l-1.66-1.48L68.4,62.77l1,.09L68.29,75.17l.52.46c1.38-1.63,6.65-7.87,7.46-9.37a11,11,0,0,0,1-5.39c0-2-.26-9.77-.26-9.85l1,0c0,.32.29,7.87.26,9.89a12,12,0,0,1-1.15,5.86c-1,1.81-7.62,9.6-7.9,9.93Z"/><path d="M42.5,79.1l-.3-.39a27,27,0,0,0-3.53-4,6.05,6.05,0,0,0-1.54,1l-.64-.77a6.13,6.13,0,0,1,2.13-1.23c.26,0,.87-.11,4.08,4l1-.72c.11-3.92.21-9.81,0-10.63-.16-.65-3.35-3.54-6.2-5.85l.62-.78c1.46,1.18,6.24,5.12,6.55,6.4s0,10.12,0,11.13v.24Z"/><path d="M62.08,79.21,59.9,77.6v-.24c0-1-.29-9.9,0-11.13S65,61,66.45,59.83l.63.78c-2.85,2.31-6,5.2-6.2,5.85-.2.82-.11,6.71,0,10.63l1,.73c3.21-4.17,3.82-4.09,4.08-4A6,6,0,0,1,68.09,75l-.64.77a6,6,0,0,0-1.54-1,26.29,26.29,0,0,0-3.53,4Z"/><path d="M42.59,64.29l-.74-.68c.16-.17,3.9-4.19,11.26-4s9.94,3.61,10,3.76l-.81.59s-2.43-3.15-9.27-3.35S42.63,64.25,42.59,64.29Z"/><path d="M40.91,62.79l-.7-.7c.21-.22,5.36-5.28,12.31-4.85,6.52.4,8.86,2.14,11.57,4.16l.58.43-.59.8-.58-.43c-2.69-2-4.81-3.58-11-4C46,57.84,41,62.74,40.91,62.79Z"/><polygon points="59.59 81.39 54.67 78 52.99 79.45 51.99 79.45 50.3 78 45.44 81.35 43.73 77.44 44.64 77.04 45.87 79.84 50.37 76.74 52.36 78.45 52.62 78.45 54.61 76.74 59.06 79.81 59.92 77.19 60.87 77.5 59.59 81.39"/><path d="M43.12,94.5h-.21l-.13,0-5.14-1.69a36.6,36.6,0,0,1-8.82-9.34l-.16-.26.16-.27c.14-.22,3.45-5.41,6.66-7.11l.47.88c-2.58,1.37-5.4,5.44-6.11,6.51a36.46,36.46,0,0,0,8.32,8.73L43,93.5a3.66,3.66,0,0,0,2.81-1.13,4.83,4.83,0,0,0,1.42-3.3c-.06-1.72-2.06-8.26-2.08-8.33l1-.29c.08.27,2,6.73,2.12,8.59a5.9,5.9,0,0,1-1.71,4A4.74,4.74,0,0,1,43.12,94.5Z"/><path d="M29.61,82.49c-.17-.17-4.1-4-5.31-8l-.09-.31.23-.21c.16-.15,3.94-3.56,6.25-4.15l.24,1c-1.76.45-4.72,3-5.58,3.7,1.25,3.59,4.92,7.22,5,7.25Z"/><path d="M25.16,74.21A2.69,2.69,0,0,1,24,71.31l.06-.12c1.15-1.9,5.21-2.94,5.38-3l.24,1c-1,.26-3.89,1.21-4.73,2.47a1.64,1.64,0,0,0,.81,1.72Z"/><path d="M24.7,70.89c-.51-1-1-2.33-.47-2.92a2.46,2.46,0,0,1,3.07-.8l.12.1,1.27,1.46-.76.66L26.72,68c-.75-.38-1.59.47-1.75.65a5.35,5.35,0,0,0,.62,1.8Z"/><path d="M27.18,67.5l-1-.12a9.43,9.43,0,0,1,.65-2.7l.84.53A9.29,9.29,0,0,0,27.18,67.5Z"/><path d="M25.37,68h-1c0-.45.08-4.42,2.2-5.38l.41.91C25.67,64.17,25.38,67,25.37,68Z"/><path d="M61.34,94.5a4.78,4.78,0,0,1-3.43-1.42,5.83,5.83,0,0,1-1.7-4c.06-1.88,2.55-8.35,2.65-8.62l.93.36c-.7,1.82-2.53,6.88-2.58,8.29a4.86,4.86,0,0,0,1.41,3.3,3.77,3.77,0,0,0,2.81,1.13l4.86-1.58a36.42,36.42,0,0,0,8.33-8.73c-.72-1.07-3.53-5.14-6.11-6.51L69,75.8c3.21,1.7,6.52,6.89,6.66,7.11l.17.27-.16.26a36.56,36.56,0,0,1-8.83,9.34l-.13.06-5.14,1.65Z"/><path d="M74.85,82.49l-.7-.72s3.7-3.67,4.95-7.25c-.86-.75-3.81-3.25-5.58-3.7l.25-1c2.31.59,6.08,4,6.24,4.15l.24.21-.09.31C78.94,78.44,75,82.32,74.85,82.49Z"/><path d="M79.29,74.21l-.55-.84a1.63,1.63,0,0,0,.81-1.72c-.83-1.26-3.68-2.21-4.73-2.47l.25-1c.17,0,4.22,1.08,5.38,3l0,.12A2.67,2.67,0,0,1,79.29,74.21Z"/><path d="M79.76,70.89l-.89-.45a4.52,4.52,0,0,0,.58-1.85c-.13-.13-1-1-1.71-.6l-1.22,1.4-.75-.66,1.38-1.56a2.45,2.45,0,0,1,3.07.8C80.76,68.56,80.27,69.88,79.76,70.89Z"/><path d="M77.27,67.5a8.84,8.84,0,0,0-.5-2.29l.85-.53a9.78,9.78,0,0,1,.65,2.7Z"/><path d="M79.08,68c0-1-.3-3.88-1.61-4.47l.42-.91c2.11,1,2.19,4.93,2.19,5.38Z"/><polygon points="55.49 91.92 53.37 88.37 51.21 88.37 49.1 91.89 47.24 88.63 48.11 88.14 49.12 89.91 50.64 87.37 53.94 87.37 55.44 89.88 56.35 88.17 57.23 88.63 55.49 91.92"/><polygon points="54.51 93.76 49.95 93.76 48.66 91.12 49.56 90.68 50.57 92.76 53.91 92.76 55.03 90.66 55.91 91.14 54.51 93.76"/><polygon points="60.47 66.72 55.05 64.94 52.41 65.83 52.31 65.8 49.93 64.94 44.51 66.72 44.2 65.77 49.94 63.88 52.49 64.8 55.04 63.88 60.78 65.77 60.47 66.72"/><polygon points="60.47 69.56 55.05 67.78 52.41 68.66 52.31 68.63 49.93 67.78 44.51 69.56 44.2 68.61 49.94 66.72 52.49 67.64 55.04 66.72 60.78 68.61 60.47 69.56"/><polygon points="44.51 72.39 44.2 71.44 49.94 69.56 52.49 70.47 55.04 69.56 60.78 71.44 60.47 72.39 55.05 70.61 52.41 71.5 52.31 71.47 49.93 70.61 44.51 72.39"/><polygon points="60.47 75.23 55.05 73.45 52.41 74.34 52.31 74.31 49.93 73.45 44.51 75.23 44.2 74.28 49.94 72.39 52.49 73.31 55.04 72.39 60.78 74.28 60.47 75.23"/><polygon points="60.47 78.07 55.05 76.29 52.41 77.18 52.31 77.15 49.93 76.29 44.51 78.07 44.2 77.12 49.94 75.23 52.49 76.15 55.04 75.23 60.78 77.12 60.47 78.07"/><path d="M40.88,58.16a8,8,0,1,1,8-8A8,8,0,0,1,40.88,58.16Zm0-15a7,7,0,1,0,7,7A7,7,0,0,0,40.88,43.16Z"/><path d="M40.88,55.78a5.63,5.63,0,1,1,5.62-5.62A5.63,5.63,0,0,1,40.88,55.78Zm0-10.25a4.63,4.63,0,1,0,4.62,4.63A4.64,4.64,0,0,0,40.88,45.53Z"/><path d="M63.74,58.16a8,8,0,1,1,8-8A8,8,0,0,1,63.74,58.16Zm0-15a7,7,0,1,0,7,7A7,7,0,0,0,63.74,43.16Z"/><path d="M63.74,55.78a5.63,5.63,0,1,1,5.62-5.62A5.63,5.63,0,0,1,63.74,55.78Zm0-10.25a4.63,4.63,0,1,0,4.62,4.63A4.64,4.64,0,0,0,63.74,45.53Z"/><path d="M26.27,60.85a168,168,0,0,1-1.91-20.29,52,52,0,0,1,.41-6.93l1,.12a51.8,51.8,0,0,0-.4,6.8,164.44,164.44,0,0,0,1.9,20.14Z"/><path d="M78.34,60.85l-1-.16a163.55,163.55,0,0,0,1.91-20.14,47.55,47.55,0,0,0-.45-7,36.35,36.35,0,0,0-1.55-7c-1.66-.75-13.89-6.19-25-7.86A97,97,0,0,0,33,24.2l-.36-.93a97,97,0,0,1,19.59-5.58h.17c12,1.8,25.35,8,25.48,8l.18.08.08.19a36.12,36.12,0,0,1,1.67,7.4,49.51,49.51,0,0,1,.46,7.16A164.9,164.9,0,0,1,78.34,60.85Z"/><path d="M25.82,36.74a.5.5,0,0,1-.48-.37,31.77,31.77,0,0,1-.86-4.67c-.59,2.36-1.05,4.61-1.06,4.64a.45.45,0,0,1-.49.4.5.5,0,0,1-.49-.41,30.77,30.77,0,0,1-.16-7.94l-2,1.85a.51.51,0,0,1-.53.09.49.49,0,0,1-.31-.44c-.2-4,2.69-9.5,3.95-11.7l-2.61.48a.5.5,0,0,1-.43-.85c3.3-3.15,9.62-6.68,11.94-7.93l-2.44-1.2a.51.51,0,0,1-.28-.51.52.52,0,0,1,.4-.43c5-1,11.39-.75,14.4-.53L43.3,6.4a.52.52,0,0,1-.16-.56.51.51,0,0,1,.47-.34h0c5.86,0,14.43,2.87,17.85,4.1L60.21,7.77A.5.5,0,0,1,60.73,7c2.12.44,9.17,5.25,11.56,6.91V11.12a.49.49,0,0,1,.89-.3c.22.27,5.22,6.86,6.61,11s.07,11.43,0,11.74a.5.5,0,1,1-1-.19c0-.07,1.34-7.28,0-11.23-1-3-4-7.39-5.55-9.51v2.23a.51.51,0,0,1-.79.41A111.57,111.57,0,0,0,62,8.56l1.21,1.78a.51.51,0,0,1,0,.59.48.48,0,0,1-.57.15c-.11,0-10.28-4-17.43-4.51l1.16.9a.5.5,0,0,1-.36.9,67.29,67.29,0,0,0-14.29.1l1.94.95a.49.49,0,0,1,.28.44.49.49,0,0,1-.27.45,82.94,82.94,0,0,0-11.21,7L24.29,17a.5.5,0,0,1,.51.76c0,.07-3.92,6.32-4.34,11l2.14-2a.5.5,0,0,1,.57-.07.51.51,0,0,1,.26.51,37.4,37.4,0,0,0-.31,5.91c.36-1.57.83-3.44,1.28-4.88a.49.49,0,0,1,.57-.34.5.5,0,0,1,.4.53,21.7,21.7,0,0,0,.33,4.86,11.48,11.48,0,0,1,2.23-5c2.36-2.73,4.5-4.89,4.52-4.91a.5.5,0,0,1,.71,0,.5.5,0,0,1,0,.7S31,26.24,28.69,28.94s-2.37,7.27-2.37,7.31a.5.5,0,0,1-.44.49Z"/></svg>