<svg xmlns="http://www.w3.org/2000/svg" data-name="Layer 1" viewBox="0 0 100 125" x="0px" y="0px"><title>avengers icon</title><path d="M50.16,53.68l-.52,0c-4-1.5-5.26-2.92-5.32-3l-.09-.17-.76-2.18.94-.33.72,2.08a14.82,14.82,0,0,0,4.78,2.61H50a14.82,14.82,0,0,0,4.78-2.61L55.47,48l1,.33-.86,2.35c-.05.06-1.35,1.48-5.32,3Z"/><path d="M50.48,97.08h-1c-22,0-30.9-16.09-31.76-23.88-.73-6.6,2.35-25.95,2.48-26.77L26,16.17C30.76,2.85,49.37,2.94,49.52,2.92h1c.2,0,18.76-.08,23.55,13.17l5.73,30.33c.13.83,3.21,20.18,2.48,26.78C81.38,81,72.49,97.08,50.48,97.08Zm-1-93.16c-.82,0-18.12.17-22.58,12.51L21.22,46.6c0,.19-3.18,20-2.47,26.49.83,7.5,9.44,23,30.77,23h1c21.33,0,29.94-15.49,30.77-23,.71-6.46-2.44-26.3-2.48-26.5l-5.7-30.23C68.55,3.86,50.68,3.91,50.49,3.92h-1Z"/><path d="M45.1,38.25c-3-.77-11.25-2.33-13.42-.29L31,37.24c3-2.8,13.19-.25,14.35,0Z"/><path d="M39.59,39.86a1.7,1.7,0,0,1-1-.28,1.74,1.74,0,1,1,1.32.24A1.61,1.61,0,0,1,39.59,39.86Zm0-2.49-.16,0a.73.73,0,0,0-.57.88h0a.75.75,0,0,0,.32.47.72.72,0,0,0,.57.1.74.74,0,0,0,.57-.88A.76.76,0,0,0,39.59,37.37Z"/><path d="M46.23,37c-1.13,0-9.31-3.8-12.21-5.17l-2.4,1.65-.56-.82,2.87-2,.26.13c5.28,2.49,11.29,5.15,12,5.19a1.12,1.12,0,0,0,1-.57l.92.4a2.13,2.13,0,0,1-2,1.17Z"/><path d="M54.9,38.25l-.25-1C55.81,37,66,34.44,69,37.24l-.68.72C66.15,35.92,57.9,37.48,54.9,38.25Z"/><path d="M60.42,39.86a1.64,1.64,0,0,1-.38,0,1.74,1.74,0,1,1,2.08-1.34h0a1.73,1.73,0,0,1-.76,1.1A1.69,1.69,0,0,1,60.42,39.86Zm0-2.49a.76.76,0,0,0-.73.59.74.74,0,0,0,.57.88.76.76,0,0,0,.57-.1.75.75,0,0,0,.32-.47h0a.73.73,0,0,0-.57-.88Z"/><path d="M53.77,37h0a2.15,2.15,0,0,1-2-1.17l.92-.4-.46.2.46-.2a1.13,1.13,0,0,0,1.05.57c.74,0,6.75-2.7,12-5.19l.26-.13,2.87,2-.56.82L66,31.78C63.08,33.15,54.9,37,53.77,37Z"/><path d="M19.74,53.68h-.11c-2-.08-2.27-.49-2.35-3.66A9.79,9.79,0,0,0,17,47.59a22.25,22.25,0,0,1-.5-6.35c.06-4.94,1.17-7.77,3.4-8.62,1.08-.41,2.42.69,3.33,1.55l.09.09-.31.37.16.5c-.29.1-.46-.07-.63-.23-1.51-1.44-2.1-1.42-2.28-1.35-.66.26-2.68,1-2.76,7.71a21.74,21.74,0,0,0,.47,6.1A10.36,10.36,0,0,1,18.28,50c.07,2.63.07,2.63,1.39,2.68h.11Z"/><path d="M80.25,53.68l0-1h.11c1.33-.05,1.33-.05,1.39-2.68a10.84,10.84,0,0,1,.36-2.63,21.15,21.15,0,0,0,.48-6.1c-.09-6.68-2.1-7.45-2.77-7.71-.18-.07-.77-.09-2.28,1.35a.57.57,0,0,1-.63.23l.32-1-.17.48-.3-.4.1-.09c.91-.86,2.24-2,3.32-1.55,2.23.85,3.34,3.68,3.41,8.62A22.07,22.07,0,0,1,83,47.59,10.3,10.3,0,0,0,82.7,50c-.08,3.17-.34,3.58-2.35,3.66Z"/><path d="M60,65c-13.82-1.71-20,0-20.06,0l-.27-1c.25-.08,6.4-1.76,20.45,0Z"/><rect x="46.28" y="67.83" width="7.33" height="1"/><path d="M49.45,96.68c-.16-.76,0-21,0-25h1c-.06,9.56-.12,24,0,24.82Z"/><path d="M44.67,96.68c-.16-.76,0-21,0-25h1c-.06,9.56-.11,24,0,24.82Z"/><path d="M39.82,95.53c0-6.09.06-22.49.06-22.66h1c0,.16-.11,16.56-.06,22.64Z"/><path d="M36,94H35c0-7.35.08-19.29.08-19.29h1S36,86.62,36,94Z"/><path d="M31.26,91.47h-1c0-7,.07-15.31.07-15.31h1S31.28,84.46,31.26,91.47Z"/><rect x="54.27" y="71.67" width="1" height="24.7"/><rect x="58.67" y="72.87" width="1" height="22.77"/><rect x="63.06" y="74.79" width="1" height="19.53"/><rect x="67.45" y="76.16" width="1" height="16.09"/><polygon points="31.45 70.42 30.51 70.09 34.33 58.82 41.41 51.85 42.11 52.56 35.2 59.36 31.45 70.42"/><polygon points="68.55 70.42 64.8 59.36 57.89 52.56 58.59 51.85 65.67 58.82 69.49 70.09 68.55 70.42"/></svg>