<svg xmlns="http://www.w3.org/2000/svg" xmlns:xlink="http://www.w3.org/1999/xlink" version="1.1" x="0px" y="0px" viewBox="0 0 90 112.5" enable-background="new 0 0 90 90" xml:space="preserve"><rect x="10.313" y="15.493" transform="matrix(0.8083 -0.5888 0.5888 0.8083 -12.0135 22.6491)" width="36.916" height="28.556"/><g><g><g><polygon points="20.623,53.41 14.986,54.525 14.986,54.526 14.985,54.526 1,35.33 3.788,30.304    "/></g></g></g><g><g><g><polygon points="53.72,29.26 56.507,24.238 56.509,24.237 42.525,5.042 36.889,6.154    "/></g></g></g><path d="M84.652,63.861c-2.575,0.55-14.515,17.532-14.515,17.532l-5.332,3.865c0,0,18.849-2.428,21.941-12.365  C89.84,62.961,87.23,63.314,84.652,63.861z M84.901,72.701c-4,7.041-18.792,11.712-18.792,11.712l4.709-3.409  c0,0,11.916-13.122,13.973-13.902C86.849,66.32,88.902,65.659,84.901,72.701z"/><polygon points="33.726,42.595 39.659,38.272 42.552,42.243 41.488,47.019 36.619,46.566 "/><polygon points="37.476,47.744 42.336,48.182 43.41,43.422 45.392,46.143 44.328,50.916 39.458,50.465 "/><polygon points="40.316,51.643 45.177,52.081 46.25,47.32 48.232,50.041 47.169,54.814 42.299,54.364 "/><polygon points="43.181,55.574 47.901,55.817 49.115,51.253 70.805,81.025 64.871,85.347 "/></svg>