<svg xmlns="http://www.w3.org/2000/svg" xmlns:xlink="http://www.w3.org/1999/xlink" version="1.1" x="0px" y="0px" viewBox="0 0 66 82.5" enable-background="new 0 0 66 66" xml:space="preserve"><g><path d="M40.3,2.3C38.1,1.5,35.7,1,33.2,1c0,0-0.1,0-0.1,0c0,0,0,0,0,0c0,0,0,0,0,0c-0.6,0-1.1,0-1.7,0.1c-1.9,0.2-3.7,0.6-5.4,1.2   C11.5,5.7,1.4,18.4,1.4,33.3C1.4,50.9,15.7,65,33.1,65C70.7,65,76.6,10.7,40.3,2.3z M33.1,63.5c-10.8,0-20.9-5.8-26.4-15.5   c3.2-2.2,7.1-3.9,11.3-5.1c4.4,10,4.7,14.3,13.2,14.3c0.8,0,1.6,0,2.3-0.1c2.7-0.1,2.9,0,3.1,0c3.3,0,6.2-1.9,7.6-4.9l4.1-9.3   c4.2,1.2,8.1,3,11.3,5.1C54.2,57.6,44.1,63.5,33.1,63.5z M17,16.9c-0.3-1.4,0.7-2.1,2.6-3.2c3.4-2.1,1.9-2.4,7.2-0.4   c1.1,0.4,1.2,1,2.1,4.3c0.5,1.8,1.1,4.4,2.3,8c0.3,0.9,1.4,0.4,3.3,0.5c0.3,0,0.6-0.2,0.7-0.5c4.1-12.5,1.8-11.4,6.2-12.9   c1.3-0.5,2.2-1,3.3-0.3c2.6,2.1,5,2.6,4.6,4.7c-1.1,5.2-1.1,5.1-1.1,5.3c0.1,6.5-0.4,3.8,1.5,6.8l0.8,5.3l-7.6,17.3   c-1.1,2.4-3.5,4-6.1,4c-0.8-0.1-2-0.1-3.3,0c-0.7,0-1.5,0.1-2.2,0.1c-7.4,0-7.2-3.2-12-13.8c0-0.1,0-0.2-0.2-0.4   c-0.1-0.1-0.1-0.3-0.2-0.4c0-0.2-0.1-0.3-0.2-0.4c-1.2-2.8-2.1-4.8-2.8-6.4l0.8-5.1c1.9-2.9,1.4-0.6,1.5-6.8   C18,22.1,18.1,22.3,17,16.9z M16.8,40.3c-1.3-0.1-1.6-0.3-1.6-0.3c-1.9-1.7-4.9-8.4-3.7-9.9c0.1,0,0.6,0.1,1.7,0.6   C13.7,33.5,15.6,37.4,16.8,40.3z M53.1,30.6c1.1-0.6,1.5-0.6,1.7-0.6c1.2,1.6-1.9,8.3-3.7,9.9c0,0-0.3,0.2-1.7,0.3   C50.8,36.5,52.3,34.3,53.1,30.6z M51.9,20c-0.1,1.4,0,2.6,0,3.9c0.1,2.6,0.1,4.8-0.6,7.4c-0.6-3.9,0-2.1-1.8-4.8v-4.2   c0.3-3.2,2.5-6.7-0.4-8.7L45.4,11c-1.7-1.2-3.3-0.4-4.6,0.1c-2.2,0.8-3.5,1.2-4,3.1l-3,10.4h-1.5c-3.8-12.1-1.9-11.4-6.4-13.2   c-4.4-1.7-4.3-0.7-7.2,1.1c-6.1,3.7-1.9,4.1-2.2,14.1c-2.1,3.1-1,1-1.8,4.5c-0.7-2.8-0.7-9.6-0.2-12.5c1.5-9.3,9.3-15.9,18.6-16   c8.1,0,15.2,5.3,17.7,12.9c0.5,1.6,0.5,1.8,0.7,2.6L51.9,20z M19.6,6.2C13,12.2,12,20,12.9,28.8C10.7,28,9.7,29,9.7,31.2   c0.1,3,2.6,8.2,4.5,9.9c0.3,0.2,0.8,0.6,2.2,0.7C12.6,43,9,44.6,6,46.7c-2-4-3.1-8.6-3.1-13.4C2.9,21.7,9.6,11.3,19.6,6.2z    M60.2,46.6c-3-2-6.6-3.7-10.4-4.9c1.4-0.1,2-0.4,2.2-0.7c3.9-3.5,7-14.5,1.3-12.2c0.9-8.7-0.3-16.9-6.8-22.7   c10.2,5,16.9,15.3,16.9,27.1C63.4,38.1,62.2,42.6,60.2,46.6z"/><path d="M31,42.4c0.6,0.6,1.3,0.9,2.1,0.9c0.1,0,1.2,0.1,2.1-0.9c0.7-0.7-0.4-1.8-1.1-1.1c-0.6,0.6-1.5,0.6-2.1,0   C31.4,40.6,30.3,41.7,31,42.4z"/><path d="M37.1,42c0,0,0.1-0.1,0.1-0.2c2-2.9,0.1-5.5-0.9-4.6c-0.3,0.3-0.4,0.7-0.1,1.1c0.8,1,0.4,1.9-0.2,2.7   C34.9,42.4,36.7,43,37.1,42z"/><path d="M28.9,37.3c-1.3,1.5-0.9,3,0.2,4.6c0.3,0.9,1.7,0.4,1.4-0.5c-0.1-0.2-0.1-0.3-0.3-0.5c-0.6-0.8-1-1.7-0.2-2.7   C30.7,37.5,29.5,36.6,28.9,37.3z"/><path d="M41.5,45.2c-2.7,1.3-6.1-0.3-8.4,1c-2.3-1.3-5.7,0.3-8.4-1c-0.4-0.2-0.8,0-1,0.3c-0.4,0.9,0.7,1.2,1.7,1.5   c2.6,4.3,12.8,4.3,15.4,0c0.4-0.1,0.9-0.3,1.3-0.5c0.4-0.2,0.5-0.6,0.3-1C42.3,45.1,41.9,45,41.5,45.2z M27.7,47.2   c2.1,0,3.9-0.4,5,0.5c0.3,0.2,0.7,0.2,0.9,0c0.8-0.6,2-0.6,3.5-0.5c0.5,0,1,0,1.5,0C35.9,49.2,30.3,49.2,27.7,47.2z"/><path d="M35.7,31.3c-0.2,0.2-0.2,0.4-0.2,0.7c0.2,0.9,3.1,1.2,4,1.2c5.2,0,7.5-4.6,7.6-4.8c0.2-0.4-0.1-1-0.5-1.1   C42.7,26.5,39,27.9,35.7,31.3z M37.7,31.5c2.3-2.1,4.9-3.1,7.5-2.8C43.4,31.1,40.8,32.2,37.7,31.5z"/><path d="M35.2,29.7c7.3-5.6,8.2-4,10.2-5.1c1.2-0.7,2.1-2.9,0.8-3c-1.1-0.1-0.5,1.1-1.5,1.7c-1.4,0.8-3-0.4-10.4,5.2   c-0.3,0.3-0.4,0.7-0.1,1.1C34.4,29.8,34.9,29.9,35.2,29.7z"/><path d="M26.7,33.2c1.6,0,5.1-0.6,3.8-1.9c-3.3-3.4-6.9-4.8-10.9-4c-0.5,0.1-0.7,0.6-0.5,1.1C21.5,33.4,26.6,33.2,26.7,33.2z    M28.5,31.5c-0.6,0.2-1.3,0.2-1.9,0.2c-0.1,0-3.2,0.3-5.7-3.1C23.7,28.4,26.2,29.4,28.5,31.5z"/><path d="M22.5,25.1c1.3,0.3,3.4,0.7,8.5,4.6c0.8,0.6,1.7-0.6,0.9-1.2c-5.4-4.1-7.6-4.6-9.1-4.9c-0.9-0.2-1.8-0.4-1.9-1.4   c-0.1-1-1.6-0.9-1.5,0.1C19.5,23.2,21,24.8,22.5,25.1z"/></g></svg>