<svg xmlns="http://www.w3.org/2000/svg" xmlns:xlink="http://www.w3.org/1999/xlink" version="1.1" x="0px" y="0px" viewBox="0 0 8 10" enable-background="new 0 0 8 8" xml:space="preserve"><path
  d="M2.627,7C2.536,7,2.455,6.961,2.39,6.905L0.224,4.575c-0.299-0.32-0.299-0.84,0-1.16l2.144-2.306  C2.434,1.042,2.525,1,2.627,1c0.208,0,0.376,0.167,0.376,0.374v5.25C3.003,6.831,2.835,7,2.627,7L2.627,7z M7.775,4.575l-2.18,2.348  C5.534,6.967,5.462,7,5.379,7C5.171,7,5.004,6.831,5.004,6.624v-5.25C5.004,1.167,5.171,1,5.379,1c0.094,0,0.175,0.037,0.24,0.093  l2.156,2.321C8.074,3.735,8.074,4.255,7.775,4.575L7.775,4.575z"/>  
</svg>
